<?xml version="1.0" encoding="utf-8"?>
<!-- Generator: Adobe Illustrator 25.2.1, SVG Export Plug-In . SVG Version: 6.00 Build 0)  -->
<svg version="1.1" id="Layer_1" xmlns="http://www.w3.org/2000/svg" xmlns:xlink="http://www.w3.org/1999/xlink" x="0px" y="0px"
	 viewBox="0 0 648 181.3" style="enable-background:new 0 0 648 181.3;" xml:space="preserve">
<style type="text/css">
	.st0{fill:#00D645;}
	.st1{fill:#00421A;}
	.st2{fill:#F8F400;}
	.st3{fill:#F1F1F1;}
</style>
<g>
	
		<ellipse transform="matrix(0.2189 -0.9757 0.9757 0.2189 -44.6235 125.5567)" class="st0" cx="56.1" cy="90.6" rx="56.1" ry="56.1"/>
	
		<ellipse transform="matrix(0.2329 -0.9725 0.9725 0.2329 -45.116 124.1016)" class="st1" cx="56.1" cy="90.6" rx="37.4" ry="37.4"/>
	<ellipse transform="matrix(0.226 -0.9741 0.9741 0.226 -44.876 124.8193)" class="st0" cx="56.1" cy="90.6" rx="18.7" ry="18.7"/>
	<polygon class="st2" points="96.6,67.3 56.1,90.6 79.5,50.1 	"/>
	<path class="st3" d="M199,61.7c-3-3.2-6.8-5.8-11.2-7.7c-4.4-1.9-9.6-2.9-15.3-2.9c-6.4,0-12.4,1.2-17.6,3.6
		c-5.2,2.4-9.8,5.6-13.5,9.5c-3.7,3.9-6.7,8.5-8.8,13.5c-2.1,5.1-3.1,10.4-3.1,15.9c0,4.6,0.8,9.1,2.3,13.4c1.5,4.3,3.8,8,6.8,11.2
		c3,3.2,6.8,5.8,11.2,7.7c4.4,1.9,9.6,2.9,15.4,2.9c6.4,0,12.4-1.2,17.6-3.5c5.2-2.3,9.8-5.5,13.6-9.5c3.7-4,6.7-8.5,8.7-13.6
		c2.1-5.1,3.1-10.4,3.1-15.9c0-4.6-0.8-9.1-2.3-13.4C204.4,68.7,202.1,64.9,199,61.7z M166.6,112.5c-3,0-5.7-0.6-8-1.7
		c-2.3-1.1-4.2-2.6-5.8-4.4c-1.6-1.8-2.8-4-3.6-6.4c-0.8-2.4-1.2-5-1.2-7.6c0-3.2,0.6-6.3,1.7-9.3c1.1-3,2.7-5.7,4.7-8
		c2-2.3,4.5-4.2,7.3-5.6c2.8-1.4,6-2.1,9.4-2.1c3,0,5.7,0.6,8,1.7c2.3,1.1,4.3,2.6,5.9,4.4c1.6,1.8,2.8,4,3.6,6.4
		c0.8,2.4,1.2,5,1.2,7.6c0,3.2-0.6,6.3-1.7,9.3c-1.1,3-2.7,5.6-4.8,7.9c-2.1,2.3-4.5,4.2-7.4,5.6C173.2,111.8,170,112.5,166.6,112.5
		z"/>
	<polygon class="st3" points="209.4,126.9 226.4,126.9 234.2,53 217.2,53 	"/>
	<path class="st3" d="M258.3,51.7c-1.8-1.9-4.2-2.8-7.2-2.8c-1.6,0-3.1,0.3-4.5,0.9c-1.4,0.6-2.7,1.4-3.7,2.4c-1.1,1-2,2.2-2.6,3.6
		c-0.6,1.4-0.9,2.9-0.9,4.5c0,2.7,0.9,5,2.7,6.9c1.8,1.9,4.2,2.9,7.1,2.9c1.6,0,3.1-0.3,4.5-0.9c1.4-0.6,2.7-1.5,3.8-2.5
		c1.1-1,2-2.3,2.6-3.6c0.7-1.4,1-2.9,1-4.5C261,55.9,260.1,53.6,258.3,51.7z"/>
	<polygon class="st3" points="234.6,126.9 251.6,126.9 257,75.7 240,75.7 	"/>
	<path class="st3" d="M340.7,81c-1.1-2-2.8-3.6-4.9-4.8c-2.2-1.2-5-1.8-8.5-1.8c-4.2,0-7.8,0.8-10.7,2.5c-2.6,1.5-4.7,3.4-6.4,5.9
		c-0.9-2.3-2.4-4.3-4.5-5.8c-2.4-1.7-5.6-2.6-9.4-2.6c-3.9,0-7.3,0.8-10,2.5c-2,1.3-3.8,2.7-5.1,4.5l0.7-5.7h-16.5l-5.4,51.3h16.5
		l2.7-25.4c0.3-2.4,0.7-4.5,1.3-6.1c0.6-1.6,1.3-2.9,2.1-3.8c0.8-0.9,1.8-1.6,2.8-2c1-0.4,2.1-0.6,3.2-0.6c2.5,0,4.2,0.8,5,2.5
		c0.9,1.8,1.2,4.3,0.9,7.6l-2.9,27.8h16.5l2.7-25.7c0.5-4.7,1.7-8,3.3-9.7c1.7-1.7,3.6-2.5,5.9-2.5c2.5,0,4.2,0.8,5.1,2.6
		c1,1.8,1.3,4.4,0.9,7.7l-2.9,27.7h16.4l3.3-31.4c0.3-2.7,0.3-5.3,0.1-7.8C342.5,85.2,341.8,83,340.7,81z"/>
	<g>
		<path class="st3" d="M400.8,81.3c-1.9-2.2-4.2-3.9-6.9-5.1c-2.7-1.2-5.6-1.8-8.8-1.8c-3.9,0-7.4,0.8-10.4,2.5
			c-2.3,1.3-4.3,2.8-5.8,4.6l0.7-5.8h-17l-7.5,71.1h17l2.7-25.8c1.1,1.7,2.7,3.2,4.8,4.6c2.6,1.8,6.1,2.6,10.2,2.6
			c3.7,0,7.2-0.8,10.5-2.3c3.3-1.5,6.2-3.6,8.7-6.3c2.5-2.6,4.4-5.8,5.9-9.4c1.4-3.6,2.2-7.5,2.2-11.5c0-3.4-0.5-6.7-1.6-9.7
			C404.2,86.1,402.7,83.5,400.8,81.3z M389.8,100c0,1.8-0.3,3.5-1,5.2c-0.6,1.6-1.5,3.1-2.7,4.3c-1.2,1.2-2.5,2.2-4.1,3
			c-1.6,0.7-3.2,1.1-5,1.1c-3.3,0-5.7-1-7.5-3.2c-1.8-2.1-2.7-4.8-2.7-7.8c0-1.8,0.3-3.5,1-5.2c0.7-1.6,1.6-3.1,2.7-4.3
			c1.1-1.2,2.5-2.2,4.1-2.9c1.6-0.7,3.3-1.1,5.1-1.1c3.2,0,5.7,1.1,7.5,3.2C388.9,94.4,389.8,97,389.8,100z"/>
		<path class="st3" d="M466.4,89.3c-1.1-3-2.8-5.6-5-7.8c-2.2-2.2-4.9-4-8.2-5.3c-3.2-1.3-6.9-1.9-11.1-1.9c-4.6,0-8.9,0.8-12.7,2.4
			c-3.8,1.6-7.1,3.7-9.9,6.4c-2.7,2.7-4.9,5.8-6.4,9.4c-1.5,3.6-2.2,7.3-2.2,11.2c0,3.4,0.6,6.6,1.7,9.6c1.1,3,2.8,5.6,5,7.8
			c2.2,2.2,4.9,4,8.2,5.3c3.2,1.3,6.9,1.9,11.1,1.9c4.6,0,8.9-0.8,12.7-2.4c3.8-1.6,7.1-3.7,9.9-6.4c2.7-2.7,4.9-5.8,6.4-9.3
			c1.5-3.5,2.2-7.3,2.2-11.2C468.1,95.5,467.5,92.3,466.4,89.3z M443.4,112.5c-1.6,0.7-3.2,1.1-5,1.1c-3.3,0-5.8-1.1-7.5-3.2
			c-1.7-2.1-2.6-4.7-2.6-7.7c0-1.8,0.3-3.6,1-5.2c0.6-1.7,1.5-3.1,2.7-4.4c1.1-1.2,2.5-2.2,4-2.9c1.5-0.7,3.2-1.1,5.1-1.1
			c3.2,0,5.8,1.1,7.5,3.2c1.8,2.1,2.7,4.8,2.7,7.8c0,1.8-0.3,3.5-1,5.2c-0.6,1.6-1.5,3.1-2.7,4.3
			C446.3,110.7,444.9,111.7,443.4,112.5z"/>
		<g>
			<path class="st3" d="M468.3,121.1c0-1.1,0.2-2.1,0.7-3.1c0.4-1,1-1.8,1.8-2.6c0.7-0.7,1.6-1.3,2.6-1.7c1-0.4,2-0.6,3.2-0.6
				c2,0,3.6,0.7,4.9,2c1.3,1.3,1.9,2.9,1.9,4.8c0,1.1-0.2,2.1-0.7,3.1c-0.4,1-1,1.8-1.8,2.6c-0.7,0.7-1.6,1.3-2.6,1.7
				c-1,0.4-2.1,0.6-3.1,0.6c-2,0-3.6-0.7-4.9-2C468.9,124.6,468.3,123,468.3,121.1z"/>
		</g>
		<path class="st3" d="M543.4,81.4c-1.9-2.2-4.2-3.9-6.9-5.1c-2.7-1.2-5.6-1.8-8.8-1.8c-3.9,0-7.4,0.8-10.4,2.5
			c-2.4,1.3-4.4,2.9-5.9,4.7l3.1-28.7h-16.9l-7.8,73.9h16.9l0.6-6c1.1,1.8,2.8,3.3,4.9,4.7c2.7,1.7,6.1,2.5,10.1,2.5
			c3.7,0,7.2-0.8,10.5-2.3c3.3-1.5,6.2-3.6,8.6-6.3c2.5-2.6,4.4-5.8,5.9-9.4c1.4-3.6,2.2-7.5,2.2-11.5c0-3.4-0.5-6.7-1.6-9.6
			C546.8,86.1,545.3,83.5,543.4,81.4z M532.4,100.1c0,1.8-0.3,3.6-1,5.2c-0.6,1.6-1.5,3.1-2.7,4.3c-1.2,1.2-2.6,2.2-4.1,3
			c-1.6,0.7-3.3,1.1-5.1,1.1c-3.2,0-5.8-1.1-7.5-3.2c-1.8-2.2-2.7-4.8-2.7-7.8c0-1.8,0.3-3.6,1-5.2c0.6-1.6,1.5-3.1,2.7-4.4
			c1.1-1.3,2.5-2.3,4.1-3c1.6-0.7,3.3-1.1,5.1-1.1c3.3,0,5.9,1.1,7.6,3.3C531.5,94.5,532.4,97.1,532.4,100.1z"/>
		<path class="st3" d="M601.4,80.6c-2.1-1.9-4.6-3.5-7.7-4.6c-3-1.1-6.5-1.7-10.4-1.7c-4.6,0-8.8,0.8-12.5,2.4
			c-3.7,1.6-6.8,3.8-9.3,6.5c-2.5,2.7-4.5,5.9-5.9,9.5c-1.4,3.6-2.1,7.5-2.1,11.5c0,3.5,0.5,6.8,1.6,9.7c1.1,2.9,2.7,5.5,4.7,7.6
			c2.1,2.1,4.7,3.8,7.8,5c3.1,1.2,6.7,1.7,10.8,1.7c3.6,0,7-0.5,10-1.4c3-0.9,5.7-2.2,8-3.8c2.3-1.6,4.3-3.5,5.8-5.6
			c1.5-2.1,2.6-4.4,3.3-6.8l0.2-0.6h-16.6l-0.1,0.3c-0.7,1.5-1.8,2.8-3.2,3.9c-1.4,1-3.5,1.6-6.3,1.6c-2.1,0-3.7-0.3-5-0.9
			c-1.2-0.6-2.2-1.4-2.9-2.4c-0.7-1-1.1-2.1-1.3-3.3c-0.2-1.1-0.3-2.3-0.2-3.5h36l0.1-0.4c0.4-1.5,0.8-3,1-4.4
			c0.3-1.4,0.4-2.9,0.4-4.5c0-3.1-0.6-6-1.7-8.7C605,84.9,603.4,82.6,601.4,80.6z M574.8,88.4c2.2-1.7,4.7-2.6,7.6-2.6
			c2.8,0,5.1,0.9,6.8,2.6c1.6,1.6,2.3,4,2,7h-20C571.6,92.4,572.8,90,574.8,88.4z"/>
		<path class="st3" d="M635.2,88.6h11.5l1.4-12.8h-11.5l1.6-14.9h-16.8l-1.6,14.9h-7.9l-1.4,12.8h7.9l-2.2,20.9
			c-0.4,4.2-0.2,7.6,0.8,10.1c0.9,2.5,2.3,4.3,3.9,5.5c1.7,1.2,3.6,1.9,5.7,2.2c2.1,0.3,4,0.4,5.8,0.4c2.4,0,4.6-0.1,6.5-0.3
			c1.9-0.2,3.4-0.4,4.6-0.6l0.4-0.1l1.5-13.2l-0.7,0.2c-0.7,0.2-1.6,0.2-2.7,0.2h-2.8c-0.9,0-1.8-0.1-2.7-0.3
			c-0.8-0.2-1.4-0.5-1.9-1c-0.5-0.5-0.9-1.3-1.1-2.3c-0.2-1-0.2-2.5,0-4.4L635.2,88.6z"/>
	</g>
</g>
</svg>
