<?xml version="1.0" standalone="no"?>
<!DOCTYPE svg PUBLIC "-//W3C//DTD SVG 1.1//EN" "http://www.w3.org/Graphics/SVG/1.1/DTD/svg11.dtd" >
<svg xmlns="http://www.w3.org/2000/svg">
<metadata>Generated by IcoMoon</metadata>
<defs>
<font id="icomoon" horiz-adv-x="1024">
<font-face units-per-em="1024" ascent="960" descent="-64" />
<missing-glyph horiz-adv-x="1024" />
<glyph unicode="&#x20;" horiz-adv-x="512" d="" />
<glyph unicode="&#xe900;" glyph-name="all-games" horiz-adv-x="1078" d="M99.173 60.524h879.555c10.73 0 19.381 9.189 19.381 20.577v543.743c0 1.837-0.345 3.49-0.862 5.144l51.75 161.47c3.46 10.838 2.77 22.411-2.080 32.698-4.845 10.287-12.978 18.002-23.191 21.676l-309.108 111.872c-10.208 3.674-21.111 2.939-30.806-2.204-9.69-5.144-16.961-13.777-20.421-24.615l-68.365-213.456h-495.852c-10.73 0-19.384-9.185-19.384-20.574v-615.57c0-11.388 8.653-20.572 19.384-20.572v-0.189zM853.251 308.515c0 0-1.213-1.283-1.902-1.099l-309.28 111.503c0 0-0.523 0.183-0.868 0.738-0.172 0.366-0.172 0.733 0 1.283l158.882 496.535c0 0 0.345 0.551 0.862 0.735 0.35 0 0.695 0.184 0.868 0.184 0 0 0 0 0.172 0l309.28-111.504c0 0 0.517-0.368 0.695-0.918 0.345-0.551 0.172-0.918 0.172-1.102l-159.054-496.536 0.172 0.183zM579.967 352.057l7.443-46.479-39.284 21.86c-5.713 3.126-12.464 3.126-18.175 0l-39.288-21.86 7.442 46.479c1.039 6.796-1.039 13.592-5.538 18.367l-31.845 32.881 42.922 6.613c0.693-3.121 1.558-5.88 2.769-8.267 4.846-10.283 12.981-18.001 23.192-21.676l51.057-18.367c-1.040-3.309-1.385-6.43-0.868-9.367l0.172-0.183zM527.182 505.441l-36.345-55.66-74.595-11.573c-7.442-1.102-13.5-6.613-15.75-14.145s-0.346-15.617 5.019-21.125l52.787-54.558-12.461-76.972c-1.212-7.712 1.731-15.613 7.788-20.205 6.058-4.775 14.019-5.325 20.596-1.655l65.249 36.374 65.25-36.374c6.403-3.67 14.535-2.937 20.593 1.471 6.058 4.592 9 12.493 7.788 20.205l-12.288 76.051 218.937-78.805c4.155-1.471 8.305-2.204 12.633-2.204 17.311 0 32.714 11.754 38.422 29.022l69.233 216.030v-409.464h-841.307v574.24h462.966l-54.688-170.839 0.173 0.184zM1058.509 55.199h-1039.125c-10.706 0-19.384-9.211-19.384-20.577v-24.247c0-11.361 8.679-20.572 19.384-20.572h1039.125c10.709 0 19.386 9.211 19.386 20.572v24.247c0 11.366-8.677 20.577-19.386 20.577zM784.201 515.361l-16.271 5.878 3.465 11.022c5.018-3.858 10.558-6.797 16.438-8.818 16.098-5.878 33.576-4.592 48.98 3.306 15.409 8.083 26.829 21.86 32.369 39.128 7.96 24.983 1.73 52.538-15.926 70.723 0.523 1.286 0.868 2.388 1.213 3.674 11.42 35.454-6.575 74.214-39.979 86.338-16.271 5.878-33.576 4.592-48.98-3.306-15.403-8.083-26.829-21.86-32.364-39.128-0.345-0.918-0.523-1.653-0.695-2.572-25.611-2.021-47.594-19.839-55.9-45.924-5.54-17.267-4.328-35.637 3.115-51.986 7.615-16.349 20.593-28.473 36.864-34.351 5.885-2.204 11.943-3.306 18.001-3.49l-3.465-11.021-16.265 5.878c-10.213 3.674-21.288-2.204-24.748-12.859-3.465-10.838 1.902-22.595 12.116-26.269l69.4-24.983c2.075-0.735 4.155-1.102 6.23-1.102 8.305 0 15.748 5.695 18.518 13.961 3.46 10.838-2.075 22.595-12.116 26.269v-0.368zM801.857 687.302c13.15-4.776 20.248-19.84 15.748-33.801-1.040-3.306-2.77-6.429-5.018-9.185-3.983-4.96-5.713-11.573-4.5-18.002 1.207-6.429 5.363-11.757 10.903-14.512 11.765-5.695 17.478-19.839 13.15-32.882-2.075-6.797-6.575-12.124-12.633-15.247s-12.805-3.674-19.208-1.286c-8.138 2.939-14.368 10.104-16.443 19.105-1.558 6.98-6.23 12.492-12.633 14.696-2.080 0.735-4.155 1.102-6.23 1.102-4.328 0-8.655-1.653-12.288-4.592-6.753-5.878-15.753-7.532-23.886-4.592-6.403 2.204-11.426 6.98-14.363 13.41-2.943 6.43-3.465 13.594-1.213 20.391 4.328 13.41 17.651 20.941 30.634 17.084 6.058-1.837 12.633-0.368 17.478 3.857s7.615 10.654 7.27 17.451c-0.172 3.491 0.172 6.981 1.213 10.287 2.075 6.797 6.575 12.124 12.633 15.247 5.885 3.123 12.805 3.674 19.208 1.286l0.178 0.184zM704.221 809.459l25.266-9.185-0.517-11.389 23.886-8.634v99.564l-21.639 7.715-55.21-76.418-1.902-2.572 23.886-8.633 6.058 9.369 0.172 0.184zM715.814 827.277l16.098 24.799-1.385-30.126-14.713 5.327zM846.659 411.201l-25.266 9.189 0.517 11.388-23.886 8.633v-99.565l21.633-7.712 55.21 76.417 1.908 2.571-23.886 8.634-6.058-9.367-0.172-0.189zM835.061 393.383l-16.093-24.98 1.385 30.127 14.708-5.33v0.183z" />
<glyph unicode="&#xe901;" glyph-name="angle-right" horiz-adv-x="853" d="M138.752 935.083c-15.488-15.45-25.070-36.814-25.070-60.416s9.582-44.966 25.068-60.414l366.423-366.253-366.421-366.251c-15.476-15.455-25.050-36.818-25.050-60.416 0-47.155 38.226-85.381 85.381-85.381 23.556 0 44.884 9.539 60.332 24.966l426.666 426.666c15.488 15.45 25.070 36.814 25.070 60.416s-9.582 44.966-25.068 60.414l-426.669 426.669c-15.441 15.437-36.771 24.984-60.331 24.984s-44.889-9.548-60.331-24.985v0z" />
<glyph unicode="&#xe902;" glyph-name="ask" horiz-adv-x="768" d="M192 576c0 106.039 85.961 192 192 192s192-85.961 192-192c0-106.039-85.961-192-192-192v0c-35.346 0-64-28.654-64-64s28.654-64 64-64v0c176.731 0 320 143.269 320 320s-143.269 320-320 320c-176.731 0-320-143.269-320-320v0c0-35.346 28.654-64 64-64s64 28.654 64 64v0zM384 128c-35.346 0-64-28.654-64-64s28.654-64 64-64v0h1.28c35.346 0 64 28.654 64 64s-28.654 64-64 64v0h-1.28z" />
<glyph unicode="&#xe903;" glyph-name="back" horiz-adv-x="1161" d="M534.596 16.009c9.211 9.256 14.905 22.020 14.905 36.113 0 14.161-5.749 26.98-15.041 36.249l-325.155 323.926 906.991 0.478c25.115 3.553 44.221 24.907 44.221 50.722 0 28.271-22.914 51.191-51.184 51.2h-899.96l325.086 323.789 4.983 5.734c6.312 8.416 10.107 19.036 10.107 30.542 0 28.277-22.923 51.2-51.2 51.2-14.129 0-26.922-5.723-36.186-14.978v0l-412.331-410.556c-9.745-9.337-15.802-22.457-15.802-36.992 0-14.2 5.78-27.049 15.116-36.324l0.003-0.003 413.013-411.238 5.734-4.983c8.378-6.221 18.923-9.959 30.342-9.959 14.18 0 27.013 5.764 36.285 15.077l0.002 0.002z" />
<glyph unicode="&#xe904;" glyph-name="music" d="M909.94 932.488c5.605 1.867 11.203 1.867 18.671 1.867 31.73 0 57.863-26.133 59.733-57.867v-657.065c0-67.202-80.268-119.467-179.2-119.467-98.939 0-179.203 52.265-179.203 119.467 0 65.332 80.264 119.465 179.203 119.465 20.528-1.866 39.199-3.734 59.733-7.466v343.467l-477.869-140v-434.932c0-67.202-80.267-119.467-179.2-119.467s-179.2 52.265-179.2 119.467c0 65.331 80.267 119.467 179.2 119.467 20.533-1.871 39.2-3.734 59.733-7.468v487.201c0 26.133 16.8 48.533 41.066 57.866l597.332 175.467z" />
<glyph unicode="&#xe905;" glyph-name="bank" horiz-adv-x="887" d="M455.134 914.466l-432.401-227.533v-90.999h864.734v90.999zM659.934 504.866v-318.532h136.533v318.532zM22.733-41.267h864.734v136.533h-864.734zM386.867 504.866v-318.532h136.533v318.532zM113.801 504.866v-318.532h136.533v318.532h-136.533z" />
<glyph unicode="&#xe906;" glyph-name="bet-sport" horiz-adv-x="1075" d="M0 628.727c3.701 22.224 6.729 44.618 13.122 66.5 15.14 52.824 40.038 100.006 76.039 141.034 53.328 61.2 119.778 100.006 198.676 116.246 74.188 15.386 146.358 6.838 215.499-24.275 61.405-27.694 111.366-69.748 149.72-125.649 19.348-28.207 34.319-58.636 44.749-91.459 2.524-8.035 6.395-10.941 14.807-11.282 142.822-7.522 261.76-102.57 298.941-243.605 30.95-117.612 4.204-223.089-77.22-312.668-48.783-53.678-109.681-85.816-180.675-97.956-7.404-1.198-13.624-4.444-19.681-9.057-50.975-39.834-107.331-68.726-169.743-85.304-30.28-8.038-61.235-13.164-92.525-14.193-55.515-2.048-111.030-2.391-165.872 9.917-65.946 14.7-125.834 42.906-180.003 83.763-16.823 12.652-33.646 25.472-50.3 38.467-28.935 22.564-31.458 58.977-5.047 84.28 40.543 38.63 80.581 77.952 130.040 105.134 6.898 3.758 6.224 6.154-0.504 9.569-77.89 39.148-134.414 99.323-170.246 179.671-14.972 33.506-23.552 68.893-28.262 105.306-0.336 2.393-1.009 4.616-1.514 6.838v68.722zM424.438-26.353c31.963-0.855 62.076 0 92.191 4.782 92.861 14.193 169.068 62.397 239.887 121.375 8.581 7.183 9.088 17.951 1.014 25.646-31.462 30.085-62.244 61.030-98.586 85.304-85.96 57.436-180.169 79.662-282.283 68.209-68.805-7.864-131.385-32.993-188.583-72.141-33.814-23.25-62.581-52.485-92.525-80.179-10.094-9.231-9.252-19.656 1.85-28.375 16.823-13.164 33.982-26.158 50.973-38.979 40.711-30.597 85.291-53.678 133.909-68.378 47.103-14.188 95.048-19.492 142.32-17.439l-0.168 0.174zM118.937 811.644c-2.187 0.171-2.86 0-6.561-4.616-39.029-46.669-63.253-100.348-72.674-161.035-1.009-5.983 0-9.060 6.393-9.231 4.71-0.171 9.252-1.026 13.963-1.368 23.216-1.539 46.263-5.129 68.805-11.112 54.001-14.189 102.45-39.661 144.507-76.927 5.383-4.787 8.58-3.932 13.122 0.855 12.954 13.676 26.075 27.010 39.534 40.174 5.383 5.299 5.047 8.718 0 14.018-67.459 68.209-134.582 136.589-202.041 204.969-1.682 1.71-3.533 3.077-4.878 4.274h-0.168zM309.875 918.831c0 0-1.85 0-3.364-0.513-59.216-9.744-111.535-34.361-157.293-73.679-5.215-4.616-3.701-7.351 0.168-11.283 67.796-68.722 135.423-137.444 203.050-206.508 4.879-4.958 7.738-4.103 11.944 0.513 11.271 11.966 22.879 23.591 34.486 35.216 11.944 12.137 11.776 11.966 1.178 25.13-36.674 45.131-60.898 96.245-73.516 153.342-5.215 23.078-6.897 46.669-9.252 70.261-0.336 3.761 1.010 8.889-7.234 7.522h-0.168zM371.278 922.42c-1.682 0-3.365 0-5.047 0-12.617 0-12.954 0-12.281-12.992 0.841-17.608 2.86-35.045 6.056-52.311 10.598-55.217 33.477-104.451 68.973-147.53 4.206-5.128 7.234-8.889 13.963-2.051 41.048 42.396 82.6 84.278 124.154 126.332 4.035 3.932 4.372 6.496 0 10.428-56.695 48.55-122.135 74.192-195.818 78.124zM48.281 599.324c-11.439 0.684-12.112 0-11.944-12.137 1.514-75.731 26.916-142.571 73.852-201.21 5.888-7.347 8.916-8.033 15.645-1.024 39.533 41.027 79.571 81.714 119.441 122.4 5.72 5.926 5.439 11.511-0.841 16.753-57.029 47.524-122.806 71.628-196.153 75.389v-0.17zM680.479 517.097c0 7.18-0.671 14.189 0 21.198 1.009 9.744-3.026 15.386-10.767 20.685-26.747 18.292-52.992 37.438-79.401 56.243-5.386 3.761-10.26 7.864-11.438 14.702-1.014 6.325-4.040 4.616-7.572 2.906-37.176-18.121-68.132-44.276-94.712-76.244-3.701-4.445-4.878-8.035 1.682-10.599 10.598-4.103 15.813-12.65 19.514-22.907 7.57-20.514 15.982-40.687 23.887-61.2 2.186-5.812 5.555-9.402 11.443-11.625 17.664-6.837 35.323-14.015 52.823-21.542 6.39-2.734 11.1-1.705 16.486 2.053 16.65 11.796 32.973 24.275 50.801 34.020 21.197 11.624 34.319 25.985 27.254 52.14v0.171zM253.855 285.629c3.533 1.024 7.066 1.879 10.43 3.246 26.748 10.429 54.169 18.806 82.431 22.912 10.43 1.536 11.271 5.98 9.757 14.7-9.926 58.296-33.646 109.921-70.488 155.565-4.71 5.812-7.906 6.496-13.458 0.855-41.048-41.885-82.095-83.767-123.479-125.479-5.047-5.125-4.878-8.033 0.673-12.646 28.431-23.936 59.553-43.080 94.207-55.905 3.028-1.193 6.224-2.048 9.589-3.077l0.336-0.169zM985.646 346.66c0.502 7.864-0.338 9.231-5.888 7.178-8.919-3.42-15.985-0.681-23.388 4.275-26.747 18.289-53.832 36.070-80.579 54.533-6.395 4.444-11.607 4.787-18.335 1.198-10.936-5.816-22.205-10.772-33.48-15.729-4.879-2.222-7.905-5.473-9.421-10.772-8.243-30.254-16.824-60.513-25.569-90.604-1.853-6.154-0.169-10.086 4.035-14.188 8.75-8.376 17.162-16.922 25.405-25.815 4.71-5.125 9.759-7.009 16.655-7.009 32.635 0.343 65.101 0 97.741 0 6.559 0 13.117-0.338 17.326-5.98 4.71-6.497 6.559-3.932 9.083 1.536 14.802 32.138 23.383 65.987 26.245 101.376h0.169zM717.153 516.926c0-7.693 0.338-15.557 0-23.249-0.507-7.18 2.186-11.795 8.243-15.728 22.543-14.873 44.918-30.087 67.292-45.473 5.212-3.589 9.754-4.444 15.642-1.541 12.114 6.154 24.566 12.14 37.012 17.611 6.39 2.735 9.759 7.18 11.607 13.847 8.914 32.481 18.171 64.962 27.254 97.442 2.017 7.009 4.372 13.506 11.269 17.095 5.217 2.735 2.186 5.129-0.333 7.522-20.695 20.001-43.909 35.9-69.478 48.721-3.871 1.881-6.057 1.71-7.066-3.077-1.516-7.18-6.733-11.453-12.283-15.386-20.521-14.531-40.038-30.429-61.568-43.25-21.366-12.822-34.826-27.694-27.592-54.533zM698.312 302.213c15.309 0 30.618 0.169 45.926 0 6.395 0 9.759 2.222 11.438 8.545 7.066 25.815 14.131 51.456 21.535 77.102 1.848 6.492 0.502 10.767-5.217 14.531-22.543 15.043-44.913 30.254-67.287 45.642-4.547 3.077-8.079 3.077-12.621 0-22.543-15.557-45.251-30.942-68.132-46.159-4.879-3.246-6.39-6.492-4.71-12.477 7.572-25.984 14.976-51.968 21.873-77.952 1.848-6.84 5.212-9.231 11.94-9.062 14.976 0.343 29.947 0 44.918 0l0.338-0.169zM510.57 639.326c2.526 1.539 4.712 2.736 7.067 4.103 9.59 5.983 19.174 12.308 29.102 17.779 32.973 18.121 68.132 29.916 105.477 35.216 12.114 1.71 11.945 1.881 7.572 13.676-12.954 35.045-31.457 67.013-55.009 95.732-4.209 4.958-6.902 6.838-12.452 1.197-41.385-42.396-83.104-84.62-124.824-126.845-3.869-3.932-4.71-6.325 0-10.428 12.112-10.086 24.393-19.659 37.851-28.036 1.682-1.026 3.533-1.71 5.384-2.565l-0.168 0.171zM412.662 338.964c2.187-22.733 0.168-20.173 18.505-20.342 59.721 0 116.75-12.82 171.76-35.901 2.355-1.024 5.048-3.589 7.404-1.705 2.693 2.048 0.338 5.125-0.338 7.521-8.745 31.626-17.664 63.078-26.409 94.536-1.684 5.811-4.879 9.057-10.266 11.279-16.486 6.497-32.804 12.995-49.121 20.004-6.559 2.903-10.936 1.71-15.813-3.42-20.86-21.709-42.394-42.911-63.422-64.788-9.084-9.574-18.337-16.072-32.468-7.183h0.168zM877.64 212.465c-13.286 0-26.578 0-39.869 0-6.052 0-9.923-2.053-12.616-7.695-9.59-19.999-19.512-40.003-29.44-59.832-2.186-4.275-2.355-8.207-0.169-12.477 4.209-8.893 5.386-18.463 3.2-27.694-2.355-10.598 1.848-8.893 8.407-6.328 48.62 20.173 88.827 51.287 120.622 93.681 3.026 3.932 4.879 7.521 2.355 12.826-2.693 5.637-6.564 7.859-12.616 7.69-13.292-0.169-26.583 0-39.875 0v-0.169zM985.477 402.048c-1.347 8.202-2.355 15.555-3.533 22.907-7.404 40.002-22.881 76.585-45.256 110.434-3.866 5.812-8.412 7.863-15.14 7.009-6.39-0.855-6.226-6.325-7.404-10.599-5.719-20.001-11.607-40.174-16.988-60.346-7.741-29.402-11.607-20.685 14.131-38.633 18.335-12.82 37.176-24.96 55.516-37.78 5.043-3.589 9.083-2.734 13.624 0 3.026 1.879 5.888 3.42 5.048 6.835v0.174zM374.811 402.391c0 0 1.346 1.536 1.514 2.222 3.364 37.437 13.795 72.823 29.44 106.671 2.523 5.471 0.841 8.548-2.86 12.308-13.122 12.993-26.075 25.985-38.692 39.49-4.542 4.787-7.402 4.958-12.112 0-12.954-13.676-25.907-27.181-39.534-40.173-5.888-5.642-6.056-9.402-0.673-15.728 25.234-29.575 44.917-62.74 59.216-99.153 0.841-2.048 0.841-4.782 3.701-5.98v0.343zM699.151 662.747c-23.721 0.684-46.935-2.564-69.98-8.377-5.55-1.368-8.581-4.616-9.759-10.086-1.347-5.641 3.195-6.838 6.226-9.060 21.366-15.386 43.064-30.429 64.261-46.157 6.564-4.787 11.274-4.445 17.664 0 21.028 15.386 42.394 30.258 63.59 45.302 3.702 2.735 8.243 4.786 6.559 11.111-1.51 5.812-5.381 7.693-10.598 9.060-22.374 5.642-44.913 8.719-67.963 8.206zM644.649 264.776c16.148-11.628 32.128-21.714 47.606-32.824 23.89-17.439 45.588-37.268 66.785-57.779 5.888-5.642 8.75-4.961 12.114 2.56 4.71 10.772 10.26 21.202 15.478 31.8 9.59 19.318 8.412 18.463-5.55 35.215-13.798 16.753-29.44 23.076-50.975 21.54-28.431-1.884-57.032-0.512-85.458-0.512zM411.821 394.015c0-1.029 0-2.053 0-3.077-0.505-5.473-1.346-10.429 5.383-13.338 6.561-2.903 9.084 1.541 12.449 4.956 17.832 18.125 35.664 36.244 53.496 54.364 3.028 3.077 7.066 5.985 5.047 11.112-8.075 20.685-15.645 41.541-24.729 61.884-4.374 9.915-12.786 9.402-18-0.342-19.346-36.070-30.281-74.533-33.477-115.56h-0.168zM425.783 553.338c3.196 0.342 4.542 2.393 5.888 4.274 13.29 18.634 27.758 36.070 44.244 51.969 3.028 2.906 3.869 4.958 0 7.864-12.112 8.205-23.72 17.437-34.655 27.181-4.038 3.59-6.898 2.051-10.094-1.368-13.963-14.36-28.094-28.72-42.225-42.909-3.533-3.419-4.206-6.154-0.337-10.086 11.44-11.283 22.543-22.907 33.814-34.19 1.178-1.197 2.523-2.052 3.533-2.735h-0.168z" />
<glyph unicode="&#xe907;" glyph-name="cart" d="M28.444 903.111c0 15.709 12.735 28.444 28.444 28.444v0h97.508c0.012 0 0.026 0 0.040 0 13.45 0 24.72-9.335 27.683-21.88l0.038-0.193 25.884-112.754h759.068c0 0 0.001 0 0.001 0 15.709 0 28.444-12.735 28.444-28.444 0-2.198-0.249-4.337-0.721-6.392l0.037 0.191-97.508-438.272c-2.938-12.823-14.249-22.244-27.76-22.244-0.001 0-0.001 0-0.002 0h-547.897l17.92-77.938h529.977c15.709 0 28.444-12.735 28.444-28.444s-12.735-28.444-28.444-28.444v0h-552.732c-13.443 0.008-24.704 9.341-27.666 21.88l-0.038 0.193-29.013 126.293c-1.563 2.503-2.78 5.411-3.49 8.513l-0.037 0.191-48.754 219.022-76.117 331.833h-74.866c-15.709 0-28.444 12.735-28.444 28.444v0zM308.622 358.457h538.169l84.878 381.383h-709.291l41.074-184.434 45.17-196.949zM382.009 99.271c-19.285 0-36.58-16.498-36.58-38.969 0-22.528 17.294-38.969 36.523-38.969s36.58 16.498 36.58 38.969c0 22.528-17.294 38.969-36.58 38.969zM288.54 60.302c0 51.996 40.846 95.858 93.412 95.858 52.622 0 93.468-43.861 93.468-95.858 0-51.94-40.846-95.858-93.468-95.858-52.565 0-93.412 43.918-93.412 95.858zM804.523 99.271c-19.172 0-36.523-16.498-36.523-38.969 0-22.528 17.351-38.969 36.58-38.969s36.58 16.498 36.58 38.969c0 22.528-17.351 38.969-36.58 38.969zM711.111 60.302c0 51.996 40.903 95.858 93.468 95.858s93.468-43.861 93.468-95.858c0-51.94-40.903-95.858-93.468-95.858-52.622 0-93.468 43.918-93.468 95.858z" />
<glyph unicode="&#xe908;" glyph-name="cart-plus" d="M20.48 960c-11.311 0-20.48-9.169-20.48-20.48s9.169-20.48 20.48-20.48v0h89.006l84.132-366.346 52.634-236.585c0.65-2.889 1.83-5.43 3.44-7.636l-0.040 0.058 31.744-138.199c2.16-9.167 10.268-15.887 19.947-15.892h596.911c11.311 0 20.48 9.169 20.48 20.48s-9.169 20.48-20.48 20.48v0h-580.608l-23.962 104.735h604.57c0 0 0.001 0 0.001 0 9.728 0 17.872 6.783 19.961 15.878l0.027 0.138 105.308 473.334c0.307 1.329 0.483 2.856 0.483 4.424 0 11.308-9.165 20.475-20.472 20.48h-828.007l-29.778 129.72c-2.161 9.171-10.276 15.893-19.96 15.893-0.025 0-0.049 0-0.074 0h-105.263zM881.787 341.053h-597.565l-50.668 220.692-47.104 211.64h791.552l-96.256-432.333zM321.864 29.307c0 29.614 22.938 52.306 49.725 52.306 26.747 0 49.725-22.692 49.725-52.306s-22.938-52.347-49.725-52.347c-26.788 0-49.766 22.733-49.766 52.347zM371.589 122.573c-50.79 0-90.726-42.476-90.726-93.266 0-50.831 39.936-93.307 90.726-93.307s90.685 42.476 90.685 93.307c0 50.79-39.895 93.266-90.685 93.266zM778.24 29.307c0 29.614 22.938 52.306 49.725 52.306s49.766-22.692 49.766-52.306c0-29.614-22.979-52.347-49.766-52.347-26.747 0-49.725 22.733-49.725 52.347zM827.965 122.573c-50.79 0-90.685-42.476-90.685-93.266 0-50.831 39.895-93.307 90.685-93.307s90.726 42.476 90.726 93.307c0 50.79-39.936 93.266-90.726 93.266zM593.92 693.76c0 11.311-9.169 20.48-20.48 20.48s-20.48-9.169-20.48-20.48v0-122.88h-122.88c-11.311 0-20.48-9.169-20.48-20.48s9.169-20.48 20.48-20.48v0h122.88v-122.88c0-11.311 9.169-20.48 20.48-20.48s20.48 9.169 20.48 20.48v0 122.88h122.88c11.311 0 20.48 9.169 20.48 20.48s-9.169 20.48-20.48 20.48v0h-122.88v122.88z" />
<glyph unicode="&#xe909;" glyph-name="casino" horiz-adv-x="922" d="M911.923 604.416c-2.56 1.229-5.53 1.536-8.346 1.229h-50.483c-8.964 51.415-26.041 97.393-50.024 138.876l1.077-2.019c-2.714 4.762-5.683 9.523-8.55 14.285l-0.563 1.024-1.638 2.56c-35.686 57.702-88.883 101.274-119.501 123.597-1.985 1.952-4.161 3.722-6.495 5.275l-0.161 0.101c-2.458 1.485-4.813 2.816-7.168 4.301-2.235 1.56-5.608 3.757-9.025 5.889l-1.318 0.767v-0.256c-33.157 20.131-71.499 36.548-112.161 47.244l-3.039 0.679c-22.938 5.786-46.541 8.909-69.99 12.032h-72.090c-21.811-2.97-43.622-5.786-65.126-11.162-86.959-21.244-161.182-66.868-217.26-129.153l-0.34-0.383c-52.77-57.488-89.839-130.185-103.93-210.784l-0.364-2.515c-2.253-12.288-3.584-24.678-5.376-37.018v-73.523c0.87-5.786 1.946-11.418 2.56-17.254 11.469-91.034 48.23-170.752 111.36-237.107 98.56-103.424 219.392-148.326 359.424-134.656-4.015-13.62-7.124-29.701-8.722-46.225l-0.085-1.084c-6.246-77.363 0-109.926 0.307-111.258 1.366-6.845 7.326-11.931 14.474-11.931 0.059 0 0.119 0 0.178 0.001h208.887c0.009 0 0.021 0 0.032 0 4.705 0 8.898 2.188 11.619 5.602l0.023 0.030c2.006 2.503 3.219 5.717 3.219 9.215 0 1.218-0.147 2.401-0.424 3.533l0.021-0.101c-0.307 1.536-34.918 152.832 40.346 277.914 5.478 9.216 11.008 17.869 16.384 26.061l2.253 2.662c13.466 16.384 25.395 33.178 35.994 50.432 11.366 14.438 22.272 27.392 32.563 39.578 38.502 45.824 68.966 81.971 79.872 145.92 17.050 100.762 12.544 102.81 1.536 107.878l0.102-0.307zM354.048 146.176c-84.992 15.206-156.774 56.115-214.886 119.654-82.586 90.010-115.712 196.659-101.069 317.184 11.315 93.594 52.736 173.312 122.573 236.851 103.322 93.85 224.614 123.75 360.653 94.72 41.556-9.305 78.283-24.6 111.394-45.167l-1.519 0.879c71.219-43.162 121.242-113.050 136.653-136.448 22.77-36.895 39.943-79.939 49.003-125.896l0.405-2.462h-32.41c-34.458 164.096-181.76 288.307-355.226 288.461-199.373 0-364.8-163.226-363.162-361.83-1.638-197.837 162.611-361.472 362.086-361.984 24.371 0 47.974 2.406 70.963 6.861-5.222-11.469-10.189-23.194-14.49-34.816-15.887-2.088-34.259-3.279-52.909-3.279-27.6 0-54.59 2.609-80.738 7.595l2.678-0.425v0.154zM517.581 605.798h-69.888c-0.646 1.106-1.028 2.434-1.028 3.852 0 0.086 0.001 0.171 0.004 0.257v-0.012c0 6.298 0 11.213 7.168 14.899 15.973 8.431 26.675 24.931 26.675 43.93 0 4.273-0.541 8.42-1.559 12.375l0.075-0.343c-5.321 22.239-24.794 38.6-48.174 39.116l-0.056 0.001c-24.32 0.307-44.186-14.131-50.739-37.018-1.295-4.212-2.041-9.054-2.041-14.070 0-18.813 10.493-35.176 25.947-43.554l0.261-0.13c7.168-3.84 7.936-8.755 7.782-15.462 0.003-0.068 0.004-0.148 0.004-0.229 0-1.303-0.383-2.517-1.043-3.534l0.015 0.025h-25.088c-0.015 0-0.033 0-0.051 0-8.211 0-14.87-6.642-14.899-14.845v-12.957c-4.506-5.632-8.397-11.878-10.906-19.354-2.867-8.294-7.475-9.523-14.95-9.216-5.99 0.307-7.014 4.762-9.216 8.346-9.034 15.287-25.43 25.379-44.183 25.379-7.765 0-15.125-1.73-21.717-4.826l0.313 0.132c-17.673-8.16-29.716-25.73-29.716-46.113 0-5.475 0.869-10.747 2.476-15.685l-0.101 0.358c6.707-19.968 20.941-32.461 41.83-35.123 22.835-2.97 40.602 6.4 51.661 26.317 3.738 6.707 8.499 6.554 14.49 6.707 6.4 0.154 6.861-4.608 8.346-8.653 2.867-7.424 6.861-13.824 11.52-19.763v-128.819c0-8.192 6.707-14.848 14.899-14.848h134.861c8.192 0 14.95 6.656 14.95 14.848v49.51c9.508 5.906 21.045 9.407 33.4 9.407 9.411 0 18.347-2.031 26.394-5.679l-0.402 0.163c5.274-2.253 9.882-4.301 14.234-6.4-40.175-56.039-105.106-92.118-178.463-92.118-0.691 0-1.381 0.003-2.071 0.010l0.106-0.001c-123.034 0.307-220.109 97.587-219.955 219.75 0 122.573 97.792 218.112 220.416 219.75 106.342-1.536 193.69-73.523 215.194-172.442-16.742 10.854-32.563 17.408-72.294 16.538-16.691-0.307-29.696-4.045-39.68-9.114v3.738c0 8.192-6.758 14.848-14.95 14.848h0.154zM445.133 668.877c0-8.038-7.731-15.514-15.821-15.514-8.346 0-16.282 8.192-15.872 16.384 0.512 8.192 8.243 15.36 16.333 15.155 8.038-0.256 15.514-7.885 15.36-15.872v-0.154zM307.61 532.275c-0.287-8.464-6.834-15.312-15.141-16.072l-0.065-0.005c-8.192-0.307-16.435 7.578-16.282 15.923 0 8.038 7.578 15.616 15.667 15.616 8.038 0 15.667-7.424 15.872-15.462zM637.491 383.949c0.87 1.178 1.638 2.662 2.97 3.584 6.554-3.738 13.005-7.322 19.968-9.984-20.122-19.763-51.763-50.688-77.158-76.032-2.56 4.352-4.915 8.806-7.629 13.107-2.662 4.608-2.048 7.014 2.253 10.138 23.296 16.384 43.008 36.147 59.597 59.187zM446.618 241.869c0 9.523 0.154 18.944 0 28.416 0 4.608 1.229 7.322 6.298 7.731 30.894 3.044 59.223 11.073 85.186 23.298l-1.577-0.667c3.891 1.792 6.144 0.461 8.192-2.97 4.352-7.731 9.011-15.36 13.312-23.040-12.544-15.514-25.395-34.816-37.478-56.269-15.974-4.608-32.256-8.038-48.845-10.138-5.222-0.717-10.598-1.024-15.821-1.741-6.707-0.922-9.728 1.331-9.421 8.602 0.512 8.96 0 17.869 0 26.778h0.154zM411.802 241.869v-24.218c0-11.469 0-11.93-11.776-10.906-31.393 2.702-60.383 9.627-87.526 20.239l2.124-0.731c-9.421 3.584-18.483 8.038-27.75 11.878-4.352 1.792-5.222 4.198-2.714 8.346 10.035 17.101 20.019 34.202 29.696 51.354 2.406 4.147 5.12 4.454 9.011 2.56 23.469-11.256 50.748-19.037 79.487-21.835l1-0.079c6.554-0.614 9.216-3.123 8.806-9.984-0.614-8.909 0-17.818 0-26.778l-0.307 0.154zM411.802 793.958c0.205-5.171-1.741-7.424-6.963-8.038-28.826-2.97-56.627-10.24-82.893-22.426-3.738-1.792-6.144-0.768-8.192 2.816-9.882 17.101-19.558 34.355-29.696 51.302-3.482 5.632 0 7.322 4.096 9.216 28.614 14.080 61.841 24.293 96.843 28.858l1.615 0.172c6.144 0.768 12.288 1.178 18.381 1.792 5.069 0.461 7.014-1.792 6.861-6.861-0.154-9.677 0-19.456 0-29.184 0-9.216-0.154-18.432 0-27.494v-0.154zM283.853 747.571c0.614-0.922 0.922-2.099 1.229-2.714 0-2.816-1.946-3.584-3.43-4.762-23.974-16.944-44.258-37.195-60.712-60.357l-0.523-0.776c-2.099-3.072-4.198-3.994-7.629-1.946 0.353 0.577-17.214 10.798-34.868 20.882l-18.892 9.94c-4.762 2.662-2.56 5.222-0.614 8.038 15.619 22.637 33.097 42.293 52.696 59.604l0.347 0.3c10.030 8.88 20.98 17.489 32.418 25.445l1.169 0.77c2.56 1.792 5.12 4.045 7.475-0.307l31.334-54.118zM194.253 646.963c3.738-2.048 4.352-4.608 2.714-8.294-11.524-24.080-19.518-52.063-22.444-81.536l-0.084-1.049c-0.614-5.376-3.174-7.014-8.192-6.861-9.626 0.307-18.995 0-28.57 0-8.96 0-17.92 0.307-26.88 0-6.707-0.256-8.96 2.253-8.346 8.806 2.783 35.054 10.804 67.492 23.305 97.601l-0.777-2.113c2.714 6.707 5.99 13.261 8.806 19.814 1.946 4.454 4.198 5.939 8.96 3.277 17.050-10.138 34.355-19.814 51.507-29.645zM112.435 515.072c8.704-0.614 17.306 0 26.010 0 8.96 0 17.92-0.307 26.88 0 5.786 0.307 8.653-1.331 9.37-7.578 2.976-30.189 10.935-57.861 23.068-83.15l-0.642 1.486c1.946-4.198 0.563-6.554-3.277-8.806-17.050-9.677-34.048-19.2-50.79-29.184-5.376-3.072-7.322-0.563-9.421 3.738-14.107 28.489-24.337 61.575-28.91 96.443l-0.172 1.605c-0.614 4.915-1.024 9.984-1.792 14.848-1.229 7.782 1.331 11.366 9.83 10.598h-0.154zM160.973 357.683c16.896 9.216 33.434 19.046 50.022 28.672 4.506 2.714 7.014 2.406 10.138-2.202 16.128-22.886 35.84-42.547 58.88-58.778 3.686-2.662 6.4-4.762 3.277-9.933-10.342-17.306-20.173-34.714-30.31-51.917-0.922-1.69-1.638-3.738-4.608-3.43-35.378 23.649-65.084 52.686-88.74 86.289l-0.706 1.058c-3.328 4.608-3.584 7.117 1.894 10.086l0.154 0.154zM446.669 847.565c0 10.24 0 10.24 12.083 9.984 41.544-3.882 79.672-14.88 114.394-31.785l-1.959 0.861c5.069-2.56 5.632-4.915 2.816-9.728-9.83-16.486-19.405-33.126-28.826-49.971-2.355-4.301-5.069-5.018-9.523-3.072-23.471 11.239-50.752 19.002-79.49 21.784l-0.996 0.078c-6.758 0.563-8.806 3.584-8.704 10.086 0.512 17.254 0 34.509 0.154 51.763zM637.491 680.038c-16.527 23.216-36.209 42.882-58.685 58.879l-0.759 0.513c-4.352 3.072-5.222 5.478-2.406 10.086 10.189 16.998 20.019 34.099 29.901 51.2 1.792 3.277 3.43 4.608 7.168 2.048 34.97-23.827 64.286-53.046 87.492-86.794l0.726-1.117c0.496-0.704 1.004-1.524 1.468-2.372l0.068-0.137c0.41-2.97-1.536-3.738-3.174-4.608-17.306-9.984-34.816-19.968-52.122-30.208-4.454-2.56-6.707-1.485-9.523 2.406l-0.154 0.102zM674.509 652.851c13.312 7.68 26.726 15.002 39.885 23.040 5.376 3.277 8.038 2.662 10.906-3.072 12.544-26.214 20.992-53.453 26.266-81.92v-33.28c-13.722-4.301-41.472-10.394-67.482-0.461-0.277 1.154-0.495 2.535-0.608 3.946l-0.006 0.099c-2.509 24.708-8.523 47.372-17.573 68.422l0.575-1.503c-4.403 10.752-1.69 18.944 8.192 24.73h-0.154zM881.050 501.555c-6.144-35.738-19.149-61.594-37.478-87.040 0.333 1.568 0.686 2.855 1.102 4.113l-0.078-0.273c-11.059-15.77-23.91-31.232-38.502-48.64-25.6-30.362-57.242-67.994-90.112-122.573-10.1-16.616-19.493-35.888-27.098-56.037l-0.806-2.433c0.768 0.563 1.69 1.178 2.406 1.792-35.226-93.696-26.266-186.573-20.173-224.973h-179.302c-1.229 14.848-2.253 44.186 1.638 91.085 5.632 69.12 59.392 173.773 100.198 214.221 40.448 40.141 106.906 105.011 106.906 105.165 2.774 2.677 4.497 6.427 4.497 10.58 0 1.981-0.392 3.87-1.102 5.594l0.036-0.098c-2.276 5.415-7.46 9.186-13.545 9.369l-0.023 0.001c-15.872 0.307-24.678 5.53-40.806 14.848-10.906 6.298-24.32 14.182-43.571 22.221-10.919 4.804-23.632 7.686-36.995 7.884l-0.074 0.001c-33.741-0.307-55.808-19.507-57.19-20.531-3.085-2.752-5.030-6.726-5.069-11.155v-42.298h-106.547v203.469h103.424v-21.709c0-1.485 0.307-2.816 0.768-3.994-0.961 0.635-1.693 1.549-2.087 2.625l-0.012 0.037c0.869-7.449 7.142-13.176 14.754-13.176 5.68 0 10.614 3.189 13.111 7.874l0.039 0.080c0.461 0.768 10.138 18.33 41.83 18.739 16.691 0.307 27.648-0.87 36.147-3.072 0 0.102-0.154 0.256-0.307 0.41 11.776-2.662 18.637-7.168 27.341-13.107 4.301-2.97 9.216-6.246 15.053-9.779v-1.024c4.915-2.867 10.445-5.837 17.050-8.806 49.664-22.016 102.246 1.331 104.499 2.355 5.173 2.35 8.705 7.472 8.705 13.418 0 0.053 0 0.105-0.001 0.158v-0.008 28.57h111.974c-0.922-10.854-3.43-32.461-10.598-74.394v0.461z" />
<glyph unicode="&#xe90a;" glyph-name="clock" horiz-adv-x="819" d="M460.8 396.8h102.4c28.277 0 51.2-22.923 51.2-51.2s-22.923-51.2-51.2-51.2v0h-153.6c-0.046 0-0.1 0-0.154 0-28.192 0-51.046 22.854-51.046 51.046 0 0.054 0 0.108 0 0.162v-0.008 204.8c0 28.277 22.923 51.2 51.2 51.2s51.2-22.923 51.2-51.2v0-153.6zM95.693 608.717c-26.487 12.497-44.488 38.982-44.488 69.672 0 42.415 34.385 76.8 76.8 76.8 35.141 0 64.77-23.602 73.899-55.818l0.131-0.541c18.432 10.854 37.734 20.224 57.651 28.058-33.396 23.426-54.958 61.752-54.958 105.114 0 70.692 57.308 128 128 128 0.025 0 0.050 0 0.076 0h153.596c0.021 0 0.046 0 0.072 0 70.692 0 128-57.308 128-128 0-43.362-21.562-81.688-54.549-104.841l-0.409-0.272c19.968-7.885 39.27-17.254 57.651-28.058 9.29 32.682 38.872 56.215 73.951 56.215 42.387 0 76.749-34.362 76.749-76.749 0-30.63-17.943-57.069-43.892-69.38l-0.466-0.199c59.522-70.64 95.693-162.658 95.693-263.124 0-226.216-183.384-409.6-409.6-409.6s-409.6 183.384-409.6 409.6c0 100.466 36.171 192.485 96.2 263.743l-0.507-0.619zM409.6 38.4c169.662 0 307.2 137.538 307.2 307.2s-137.538 307.2-307.2 307.2v0c-169.662 0-307.2-137.538-307.2-307.2s137.538-307.2 307.2-307.2v0zM332.8 857.6c-14.138 0-25.6-11.462-25.6-25.6s11.462-25.6 25.6-25.6v0h153.6c14.138 0 25.6 11.462 25.6 25.6s-11.462 25.6-25.6 25.6v0h-153.6z" />
<glyph unicode="&#xe90b;" glyph-name="close" horiz-adv-x="945" d="M23.079 897.536c14.254 14.249 33.943 23.063 55.69 23.063s41.436-8.813 55.69-23.063l338.156-338.156 338.156 338.156c14.344 14.836 34.425 24.047 56.658 24.047 43.503 0 78.769-35.266 78.769-78.769 0-22.233-9.211-42.314-24.025-56.637l-0.022-0.021-338.156-338.156 338.156-338.156c13.681-14.151 22.111-33.452 22.111-54.722 0-43.503-35.266-78.769-78.769-78.769-21.27 0-40.571 8.431-54.744 22.133l0.022-0.021-338.156 338.156-338.156-338.156c-14.151-13.681-33.452-22.111-54.722-22.111-43.503 0-78.769 35.266-78.769 78.769 0 21.27 8.431 40.571 22.133 54.744l-0.021-0.022 338.156 338.156-338.156 338.156c-14.249 14.254-23.063 33.943-23.063 55.69s8.813 41.436 23.063 55.69v0z" />
<glyph unicode="&#xe90c;" glyph-name="done" horiz-adv-x="1354" d="M479.265 257.107l-259.601 259.601c-23.377 23.166-55.56 37.481-91.086 37.481s-67.709-14.314-91.096-37.49l0.010 0.009c-23.176-23.379-37.497-55.568-37.497-91.103s14.321-67.724 37.506-91.112l350.628-350.661c23.379-23.176 55.568-37.497 91.103-37.497s67.724 14.321 91.112 37.506l729.574 729.574c23.166 23.377 37.481 55.56 37.481 91.086s-14.314 67.709-37.49 91.096l0.009-0.010c-23.377 23.166-55.56 37.481-91.086 37.481s-67.709-14.314-91.096-37.49l0.010 0.009-638.514-638.481z" />
<glyph unicode="&#xe90d;" glyph-name="electro" d="M0 775.111c0 102.111 82.778 184.889 184.889 184.889v0h654.222c102.111 0 184.889-82.778 184.889-184.889v0-654.222c0-102.111-82.778-184.889-184.889-184.889v0h-654.222c-102.111 0-184.889 82.778-184.889 184.889v0 654.222zM938.667 775.111c0 54.983-44.573 99.556-99.556 99.556v0h-654.222c-54.983 0-99.556-44.573-99.556-99.556v0-99.556h853.333v99.556zM938.667 120.889v469.333h-853.333v-469.333c0-54.955 44.601-99.556 99.556-99.556h654.222c54.983 0 99.556 44.573 99.556 99.556v0zM284.444 718.222c31.419 0 56.889 25.47 56.889 56.889s-25.47 56.889-56.889 56.889v0c-31.419 0-56.889-25.47-56.889-56.889s25.47-56.889 56.889-56.889v0zM568.889 775.111c0-31.419-25.47-56.889-56.889-56.889s-56.889 25.47-56.889 56.889v0c0 31.419 25.47 56.889 56.889 56.889s56.889-25.47 56.889-56.889v0zM739.556 718.222c31.419 0 56.889 25.47 56.889 56.889s-25.47 56.889-56.889 56.889v0c-31.419 0-56.889-25.47-56.889-56.889s25.47-56.889 56.889-56.889v0zM256 192v227.556h512v-227.556h-512zM241.778 504.889c-39.253 0-71.111-31.858-71.111-71.111v-256c0-39.253 31.858-71.111 71.111-71.111h540.444c39.253 0 71.111 31.858 71.111 71.111v256c0 39.253-31.858 71.111-71.111 71.111h-540.444z" />
<glyph unicode="&#xe90e;" glyph-name="filter" horiz-adv-x="970" d="M14.983 786.136c-25.762 101.107 62.41 173.864 146.701 173.864h646.737c84.291 0 172.463-72.704 146.701-173.864-36.992-141.14-132.176-254.99-257.708-316.334l-2.873-1.268c-31.259-14.983-47.805-40.691-47.805-63.596v-273.947c-0.001-41.967-23.986-78.331-58.995-96.135l-0.613-0.283-107.789-53.895c-14.038-7.168-30.619-11.368-48.182-11.368-59.529 0-107.787 48.257-107.789 107.786v0 327.896c0 22.851-16.546 48.505-47.805 63.542-128.405 62.612-223.589 176.461-259.824 314.216l-0.757 3.386zM126.168 837.767c-4.731-4.64-7.663-11.099-7.663-18.243 0-2.427 0.338-4.774 0.97-6.998l-0.044 0.18c28.823-109.766 102.873-198.299 200.516-246.013l2.236-0.986c57.452-27.54 108.975-85.261 108.975-160.714v-327.896l107.789 53.895v274.001c0 75.453 51.523 133.12 108.975 160.714 99.879 48.7 173.929 137.234 202.162 244.363l0.59 2.636c0.588 2.044 0.927 4.391 0.927 6.818 0 7.144-2.932 13.603-7.659 18.239l-0.004 0.004c-8.834 8.925-21.088 14.452-34.632 14.452-0.311 0-0.622-0.003-0.931-0.009l0.046 0.001h-646.737c-0.279 0.006-0.608 0.009-0.938 0.009-13.545 0-25.798-5.527-34.629-14.449l-0.004-0.004z" />
<glyph unicode="&#xe90f;" glyph-name="gift" horiz-adv-x="1078" d="M970.105 313.263h-862.316v323.368h273.785l-112.101-152.522 87.309-63.057 182.164 247.916 182.164-247.916 87.309 63.057-112.101 152.522h273.785zM970.105 43.789h-862.316v107.789h862.316zM377.263 852.211c29.765 0 53.895-24.129 53.895-53.895s-24.129-53.895-53.895-53.895v0c-29.765 0-53.895 24.129-53.895 53.895s24.129 53.895 53.895 53.895v0zM700.632 852.211c29.765 0 53.895-24.129 53.895-53.895s-24.129-53.895-53.895-53.895v0c-29.765 0-53.895 24.129-53.895 53.895s24.129 53.895 53.895 53.895v0zM970.105 744.421h-117.491c5.928 16.707 9.701 35.032 9.701 53.895 0 89.296-72.388 161.684-161.684 161.684v0c-56.589 0-105.634-29.103-134.737-72.758l-26.947-35.032-26.947 35.571c-29.385 43.839-78.736 72.31-134.737 72.31-89.296 0-161.684-72.388-161.684-161.684 0-0.032 0-0.064 0-0.096v0.005c0-18.863 3.773-37.187 9.701-53.895h-117.491c-59.823 0-107.789-47.966-107.789-107.789v-592.842c0-59.823 47.966-107.789 107.789-107.789h862.316c59.823 0 107.789 47.966 107.789 107.789v592.842c0 59.823-47.966 107.789-107.789 107.789z" />
<glyph unicode="&#xe910;" glyph-name="help" horiz-adv-x="977" d="M659.363 793.228c0 16.151 9.030 44.684 30.953 69.353 21.178 23.738 53.853 43.101 100.957 43.101s79.732-19.363 100.911-43.101c21.969-24.669 30.953-53.201 30.953-69.353v-34.909h-15.5c-44.986 0-81.455-36.468-81.455-81.455v0-9.728c1.021-38.845 32.753-69.945 71.75-69.945s70.729 31.1 71.748 69.851l0.002 0.094v126.092c0 29.091-14.243 68.375-42.729 100.305-29.277 32.815-74.24 58.694-135.68 58.694s-106.449-25.879-135.68-58.647c-28.486-31.977-42.775-71.261-42.775-100.352v-126.092c0-39.639 32.134-71.773 71.773-71.773s71.773 32.134 71.773 71.773v9.728c0 44.986-36.468 81.455-81.455 81.455v0h-15.546v34.909zM907.636 711.773h15.5v-44.637c-0.596-13.459-11.653-24.144-25.204-24.144s-24.608 10.685-25.202 24.091l-0.002 0.054v9.728c0 19.28 15.629 34.909 34.909 34.909v0zM709.818 667.136c0-13.933-11.295-25.228-25.228-25.228s-25.228 11.295-25.228 25.228v44.637h15.546c19.28 0 34.909-15.629 34.909-34.909v0-9.728zM560.407 562.641c0-109.428-82.246-199.401-183.249-199.401-100.957 0-182.831 89.507-183.249 198.563 0 107.753 82.711 194.7 183.249 194.7 101.423 0 183.296-85.271 183.296-193.862zM262.191 561.804c0-75.078 53.062-134.516 114.967-134.516 62.371 0 114.967 60.276 114.967 135.354 0 73.821-51.759 129.862-114.967 129.862-62.79 0-114.967-56.879-114.967-130.7zM643.584-29.184h-533.271c-70.423 0-103.936 21.225-103.936 67.91 0 111.151 140.428 271.919 370.781 271.919 229.935 0 370.362-160.768 370.362-271.919 0-46.685-33.513-67.91-103.936-67.91zM74.705 46.778c0-8.937 4.655-11.869 15.686-11.869h573.58c11.031 0 15.267 2.932 15.267 11.869 0 69.585-107.753 199.82-302.080 199.82-194.7 0-302.452-130.234-302.452-199.82z" />
<glyph unicode="&#xe911;" glyph-name="history" d="M512-64c-130.816 0-244.907 43.349-342.101 130.133s-152.832 195.157-167.083 324.949h116.651c13.312-98.56 57.173-180.053 131.584-244.565s161.451-96.768 260.949-96.768c110.933 0 205.056 38.656 282.368 115.968 77.227 77.312 115.883 171.349 115.883 282.283s-38.656 205.056-115.968 282.368c-77.312 77.227-171.349 115.883-282.283 115.883-0.6 0.003-1.309 0.005-2.019 0.005-66.446 0-128.951-16.877-183.461-46.577l2.013 1.004c-57.738-31.151-105.758-73.254-142.783-123.904l-0.833-1.195h156.416v-113.835h-341.333v341.333h113.749v-133.632c93.908 116.586 236.654 190.552 396.676 190.552 0.554 0 1.107-0.001 1.661-0.003h-0.086c71.083 0 137.728-13.483 199.851-40.533 62.93-27.381 116.693-64.275 162.155-109.504l-0.022 0.022c45.995-46.080 82.432-100.011 109.483-162.133 25.627-57.821 40.547-125.265 40.547-196.194 0-1.286-0.005-2.57-0.015-3.853l0.001 0.196c0-71.083-13.483-137.728-40.533-199.851-27.383-62.93-64.277-116.692-109.505-162.156l0.022 0.023c-45.444-45.2-99.205-82.093-158.779-108.174l-3.354-1.309c-57.783-25.627-125.185-40.548-196.072-40.548-1.329 0-2.656 0.005-3.982 0.016l0.204-0.001zM671.317 209.067l-216.235 216.149v307.2h113.835v-261.632l182.016-182.101-79.616-79.616z" />
<glyph unicode="&#xe912;" glyph-name="home" d="M443.733 923.022c18.778 14.206 42.524 22.756 68.267 22.756s49.488-8.549 68.553-22.963l-0.286 0.207 398.222-298.667c27.759-20.978 45.511-53.927 45.511-91.022v0-483.556c0-62.838-50.94-113.778-113.778-113.778v0h-227.556c-62.838 0-113.778 50.94-113.778 113.778v0 170.667h-113.778v-170.667c0-62.838-50.94-113.778-113.778-113.778v0h-227.556c-62.838 0-113.778 50.94-113.778 113.778v0 483.556c0 37.095 17.752 70.044 45.225 90.815l0.286 0.207 398.222 298.667zM512 832l-398.222-298.667v-483.556h227.556v170.667c0 62.838 50.94 113.778 113.778 113.778v0h113.778c62.838 0 113.778-50.94 113.778-113.778v0-170.667h227.556v483.556l-398.222 298.667z" />
<glyph unicode="&#xe913;" glyph-name="house" horiz-adv-x="1229" d="M1105.92 606.669v230.451c-0.087 67.83-55.050 122.793-122.872 122.88h-737.288c-67.83-0.087-122.793-55.050-122.88-122.872v-230.459c-71.178-18.939-122.781-82.764-122.88-158.657v-286.731c0.058-45.22 36.7-81.862 81.914-81.92h40.966v-122.88h81.92v122.88h819.2v-122.88h81.92v122.88h40.96c45.22 0.058 81.862 36.7 81.92 81.914v286.726c-0.098 75.905-51.702 139.73-121.733 158.409l-1.147 0.26zM245.76 161.28h-163.84v286.72c0 45.243 36.677 81.92 81.92 81.92s81.92-36.677 81.92-81.92v-286.72zM901.12 161.28h-573.44v245.76h573.44v-245.76zM906.291 488.96h-583.731c-15.402 57.758-59.992 102.331-116.611 117.448l-1.149 0.261v230.451c0.029 22.61 18.35 40.931 40.957 40.96h737.283c22.61-0.029 40.931-18.35 40.96-40.957v-230.454c-57.747-15.394-102.315-59.962-117.447-116.56l-0.261-1.149zM1146.88 161.28h-163.84v286.72c0 45.243 36.677 81.92 81.92 81.92s81.92-36.677 81.92-81.92v0l0.051-286.72h-0.051z" />
<glyph unicode="&#xe914;" glyph-name="bag" horiz-adv-x="866" d="M679.023 609.701h177.23v-502.157c0-83.078-66.458-147.692-147.692-147.692h-531.692c-83.076 0-147.692 64.614-147.692 147.692v502.157h177.23v59.077c0 129.23 105.231 236.307 236.308 236.307 129.231 0 236.308-107.077 236.308-236.307v-59.077zM324.562 668.778v-59.077h236.308v59.077c0 64.615-53.538 118.154-118.154 118.154-66.462 0-118.154-53.539-118.154-118.154zM619.946 447.239c24 0 44.308 18.461 44.308 44.308 0 23.999-20.307 44.308-44.308 44.308-25.846 0-44.308-20.308-44.308-44.308 0-25.847 18.462-44.308 44.308-44.308zM265.485 447.239c24 0 44.308 18.461 44.308 44.308 0 23.999-20.307 44.308-44.308 44.308-25.846 0-44.308-20.308-44.308-44.308 0-25.847 18.462-44.308 44.308-44.308z" />
<glyph unicode="&#xe915;" glyph-name="viajes" horiz-adv-x="1536" d="M501.12 774.784c-8.512 16.67-13.5 36.361-13.5 57.216 0 70.646 57.232 127.925 127.861 128h120.519c41.732 0 78.8-19.971 102.167-50.878l0.233-0.322 153.6-204.8h320c123.712 0 224-100.288 224-224s-100.288-224-224-224v0h-257.28l-217.536-272c-23.654-29.368-59.611-48-99.92-48-0.017 0-0.034 0-0.051 0h-130.685c-0.003 0-0.006 0-0.009 0-70.692 0-128 57.308-128 128 0 17.13 3.365 33.474 9.47 48.407l-0.309-0.855 57.792 144.448h-247.296c-52.461 0.006-97.548 31.571-117.311 76.744l-0.321 0.824-137.152 320c-6.545 14.87-10.354 32.206-10.354 50.432 0 70.692 57.308 128 128 128 0.018 0 0.035 0 0.053 0h119.357c49.835-0.002 93.018-28.483 114.16-70.056l0.336-0.728 28.608-57.216h112.896l-35.392 70.784zM679.488 704h152.512l-96 128h-120.448l64-128zM1408 480c0 53.019-42.981 96-96 96v0h-888.448c-49.835 0.002-93.018 28.483-114.16 70.056l-0.336 0.728-28.608 57.216h-119.36l137.088-320h247.296c0.003 0 0.006 0 0.009 0 70.692 0 128-57.308 128-128 0-17.13-3.365-33.474-9.47-48.407l0.309 0.855-57.792-144.448h130.688l217.6 272c23.651 29.364 59.601 47.995 99.903 48h257.281c53.019 0 96 42.981 96 96v0z" />
<glyph unicode="&#xe916;" glyph-name="plus" d="M669.867 721.067c0 70.692-57.308 128-128 128s-128-57.308-128-128v0-145.067h-145.067c-70.692 0-128-57.308-128-128s57.308-128 128-128v0h145.067v-145.067c0-70.692 57.308-128 128-128s128 57.308 128 128v0 145.067h144.896c70.692 0 128 57.308 128 128s-57.308 128-128 128v0h-145.067v145.067z" />
<glyph unicode="&#xe917;" glyph-name="depor" horiz-adv-x="1775" d="M1399.467 584.533c-37.001 0-73.728-6.69-108.339-19.797l-160.905 275.797h166.844c28.277 0 51.2-22.923 51.2-51.2v0c0-28.277 22.923-51.2 51.2-51.2s51.2 22.923 51.2 51.2v0c0 84.831-68.769 153.6-153.6 153.6v0h-256c-28.232-0.059-51.096-22.959-51.096-51.2 0-9.426 2.547-18.257 6.99-25.842l-0.131 0.242 74.547-128h-367.821l-104.653 179.2c-9 15.383-25.425 25.561-44.231 25.6h-179.206c-28.277 0-51.2-22.923-51.2-51.2s22.923-51.2 51.2-51.2v0h149.845l87.723-150.46-100.557-137.899c-40.165 20.544-87.616 32.582-137.878 32.582-170.114 0-308.019-137.905-308.019-308.019s137.905-308.019 308.019-308.019c170.114 0 308.019 137.905 308.019 308.019 0 83.683-33.371 159.571-87.532 215.084l0.061-0.063 74.206 101.717 199.475-341.743c8.608-16.871 25.856-28.223 45.755-28.223 28.277 0 51.2 22.923 51.2 51.2 0 10.51-3.167 20.281-8.598 28.409l0.117-0.186-194.082 332.8h367.957l71.543-122.675c-67.563-56.738-110.208-141.251-110.208-235.725 0-169.662 137.538-307.2 307.2-307.2s307.2 137.538 307.2 307.2c0 169.662-137.538 307.2-307.2 307.2-0.087 0-0.174 0-0.261 0h0.014zM580.267 277.333c0-0.022 0-0.048 0-0.074 0-113.108-91.692-204.8-204.8-204.8s-204.8 91.692-204.8 204.8c0 113.108 91.692 204.8 204.8 204.8 27.162 0 53.089-5.288 76.808-14.89l-1.373 0.491-116.736-160.017c-7.151-8.735-11.484-20.018-11.484-32.313 0-28.277 22.923-51.2 51.2-51.2 17.875 0 33.61 9.16 42.768 23.041l0.119 0.192 116.873 160.017c30.174-36.591 46.694-82.603 46.626-130.048zM1399.467 72.533c-113.031 0.101-204.622 91.754-204.622 204.8 0 56.849 23.163 108.288 60.566 145.395l0.014 0.013 99.806-171.008c8.608-16.871 25.856-28.223 45.755-28.223 28.277 0 51.2 22.923 51.2 51.2 0 10.51-3.167 20.281-8.598 28.409l0.117-0.186-99.942 171.486c16.685 4.897 35.853 7.714 55.679 7.714 113.108 0 204.8-91.692 204.8-204.8 0-113.099-91.677-204.785-204.772-204.8h-0.001z" />
<glyph unicode="&#xe918;" glyph-name="stadium" horiz-adv-x="1075" d="M68.25 704v204.8l204.8-102.4-204.8-102.4zM836.25 704v204.8l204.8-102.4-204.8-102.4zM477.85 755.2v204.8l204.8-102.4-204.8-102.4zM477.85-64c-65.207 1.47-127.777 7.243-188.995 17.064l7.849-1.038c-55.91 8.96-104.55 20.275-145.92 33.894-41.37 13.67-73.984 29.44-97.894 47.36-23.859 17.92-35.84 36.71-35.84 56.32v460.8c0 21.35 13.466 41.165 40.346 59.546 26.931 18.381 63.386 34.56 109.414 48.64 46.080 14.080 100.301 25.139 162.56 33.28 57.984 7.734 125.019 12.149 193.086 12.149 2.319 0 4.637-0.005 6.953-0.015l-0.359 0.001c70.861 0 137.421-4.096 199.68-12.186 62.31-8.141 116.48-19.2 162.56-33.28s82.586-30.259 109.466-48.64c26.931-18.381 40.346-38.195 40.294-59.494v-460.8c0-19.61-11.93-38.4-35.84-56.32-23.859-17.92-56.525-33.69-97.946-47.36-41.37-13.67-90.010-24.986-145.92-33.946-53.381-8.782-115.937-14.538-179.565-15.948l-1.53-0.027v204.8h-102.4v-204.8zM529.050 499.2c82.79 0 154.266 4.915 214.426 14.746 60.211 9.83 108.186 21.146 143.974 33.894 0 4.25-32.41 14.336-97.28 30.106-64.819 15.821-151.859 23.706-261.12 23.654-109.21 0-196.25-7.885-261.12-23.706-64.819-15.821-97.28-25.805-97.28-30.054 35.84-12.8 83.866-24.115 144.026-33.946 60.211-9.83 131.635-14.746 214.374-14.694zM375.45 46.080v197.12h307.2v-197.12c68.301 6.81 124.16 16.896 167.68 30.106 43.52 13.261 72.96 24.934 88.32 35.123v346.931c-46.899-18.79-105.779-33.69-176.64-44.8-70.81-11.11-148.48-16.64-232.96-16.64s-162.099 5.53-232.96 16.64c-70.81 11.11-129.69 26.010-176.64 44.8v-346.88c15.36-10.24 44.8-22.016 88.32-35.226 43.52-13.261 99.43-23.245 167.68-30.054z" />
<glyph unicode="&#xe919;" glyph-name="tech" horiz-adv-x="1252" d="M113.778 789.333c0 94.257 76.41 170.667 170.667 170.667v0h682.667c94.257 0 170.667-76.41 170.667-170.667v0-441.685l82.318-164.636c56.775-113.493-25.771-247.012-152.633-247.012h-883.371c-126.862 0-209.351 133.518-152.633 247.012l82.318 164.636v441.685zM205.824 277.333l-72.59-145.237c-3.783-7.409-6-16.16-6-25.429 0-31.408 25.453-56.872 56.857-56.889h883.372c31.406 0.017 56.859 25.481 56.859 56.889 0 9.269-2.217 18.020-6.149 25.753l0.149-0.323-72.59 145.237h-839.908zM1024 391.111v398.222c0 31.419-25.47 56.889-56.889 56.889v0h-682.667c-31.419 0-56.889-25.47-56.889-56.889v0-398.222h796.444z" />
<glyph unicode="&#xe91a;" glyph-name="trash" horiz-adv-x="860" d="M373.35 952.218c-74.015 0-133.489-61.44-133.489-135.864v-16.507h-150.077c-20.875-0.047-37.783-16.968-37.806-37.845v-37.808h-37.806v-75.612h75.612v-567.132c0.347-62.522 50.937-113.113 113.426-113.459h453.706c62.522 0.347 113.113 50.937 113.459 113.426v567.165h75.612v75.612h-37.806v37.806c-0.046 20.861-16.945 37.76-37.802 37.806h-150.081v16.589c0 74.342-59.474 135.823-133.53 135.823h-113.377zM373.35 874.271h113.459c30.392 0 55.542-24.822 55.542-57.876v-16.589h-224.543v16.589c0 33.055 25.108 57.836 55.501 57.836l0.041 0.041zM165.396 648.581h193.823c4.71-0.492 9.339-1.147 14.172-1.147h113.459c4.833 0 9.421 0.655 14.172 1.147h193.741v-567.132c0.002-0.159 0.004-0.347 0.004-0.536 0-20.586-16.688-37.274-37.274-37.274-0.174 0-0.348 0.001-0.522 0.004h-453.77c-0.159-0.002-0.348-0.004-0.536-0.004-20.586 0-37.274 16.688-37.274 37.274 0 0.189 0.001 0.377 0.004 0.565v-0.028 567.132zM241.050 572.969v-453.714h75.571v453.714h-75.571zM392.274 572.969v-453.714h75.612v453.714h-75.612zM543.498 572.969v-453.714h75.612v453.714h-75.571z" />
<glyph unicode="&#xe91b;" glyph-name="restau" horiz-adv-x="1158" d="M492.188 917.571c-219.946 0-398.247-178.301-398.247-398.247v0-35.84c-41.73-24.374-69.321-68.947-69.321-119.964s27.591-95.59 68.666-119.61l0.655-0.354v-105.116c0-105.19 85.274-190.464 190.464-190.464h588.666c105.19 0 190.464 85.274 190.464 190.464v0 105.116c41.706 24.391 69.276 68.958 69.276 119.964s-27.571 95.573-68.622 119.61l-0.654 0.354v35.84c0 0.013 0 0.029 0 0.045 0 219.921-178.281 398.202-398.202 398.202h-173.19zM994.304 398.136c18.588-0.688 33.396-15.922 33.396-34.616s-14.808-33.928-33.334-34.614l-0.062-0.002h-831.087c-18.588 0.688-33.396 15.922-33.396 34.616s14.808 33.928 33.334 34.614l0.062 0.002h831.087zM959.666 502.005h-761.856v17.363c0.025 162.537 131.793 294.289 294.333 294.289 0.016 0 0.031 0 0.047 0h173.142c162.521-0.025 294.264-131.768 294.289-294.287v-17.365zM786.477 224.991h173.19v-86.55c0-47.825-38.77-86.595-86.595-86.595v0h-588.666c-47.825 0-86.595 38.77-86.595 86.595v0 86.506h450.204l69.231-69.231 69.276 69.231z" />
<glyph unicode="&#xe91c;" glyph-name="cuidad" horiz-adv-x="853" d="M277.060 598.255c-65.025-0.078-117.716-52.769-117.794-117.787v-0.007c0.078-65.025 52.769-117.716 117.787-117.794h0.007c65.013 0.078 117.697 52.75 117.794 117.751v0.009c-0.058 65.039-52.758 117.751-117.787 117.828h-0.007zM277.060 426.906c-29.57 0.019-53.536 23.985-53.555 53.553v0.002c0.019 29.57 23.985 53.536 53.553 53.555h0.002c29.582-0.019 53.555-24.005 53.555-53.589v0c-0.039-29.555-23.997-53.502-53.553-53.521h-0.002zM740.898 528.657h-18.432v142.916c-0.058 48.802-39.604 88.347-88.4 88.405h-98.378l3.686 26.965v146.466h-520.431v-146.466l86.699-636.075v-100.079c0-55.33 45.056-100.352 100.352-100.352h534.903c53.684 0.058 97.188 43.562 97.246 97.24v383.767c-0.078 53.669-43.574 97.154-97.24 97.212h-0.006zM504.149 528.657l7.885 57.822h152.61v-57.822h-160.495zM520.090 297.37c31.881 0 57.822-25.941 57.822-57.822s-25.941-57.822-57.822-57.822c-28.143 0.040-51.579 20.144-56.773 46.772l-0.059 0.366 4.949 36.181c9.421 19.115 29.15 32.324 51.883 32.324zM159.812 181.726l-78.814 578.014 396.015-2.116-78.507-575.898h-238.729zM634.095 702.157c16.862 0 30.549-13.722 30.549-30.583v-27.238h-144.725l7.885 57.822h106.291zM481.519 875.622v-60.177l-404.719 2.15v58.027h404.787zM327.339 8.226h-121.344c-23.466 0.039-42.477 19.061-42.496 42.528v73.15h86.733v-55.979h57.822v55.979h86.733v-73.148c0-23.45-19.046-42.53-42.496-42.53h-24.951zM780.288 47.65c0-21.743-17.647-39.424-39.39-39.424h-297.745c6.076 12.937 9.489 27.307 9.489 42.53v94.925c18.654-13.611 42.037-21.777 67.326-21.777 0.043 0 0.085 0 0.128 0h-0.007c63.837 0.078 115.566 51.807 115.644 115.636v0.008c-0.115 63.857-51.907 115.579-115.78 115.579-14.541 0-28.455-2.68-41.277-7.574l0.794 0.266 16.794 123.017h244.634c21.743 0 39.424-17.681 39.424-39.39v-383.795z" />
<glyph unicode="&#xe91d;" glyph-name="licor" horiz-adv-x="805" d="M755.785 595.785l-99.511 337.993c-4.614 15.282-18.565 26.22-35.072 26.222h-437.833c-0.006 0-0.014 0-0.021 0-16.522 0-30.485-10.956-35.020-25.999l-0.067-0.259-99.474-337.92c-7.84-25.067-12.356-53.889-12.356-83.767 0-83.537 35.307-158.828 91.812-211.765l0.16-0.148c62.716-58.902 144.801-97.84 235.73-106.304l1.582-0.119v-184.576h-146.286c-20.198 0-36.571-16.374-36.571-36.571s16.374-36.571 36.571-36.571v0h365.714c20.198 0 36.571 16.374 36.571 36.571s-16.374 36.571-36.571 36.571v0h-146.286v184.539c92.518 8.61 174.601 47.572 237.522 106.692l-0.21-0.196c56.658 53.078 91.96 128.359 91.96 211.886 0 29.861-4.512 58.668-12.891 85.776l0.547-2.055zM210.688 886.857h383.232l91.794-311.735c0.439-1.353 0.805-2.743 1.17-4.096-97.902-35.109-208.165 7.314-268.032 37.595-115.163 58.295-206.592 65.755-274.030 54.565l65.829 223.671zM626.286 353.609c-58.438-54.826-137.286-88.505-224-88.505s-165.562 33.679-224.177 88.669l0.177-0.164c-42.352 39.757-68.734 96.097-68.734 158.598 0 22.442 3.401 44.089 9.716 64.455l-0.411-1.54 2.048 6.949c54.857 18.578 142.043 23.515 264.814-38.729 50.981-25.819 133.303-58.734 221.403-58.734 0.46-0.002 1.005-0.004 1.549-0.004 30.457 0 59.9 4.342 87.743 12.442l-2.216-0.552c-3.989-56.631-29.268-106.688-67.794-142.774l-0.119-0.111z" />
<glyph unicode="&#xe91e;" glyph-name="outd" d="M721.214 897.854c29.497 30.652 70.871 49.692 116.693 49.692 89.394 0 161.863-72.468 161.863-161.863 0-45.813-19.033-87.18-49.622-116.626l-0.051-0.049c-29.106-28.255-68.866-45.675-112.694-45.675-89.394 0-161.863 72.468-161.863 161.863 0 43.829 17.42 83.588 45.713 112.734l-0.038-0.040zM835.655 857c-40.621 0-73.551-32.93-73.551-73.551s32.93-73.551 73.551-73.551v0c40.621 0 73.551 32.93 73.551 73.551s-32.93 73.551-73.551 73.551v0zM387.39 647.539l-261.085-596.78h796.178l-193.006 321.677-34.004-101.976c-23.199-69.703-120.444-73.234-148.692-5.438l-159.391 382.482zM314.827 701.846c28.036 64.088 119.208 63.276 146.114-1.271l158.261-379.833 32.591 97.81c21.469 64.406 108.579 73.94 143.501 15.748l210.909-351.479c31.779-52.966-6.356-120.338-68.149-120.338h-825.167c-0.008 0-0.016 0-0.025 0-43.878 0-79.448 35.57-79.448 79.448 0 11.522 2.453 22.472 6.865 32.355l-0.201-0.505 274.75 628.065z" />
<glyph unicode="&#xe91f;" glyph-name="tecno" horiz-adv-x="805" d="M779.447 514.267c0 5.049-4.093 9.143-9.143 9.143v0h-68.571c-5.049 0-9.143-4.093-9.143-9.143v0c0-160.31-129.957-290.267-290.267-290.267-0.013 0-0.026 0-0.038 0h0.002c-0.011 0-0.024 0-0.037 0-160.31 0-290.267 129.957-290.267 290.267 0 0.013 0 0.026 0 0.038v-0.002c0 5.049-4.093 9.143-9.143 9.143v0h-68.535c-5.049 0-9.143-4.093-9.143-9.143v0c0-192.805 144.677-351.89 331.41-374.418v-117.029h-166.034c-15.689 0-28.233-16.347-28.233-36.571v-41.143c0-5.010 3.182-9.143 7.058-9.143h465.883c3.877 0 7.095 4.133 7.095 9.143v41.143c0 20.224-12.581 36.571-28.233 36.571h-170.642v116.443c188.928 20.59 336.018 180.59 336.018 374.967zM402.286 320c107.301 0 194.304 85.943 194.304 192v256c0 106.057-87.003 192-194.304 192s-194.304-85.943-194.304-192v-256c0-106.057 87.003-192 194.304-192zM294.839 768c0 57.819 47.909 105.143 107.447 105.143s107.447-47.323 107.447-105.143v-256c0-57.819-47.909-105.143-107.447-105.143s-107.447 47.323-107.447 105.143v256z" />
</font>
</defs>
</svg>
