<svg width="49" height="42" viewBox="0 0 49 42" fill="none" xmlns="http://www.w3.org/2000/svg">
<path d="M27.0446 37.9108C27.0446 37.9108 24.7991 35.1792 29.8521 32.2201C29.8521 32.2201 30.8627 37.456 27.0446 37.9108Z" fill="#004422"/>
<path d="M27.6198 39.0575C27.6198 39.0575 30.2003 36.7807 33.2321 41.674C33.2321 41.674 27.282 43.1536 27.6198 39.0575Z" fill="#004422"/>
<path d="M33.224 30.8583C33.224 30.8583 29.9679 35.2969 32.6619 37.2312C32.6619 37.2312 35.918 36.2065 33.224 30.8583Z" fill="#004422"/>
<path d="M39.3981 38.9407C39.3981 38.9407 35.7332 35.1843 33.5247 37.9159C33.5247 37.9159 33.8965 41.2175 39.3981 38.9407Z" fill="#004422"/>
<path d="M38.6208 35.4031C38.6208 35.4031 39.2567 32.2167 44.4943 34.0358C44.4943 34.0358 41.5391 37.6771 38.6208 35.4031Z" fill="#004422"/>
<path d="M37.5122 34.8128C37.5122 34.8128 40.7484 33.126 36.1468 28.7997C36.1468 28.7997 34.276 33.198 37.5122 34.8128Z" fill="#004422"/>
<path d="M41.8357 30.3993C41.8357 30.3993 43.2068 27.6677 38.3809 25.8456C38.3809 25.8456 37.8813 31.0815 41.8357 30.3993Z" fill="#004422"/>
<path d="M42.8719 30.7492C42.8719 30.7492 42.6477 28.0176 48.0357 27.7902C48.0357 27.7902 45.7902 33.4809 42.8719 30.7492Z" fill="#004422"/>
<path d="M44.8979 25.5037C44.8979 25.5037 43.4387 22.8181 48.4889 20.973C48.4889 20.973 48.3754 26.7529 44.8979 25.5037Z" fill="#004422"/>
<path d="M43.995 25.5048C43.995 25.5048 44.4435 22.4306 39.2798 22.2032C39.2798 22.2032 39.504 26.187 43.995 25.5048Z" fill="#004422"/>
<path d="M44.3525 20.5221C44.3525 20.5221 44.3666 17.7156 38.7998 18.7087C38.7998 18.7087 40.8835 22.1398 44.3525 20.5221Z" fill="#004422"/>
<path d="M45.4667 19.7262C45.4667 19.7262 43.3234 17.1989 47.4766 14.4672C47.4766 14.4672 48.7313 19.2944 45.4667 19.7262Z" fill="#004422"/>
<path d="M44.1199 15.0349C44.1199 15.0349 46.5897 12.5307 44.1199 8.88943C44.1199 8.88943 41.0881 13.1006 44.1199 15.0349Z" fill="#004422"/>
<path d="M42.9222 15.9886C42.9222 15.9886 41.7101 12.9547 37.1311 15.9886C37.1311 15.9886 42.7405 17.9632 42.9222 15.9886Z" fill="#004422"/>
<path d="M21.945 37.9096C21.945 37.9096 24.1905 35.178 19.1374 32.2189C19.1374 32.2189 18.1268 37.4548 21.945 37.9096Z" fill="#004422"/>
<path d="M21.4047 39.0573C21.4047 39.0573 18.8243 36.7804 15.7925 41.6738C15.7925 41.6738 21.7426 43.1533 21.4047 39.0573Z" fill="#004422"/>
<path d="M15.7847 30.8571C15.7847 30.8571 19.0408 35.2957 16.3468 37.2301C16.3468 37.2301 13.0907 36.2053 15.7847 30.8571Z" fill="#004422"/>
<path d="M9.60498 38.9395C9.60498 38.9395 13.2698 35.1831 15.4784 37.9148C15.4784 37.9148 15.1065 41.2164 9.60498 38.9395Z" fill="#004422"/>
<path d="M10.3981 35.4031C10.3981 35.4031 9.7622 32.2166 4.52466 34.0358C4.52466 34.0358 7.47983 37.6771 10.3981 35.4031Z" fill="#004422"/>
<path d="M11.4834 34.8116C11.4834 34.8116 8.24721 33.1248 12.8489 28.7985C12.8489 28.7985 14.7196 33.1967 11.4834 34.8116Z" fill="#004422"/>
<path d="M7.16342 30.3981C7.16342 30.3981 5.79229 27.6665 10.6182 25.8444C10.6182 25.8444 11.1178 31.0803 7.16342 30.3981Z" fill="#004422"/>
<path d="M6.11466 30.748C6.11466 30.748 6.33893 28.0163 0.950928 27.7889C0.950928 27.7889 3.1964 33.4796 6.11466 30.748Z" fill="#004422"/>
<path d="M4.10228 25.5025C4.10228 25.5025 5.56142 22.8169 0.51123 20.9718C0.51123 20.9718 0.624781 26.7517 4.10228 25.5025Z" fill="#004422"/>
<path d="M5.01495 25.5048C5.01495 25.5048 4.56643 22.4306 9.73016 22.2032C9.73016 22.2032 9.5059 26.187 5.01495 25.5048Z" fill="#004422"/>
<path d="M4.64673 20.5209C4.64673 20.5209 4.63253 17.7144 10.1994 18.7075C10.1994 18.7075 8.11572 22.1386 4.64673 20.5209V20.5209Z" fill="#004422"/>
<path d="M3.53958 19.7259C3.53958 19.7259 5.68286 17.1986 1.52973 14.4669C1.52973 14.4669 0.274989 19.2941 3.53958 19.7259Z" fill="#004422"/>
<path d="M4.88135 15.0338C4.88135 15.0338 2.41162 12.5295 4.88135 8.88828C4.88135 8.88828 7.91317 13.0995 4.88135 15.0338Z" fill="#004422"/>
<path d="M6.08008 15.9873C6.08008 15.9873 7.29224 12.9534 11.8712 15.9873C11.8712 15.9873 6.26176 17.962 6.08008 15.9873V15.9873Z" fill="#004422"/>
<path d="M28.0781 -6.10352e-05L20.28 10.6042H26.2784L20.28 19.2597H23.6042L16.6663 28.8277L31.5954 16.9684H26.5566L34.4484 7.80919L28.9326 7.7142L34.9934 0.120834L28.0781 -6.10352e-05Z" fill="#004422"/>
</svg>
