<svg width="328" height="71" viewBox="0 0 328 71" fill="none" xmlns="http://www.w3.org/2000/svg">
<path d="M7.21311 65.2621V66.3392H6.63041C6.47149 67.0867 6.12128 67.6665 5.57979 68.0785C5.04417 68.4846 4.35259 68.6877 3.50502 68.6877C2.85758 68.6877 2.28665 68.5494 1.79224 68.2727C1.29783 67.9961 0.91525 67.6135 0.644501 67.125C0.373751 66.6306 0.238377 66.0773 0.238377 65.4652C0.238377 64.8589 0.367866 64.3057 0.626843 63.8054C0.891706 63.2992 1.27723 62.899 1.78341 62.6047C2.2896 62.3045 2.88995 62.1544 3.58448 62.1544C4.12598 62.1544 4.61156 62.2456 5.04123 62.4281C5.47678 62.6047 5.82111 62.8519 6.0742 63.1697C6.32729 63.4875 6.47149 63.8466 6.50681 64.2468H4.94411C4.88526 63.9819 4.73517 63.7671 4.49385 63.6023C4.25841 63.4375 3.95823 63.3551 3.59331 63.3551C2.98707 63.3551 2.52209 63.5464 2.19836 63.929C1.88053 64.3116 1.72455 64.8089 1.73044 65.421C1.73044 65.8036 1.80401 66.1509 1.95116 66.4628C2.09831 66.7689 2.30725 67.0102 2.578 67.1868C2.85464 67.3575 3.17542 67.4428 3.54034 67.4428C4.40556 67.4428 4.94411 67.075 5.156 66.3392H4.05241V65.2621H7.21311ZM10.2946 68.67C9.52358 68.67 8.9144 68.4729 8.46707 68.0785C8.02563 67.6841 7.80491 67.1309 7.80491 66.4187V62.331H9.22635V66.3304C9.22635 66.6777 9.32052 66.9484 9.50887 67.1426C9.7031 67.3369 9.96502 67.434 10.2946 67.434C10.6242 67.434 10.8832 67.3369 11.0716 67.1426C11.2658 66.9484 11.3629 66.6777 11.3629 66.3304V62.331H12.7932V66.4187C12.7932 67.1309 12.5695 67.6841 12.1222 68.0785C11.6749 68.4729 11.0657 68.67 10.2946 68.67ZM17.6309 68.5111H13.8521V62.331H17.6309V63.4787H15.2824V64.8825H17.6309V66.0037H15.2824V67.3634H17.6309V68.5111ZM23.605 64.5646C23.605 65.012 23.502 65.4122 23.296 65.7654C23.09 66.1126 22.8074 66.3745 22.4484 66.5511L23.5343 68.5111H21.9098L20.9387 66.7983H20.1882V68.5111H18.758V62.331H21.3889C21.8127 62.331 22.1924 62.4281 22.5279 62.6223C22.8634 62.8107 23.1253 63.0755 23.3136 63.4169C23.5079 63.7524 23.605 64.135 23.605 64.5646ZM20.1882 63.4964V65.6329H21.1682C21.4566 65.6329 21.6921 65.5329 21.8745 65.3327C22.0629 65.1326 22.1571 64.8766 22.1571 64.5646C22.1571 64.2527 22.0629 63.9967 21.8745 63.7965C21.6921 63.5964 21.4566 63.4964 21.1682 63.4964H20.1882ZM29.3471 64.5646C29.3471 65.012 29.2441 65.4122 29.0381 65.7654C28.8321 66.1126 28.5496 66.3745 28.1906 66.5511L29.2765 68.5111H27.652L26.6808 66.7983H25.9304V68.5111H24.5001V62.331H27.1311C27.5549 62.331 27.9345 62.4281 28.27 62.6223C28.6055 62.8107 28.8674 63.0755 29.0558 63.4169C29.25 63.7524 29.3471 64.135 29.3471 64.5646ZM25.9304 63.4964V65.6329H26.9104C27.1988 65.6329 27.4342 65.5329 27.6167 65.3327C27.805 65.1326 27.8992 64.8766 27.8992 64.5646C27.8992 64.2527 27.805 63.9967 27.6167 63.7965C27.4342 63.5964 27.1988 63.4964 26.9104 63.4964H25.9304ZM34.021 68.5111H30.2423V62.331H34.021V63.4787H31.6725V64.8825H34.021V66.0037H31.6725V67.3634H34.021V68.5111ZM39.9951 64.5646C39.9951 65.012 39.8921 65.4122 39.6861 65.7654C39.4801 66.1126 39.1976 66.3745 38.8385 66.5511L39.9245 68.5111H38.3L37.3288 66.7983H36.5784V68.5111H35.1481V62.331H37.7791C38.2029 62.331 38.5825 62.4281 38.918 62.6223C39.2535 62.8107 39.5154 63.0755 39.7038 63.4169C39.898 63.7524 39.9951 64.135 39.9951 64.5646ZM36.5784 63.4964V65.6329H37.5584C37.8468 65.6329 38.0822 65.5329 38.2647 65.3327C38.453 65.1326 38.5472 64.8766 38.5472 64.5646C38.5472 64.2527 38.453 63.9967 38.2647 63.7965C38.0822 63.5964 37.8468 63.4964 37.5584 63.4964H36.5784ZM43.8734 68.6877C43.2024 68.6877 42.6167 68.5405 42.1164 68.2462C41.6161 67.952 41.2336 67.5576 40.9687 67.0632C40.7038 66.5629 40.5714 66.0155 40.5714 65.421C40.5714 64.8266 40.7038 64.2821 40.9687 63.7877C41.2336 63.2874 41.6161 62.8901 42.1164 62.5958C42.6167 62.3015 43.2024 62.1544 43.8734 62.1544C44.5443 62.1544 45.13 62.3015 45.6303 62.5958C46.1306 62.8901 46.5132 63.2874 46.778 63.7877C47.0429 64.2821 47.1753 64.8266 47.1753 65.421C47.1753 66.0155 47.0429 66.5629 46.778 67.0632C46.5132 67.5576 46.1306 67.952 45.6303 68.2462C45.13 68.5405 44.5443 68.6877 43.8734 68.6877ZM43.8734 67.4075C44.25 67.4075 44.5738 67.3192 44.8445 67.1426C45.1212 66.9661 45.3301 66.7277 45.4714 66.4275C45.6126 66.1215 45.6833 65.786 45.6833 65.421C45.6833 65.0561 45.6126 64.7236 45.4714 64.4234C45.3301 64.1173 45.1212 63.876 44.8445 63.6994C44.5738 63.5229 44.25 63.4346 43.8734 63.4346C43.4967 63.4346 43.17 63.5229 42.8934 63.6994C42.6226 63.876 42.4166 64.1144 42.2753 64.4146C42.1341 64.7088 42.0635 65.0355 42.0635 65.3946C42.0635 65.7654 42.1311 66.1038 42.2665 66.4099C42.4078 66.7159 42.6138 66.9602 42.8845 67.1426C43.1612 67.3192 43.4908 67.4075 43.8734 67.4075Z" fill="#004422"/>
<circle cx="24.0407" cy="38.0404" r="17.8652" fill="#BFBFBF" stroke="white" stroke-width="2.35037"/>
<path d="M25.7837 29.2462L26.3347 27.8478L23.8013 24.6528L21.268 27.8478L21.819 29.2462C16.5607 29.6297 15.2576 33.7679 15.2576 37.609V47.38C15.2576 48.9677 16.3263 49.8733 17.9129 50.8899V40.2818C17.9129 40.2818 20.7993 40.9362 21.9536 40.9362V47.5236C21.9536 47.5236 22.7342 47.9772 23.8013 48.5027C24.8701 47.9772 25.6491 47.5236 25.6491 47.5236V40.9362C26.8034 40.9362 29.6898 40.2818 29.6898 40.2818V50.8883C31.2748 49.8717 32.3451 48.9661 32.3451 47.3784V37.6074C32.3451 33.7662 31.042 29.6297 25.7821 29.2462H25.7837ZM23.8029 29.2593H22.2687L21.7493 27.8429L23.8013 25.2615V29.2593H23.8029Z" fill="#767676"/>
<path d="M63.2864 68.6763H59.2266V62.0364H63.2864V63.2695H60.7632V64.7777H63.2864V65.9824H60.7632V67.4432H63.2864V68.6763ZM66.54 68.866C65.7243 68.866 65.0856 68.6605 64.624 68.2494C64.1623 67.8321 63.9315 67.2503 63.9315 66.5041H65.4682C65.4682 66.8645 65.563 67.1459 65.7527 67.3483C65.9488 67.5507 66.2144 67.6518 66.5495 67.6518C66.8341 67.6518 67.0522 67.5886 67.204 67.4621C67.3621 67.3357 67.4412 67.1554 67.4412 66.9215C67.4412 66.7191 67.3811 66.5578 67.2609 66.4377C67.1471 66.3112 66.9384 66.1879 66.6349 66.0678L65.4397 65.603C64.9971 65.4386 64.6619 65.2046 64.4342 64.901C64.2066 64.5912 64.0928 64.2212 64.0928 63.7912C64.0928 63.4055 64.1876 63.0672 64.3773 62.7763C64.5734 62.4791 64.8484 62.2514 65.2026 62.0933C65.563 61.9289 65.9804 61.8467 66.4547 61.8467C66.9353 61.8467 67.3589 61.9352 67.7257 62.1123C68.0925 62.283 68.3771 62.5265 68.5794 62.8427C68.7818 63.1589 68.8829 63.5288 68.8829 63.9525H67.3463C67.3463 63.6426 67.2673 63.4055 67.1092 63.2411C66.9511 63.0767 66.7234 62.9945 66.4262 62.9945C66.1796 62.9945 65.9835 63.0545 65.8381 63.1747C65.699 63.2885 65.6294 63.4466 65.6294 63.649C65.6294 63.8323 65.699 63.9904 65.8381 64.1232C65.9772 64.2497 66.2112 64.3793 66.54 64.5121L67.6403 64.9485C68.0957 65.1255 68.4308 65.369 68.6458 65.6789C68.8671 65.9887 68.9778 66.3681 68.9778 66.8171C68.9778 67.2281 68.8766 67.5886 68.6743 67.8985C68.4719 68.2083 68.1873 68.4486 67.8206 68.6194C67.4538 68.7838 67.027 68.866 66.54 68.866ZM72.6966 62.0364C73.1519 62.0364 73.5598 62.1408 73.9203 62.3494C74.2807 62.5518 74.5621 62.8364 74.7645 63.2031C74.9732 63.5636 75.0775 63.9746 75.0775 64.4362C75.0775 64.8916 74.9732 65.3026 74.7645 65.6694C74.5621 66.0361 74.2807 66.3239 73.9203 66.5325C73.5598 66.7349 73.1519 66.8361 72.6966 66.8361H71.4066V68.6763H69.87V62.0364H72.6966ZM72.4595 65.584C72.7694 65.584 73.0223 65.4765 73.2183 65.2615C73.4207 65.0465 73.5219 64.7714 73.5219 64.4362C73.5219 64.1011 73.4207 63.826 73.2183 63.611C73.0223 63.396 72.7694 63.2885 72.4595 63.2885H71.4066V65.584H72.4595ZM80.809 68.6763H79.187L78.9594 67.87H76.607L76.3793 68.6763H74.7573L77.0054 62.0364H78.5515L80.809 68.6763ZM77.7832 63.7154L76.9484 66.6653H78.6179L77.7832 63.7154ZM86.7584 64.4362C86.7584 64.9168 86.6477 65.3469 86.4264 65.7263C86.2051 66.0994 85.9015 66.3808 85.5158 66.5705L86.6825 68.6763H84.9372L83.8938 66.8361H83.0875V68.6763H81.5508V62.0364H84.3775C84.8328 62.0364 85.2407 62.1408 85.6011 62.3494C85.9616 62.5518 86.243 62.8364 86.4454 63.2031C86.654 63.5636 86.7584 63.9746 86.7584 64.4362ZM83.0875 63.2885V65.584H84.1404C84.4502 65.584 84.7032 65.4765 84.8992 65.2615C85.1016 65.0465 85.2028 64.7714 85.2028 64.4362C85.2028 64.1011 85.1016 63.826 84.8992 63.611C84.7032 63.396 84.4502 63.2885 84.1404 63.2885H83.0875ZM90.3134 68.6763H88.7863V63.4023H86.9651V62.0364H92.1441V63.4023H90.3134V68.6763ZM97.668 68.6763H96.046L95.8184 67.87H93.466L93.2383 68.6763H91.6163L93.8644 62.0364H95.4105L97.668 68.6763ZM94.6422 63.7154L93.8074 66.6653H95.4769L94.6422 63.7154ZM99.8801 68.6763H98.4098V62.0364H99.9844L102.289 66.3333V62.0364H103.76V68.6763H102.185L99.8801 64.3793V68.6763ZM108.21 68.866C107.489 68.866 106.86 68.7079 106.323 68.3917C105.785 68.0755 105.374 67.6518 105.089 67.1206C104.805 66.5831 104.663 65.995 104.663 65.3563C104.663 64.7177 104.805 64.1327 105.089 63.6015C105.374 63.064 105.785 62.6372 106.323 62.321C106.86 62.0048 107.489 61.8467 108.21 61.8467C108.931 61.8467 109.56 62.0048 110.098 62.321C110.635 62.6372 111.046 63.064 111.331 63.6015C111.616 64.1327 111.758 64.7177 111.758 65.3563C111.758 65.995 111.616 66.5831 111.331 67.1206C111.046 67.6518 110.635 68.0755 110.098 68.3917C109.56 68.7079 108.931 68.866 108.21 68.866ZM108.21 67.4906C108.615 67.4906 108.963 67.3957 109.254 67.206C109.551 67.0163 109.775 66.7602 109.927 66.4377C110.079 66.1089 110.155 65.7484 110.155 65.3563C110.155 64.9643 110.079 64.607 109.927 64.2845C109.775 63.9556 109.551 63.6964 109.254 63.5067C108.963 63.317 108.615 63.2221 108.21 63.2221C107.806 63.2221 107.455 63.317 107.157 63.5067C106.866 63.6964 106.645 63.9525 106.493 64.275C106.342 64.5912 106.266 64.9421 106.266 65.3279C106.266 65.7263 106.338 66.0899 106.484 66.4187C106.636 66.7476 106.857 67.01 107.148 67.206C107.445 67.3957 107.799 67.4906 108.21 67.4906Z" fill="#004422"/>
<circle cx="84.1555" cy="38.1555" r="17.9732" fill="#BFBFBF" stroke="white" stroke-width="2.36457"/>
<path d="M94.7285 37.2874L95.2195 37.0614L95.1638 35.2006L94.5526 34.7486L95.1638 34.6921C95.1638 34.6921 94.8295 32.3792 94.274 31.2511C93.7168 30.1229 93.5514 30.0099 93.5514 30.0099L92.7731 30.6861L93.3843 29.6709L91.9373 27.9778L91.4916 28.4297L91.5473 27.6406L90.2675 26.6819L89.3778 29.1642L89.8792 26.3994C89.8792 26.3994 87.3754 25.3277 86.5971 25.1017L85.8188 24.8757L85.5402 27.0756L85.4496 24.8757H82.7734L82.9267 26.0604L82.2842 24.8757L80.0885 25.3277L81.2568 28.149L79.5313 25.3295L77.0275 26.3447C77.0275 26.3447 78.1401 27.9813 78.363 28.5445L78.5859 29.1095L76.5835 26.5706L75.9166 27.1356L76.3066 27.6441L75.584 27.3616L74.6386 28.2638C74.6386 28.2638 76.3084 29.1095 76.7524 29.7874L77.1981 30.4636C77.1981 30.4636 75.4726 29.2225 74.9172 28.94L74.36 28.6575L73.5225 29.7292C73.5225 29.7292 75.9149 30.7444 77.5829 32.6617C77.5829 32.6617 81.3108 30.7444 85.7056 31.6465C90.1004 32.5487 90.6924 36.0463 90.87 37.2874C91.0476 38.5286 90.87 40.2588 90.87 40.2588C90.87 40.2588 91.8259 40.0505 91.9931 41.6306C92.1602 43.2108 91.7702 44.339 92.3831 45.6366C92.9942 46.9343 93.3843 47.4975 93.3843 47.4975C93.3843 47.4975 93.05 45.5854 93.3843 44.2012C93.7186 42.8153 93.7186 41.8566 93.7186 41.8566C93.7186 41.8566 93.83 42.9283 93.83 43.2108V43.4933C93.83 43.4933 94.5526 41.4064 94.6083 41.1239C94.664 40.8414 94.4412 40.1652 94.4412 40.1652L94.7198 40.5607C94.7198 40.5607 95.0541 37.8524 95.0541 37.6829C95.0541 37.5134 94.7302 37.2874 94.7302 37.2874H94.7285Z" fill="#767676"/>
<path d="M87.8832 33.1153C83.5999 30.181 77.9288 33.1153 77.9288 33.1153L79.4593 35.7918C78.9039 36.0885 78.4146 36.4345 78.0298 36.8211L78.0228 36.8282C77.8853 36.9659 77.7599 37.1107 77.652 37.2572L77.2846 37.6827L77.0913 37.4585C75.7837 39.9691 75.4494 46.1749 75.4494 46.1749L76.3391 45.4987L77.006 42.1707L79.8441 40.986C79.8441 40.986 79.8441 41.2685 79.3427 42.3967C78.8412 43.5249 77.4239 43.4966 77.4239 43.4966L75.3101 51.9588C75.3101 51.9588 76.4227 51.8458 78.3693 51.2826C80.316 50.7194 82.4315 49.4218 82.4315 49.4218C82.4315 49.4218 82.3201 47.1654 83.2656 46.8829C84.211 46.6004 84.7125 47.4479 85.3237 47.8981C85.9348 48.3501 88.6615 48.1241 88.6615 48.1241L88.5362 47.7745L88.0695 45.5623C88.0034 45.0167 87.9685 44.4377 88.0347 44.0104L89.4677 40.7618C89.4677 40.7618 89.4677 40.7212 89.4677 40.6471L90.5542 40.0009C90.5542 40.0009 91.3691 35.5058 87.8832 33.1188V33.1153Z" fill="#767676"/>
<circle cx="143.281" cy="39.0302" r="16.9173" fill="#BFBFBF" stroke="white" stroke-width="2.22566"/>
<path d="M147.242 48.6248H144.707L144.769 27.8812L143.507 24.0859L142.243 27.8812L142.305 48.6248H139.77L138.879 49.3987L139.77 50.1726C139.77 50.1726 140.315 49.6851 141.941 49.4777L142.783 49.9606V53.8703C142.783 54.0561 142.957 54.2062 143.171 54.2062H143.839C144.053 54.2062 144.227 54.0561 144.227 53.8703V49.9606L145.069 49.4777C146.697 49.6851 147.24 50.1726 147.24 50.1726L148.131 49.3987L147.24 48.6248H147.242ZM142.797 49.8027L141.431 48.9607L142.797 48.9978V49.8011V49.8027ZM143.67 48.5165V26.0656L144.309 27.8347V48.5165H143.67ZM144.156 49.5845V48.8369H145.826L144.156 49.5845Z" fill="#767676"/>
<path d="M131.075 67.2866H129.629V61.0368H131.075V63.5635H133.236V61.0368H134.682V67.2866H133.236V64.8046H131.075V67.2866ZM139.719 67.2866H135.898V61.0368H139.719V62.1975H137.344V63.6171H139.719V64.751H137.344V66.1259H139.719V67.2866ZM139.041 59.9744L137.112 60.7779L136.755 60.0637L138.693 59.269L139.041 59.9744ZM145.761 63.2957C145.761 63.7481 145.657 64.1528 145.448 64.5099C145.24 64.8611 144.954 65.126 144.591 65.3045L145.689 67.2866H144.047L143.064 65.5545H142.306V67.2866H140.859V61.0368H143.52C143.948 61.0368 144.332 61.1351 144.672 61.3315C145.011 61.5219 145.276 61.7898 145.466 62.135C145.663 62.4743 145.761 62.8612 145.761 63.2957ZM142.306 62.2154V64.376H143.297C143.588 64.376 143.826 64.2748 144.011 64.0724C144.201 63.8701 144.297 63.6112 144.297 63.2957C144.297 62.9802 144.201 62.7213 144.011 62.5189C143.826 62.3166 143.588 62.2154 143.297 62.2154H142.306ZM149.683 67.4652C149.004 67.4652 148.412 67.3164 147.906 67.0188C147.4 66.7212 147.013 66.3224 146.745 65.8224C146.477 65.3165 146.344 64.7629 146.344 64.1617C146.344 63.5606 146.477 63.01 146.745 62.51C147.013 62.0041 147.4 61.6023 147.906 61.3047C148.412 61.0071 149.004 60.8583 149.683 60.8583C150.361 60.8583 150.954 61.0071 151.459 61.3047C151.965 61.6023 152.352 62.0041 152.62 62.51C152.888 63.01 153.022 63.5606 153.022 64.1617C153.022 64.7629 152.888 65.3165 152.62 65.8224C152.352 66.3224 151.965 66.7212 151.459 67.0188C150.954 67.3164 150.361 67.4652 149.683 67.4652ZM149.683 66.1706C150.064 66.1706 150.391 66.0813 150.665 65.9027C150.945 65.7242 151.156 65.4831 151.299 65.1796C151.442 64.87 151.513 64.5308 151.513 64.1617C151.513 63.7927 151.442 63.4564 151.299 63.1528C151.156 62.8433 150.945 62.5993 150.665 62.4207C150.391 62.2422 150.064 62.1529 149.683 62.1529C149.302 62.1529 148.971 62.2422 148.692 62.4207C148.418 62.5993 148.21 62.8404 148.067 63.1439C147.924 63.4415 147.852 63.7719 147.852 64.1349C147.852 64.5099 147.921 64.8522 148.058 65.1617C148.201 65.4712 148.409 65.7182 148.683 65.9027C148.963 66.0813 149.296 66.1706 149.683 66.1706ZM157.68 67.2866H153.859V61.0368H157.68V62.1975H155.306V63.6171H157.68V64.751H155.306V66.1259H157.68V67.2866Z" fill="#004422"/>
<circle cx="194.281" cy="39.4053" r="17.2693" fill="#BFBFBF" stroke="white" stroke-width="2.27196"/>
<path d="M204.349 39.4895C204.55 38.0943 205.408 37.0657 206.262 37.1918C206.265 37.1918 206.268 37.1918 206.271 37.1935L206.88 33.4623L201.672 36.7107V40.84C201.672 42.1124 201.221 42.3895 200.144 42.3895C199.068 42.3895 198.616 42.1141 198.616 40.84V36.7107L194.112 29.635L189.607 36.7123V40.8416C189.607 42.1141 189.156 42.3911 188.079 42.3911C187.003 42.3911 186.551 42.1157 186.551 40.8416V36.7123L181.343 33.464L181.952 37.1951C181.952 37.1951 181.958 37.1951 181.962 37.1935C182.816 37.0657 183.673 38.0943 183.874 39.4912C184.071 40.8416 183.58 42.0427 182.773 42.2335L183.438 46.3064H204.784L205.448 42.2335C204.642 42.0427 204.153 40.8433 204.347 39.4912L204.349 39.4895ZM194.112 42.2733C193.248 42.2733 192.548 41.1303 192.548 39.7185C192.548 38.3066 193.248 37.1636 194.112 37.1636C194.976 37.1636 195.676 38.3066 195.676 39.7185C195.676 41.1303 194.976 42.2733 194.112 42.2733Z" fill="#767676"/>
<path d="M183.537 46.953L183.799 48.5473H188.284H194.115H199.946H204.432L204.692 46.953H183.537Z" fill="#767676"/>
<path d="M192.144 64.0093C192.144 64.4711 192.038 64.8842 191.825 65.2488C191.613 65.6073 191.321 65.8777 190.95 66.0599L192.071 68.0833H190.394L189.392 66.3151H188.617V68.0833H187.141V61.7034H189.857C190.294 61.7034 190.686 61.8037 191.032 62.0042C191.379 62.1986 191.649 62.4721 191.844 62.8245C192.044 63.1708 192.144 63.5657 192.144 64.0093ZM188.617 62.9065V65.1121H189.629C189.927 65.1121 190.17 65.0088 190.358 64.8022C190.552 64.5956 190.65 64.3313 190.65 64.0093C190.65 63.6873 190.552 63.423 190.358 63.2164C190.17 63.0098 189.927 62.9065 189.629 62.9065H188.617ZM196.969 68.0833H193.068V61.7034H196.969V62.8883H194.545V64.3374H196.969V65.4949H194.545V66.8984H196.969V68.0833ZM200.466 64.2189L201.642 61.7034H203.273L200.11 68.0833H198.47L199.655 65.6772L197.395 61.7034H199.108L200.466 64.2189Z" fill="#004422"/>
<circle cx="250.155" cy="39.1553" r="17.0348" fill="#BFBFBF" stroke="white" stroke-width="2.24111"/>
<path d="M261.903 28.0947C261.85 27.8964 261.663 27.8686 261.496 27.862C261.331 27.8555 261.163 27.8686 260.999 27.8948C259.419 28.1438 258.259 29.0433 257.524 30.4687C257.075 31.3386 256.544 32.1201 255.877 32.8099C255.402 33.3014 255.169 33.9174 254.958 34.5531C254.904 34.7169 254.832 34.907 255.05 34.9922C255.261 35.0741 255.35 34.889 255.421 34.7349C255.519 34.522 255.597 34.2975 255.684 34.078C255.866 33.6143 256.132 33.2244 256.646 32.8426C256.478 34.1222 256.335 35.2576 255.667 36.2439C255.548 36.4175 255.261 36.642 255.526 36.8452C255.817 37.068 255.961 36.7092 256.09 36.5191C256.549 35.8376 256.831 35.079 256.964 34.2582C257.212 32.7214 257.497 31.1961 258.476 29.9313C258.91 29.3693 259.449 28.9679 260.134 28.7615C258.988 29.8215 258.327 31.1174 258.173 32.6935C258.062 33.8289 257.845 34.9545 257.895 36.103C257.914 36.5699 257.784 36.9893 257.603 37.4104C257.067 38.6572 256.033 39.2503 254.887 39.7369C251.669 41.1033 249.089 43.2987 247.026 46.1642C247.023 46.1691 247.018 46.174 247.015 46.1805C246.771 46.5131 246.617 46.8064 246.356 46.7998C246.308 46.7572 246.281 46.7032 246.269 46.6409C246.191 46.4754 246.11 46.2444 246.033 45.9823C245.847 45.1959 245.681 44.0769 245.666 43.7361C245.643 43.2036 246.291 42.0257 246.308 41.9929C246.473 41.7193 246.654 41.4555 246.837 41.1934C247.002 40.9591 247.139 40.7936 247.302 40.923C247.356 40.9755 247.413 41.0574 247.476 41.1606C247.478 41.1639 247.481 41.1688 247.482 41.1721C247.509 41.2245 247.544 41.2818 247.582 41.3359C247.636 41.426 247.693 41.5227 247.758 41.6243C248.067 42.1158 248.257 41.7963 248.238 41.5489C248.23 41.4506 248.213 41.3605 248.191 41.2638C248.186 41.2294 248.176 41.195 248.165 41.1606C248.135 41.0426 248.1 40.9099 248.069 40.7412C248.029 40.5331 247.98 40.325 247.97 40.1596C247.982 40.0629 248.004 39.9679 248.039 39.8745C248.172 39.7483 248.186 40.0596 248.226 40.4151C248.226 40.425 248.227 40.4348 248.229 40.4446C248.229 40.4561 248.232 40.4659 248.233 40.4774C248.233 40.4774 248.233 40.4774 248.233 40.479C248.251 40.5872 248.284 40.6904 248.348 40.7838C248.458 40.9509 248.528 41.1049 248.56 41.2523C248.53 41.5391 248.373 41.9814 248.094 42.391C248.039 42.4516 247.978 42.5237 247.94 42.5991C247.528 43.1053 247.734 43.5903 248.067 43.3707C248.384 43.161 248.699 42.373 248.989 42.083C249.004 42.0683 249.018 42.0551 249.034 42.042C249.335 41.7946 249.802 41.9699 250.04 41.8962C250.243 41.834 250.03 41.6095 249.843 41.3113C249.818 41.2622 249.788 41.2097 249.753 41.1524C249.639 40.928 249.517 40.6494 249.466 40.425C249.457 40.3201 249.46 40.2071 249.482 40.0809C249.612 39.9122 249.661 40.5692 250.005 40.8837C250.07 40.9509 250.143 41.0099 250.228 41.059C250.569 41.2917 250.999 41.4588 251.133 41.3801C251.3 41.2818 251.109 41.159 251.227 41.0099C251.263 40.9722 251.303 40.9411 251.342 40.9165C251.442 40.8673 251.597 40.8411 251.881 40.8133C252.021 40.8133 252.16 40.8165 252.29 40.7772C253.044 40.715 253.247 40.2742 253.223 40.1268C253.199 39.9793 252.653 39.9793 252.228 39.7762C251.837 39.5173 251.71 39.2601 251.796 38.8751C251.919 38.726 251.919 38.9849 252.315 39.3715C252.379 39.4403 252.447 39.5009 252.521 39.5517C253.127 40.0334 253.958 39.5599 253.935 39.4616C253.911 39.3633 253.768 39.3633 253.626 39.0684C253.497 38.8014 253.445 38.5146 253.649 38.3328C253.673 38.3148 253.699 38.2967 253.724 38.2771C253.873 38.1853 253.949 38.1051 253.992 38.0231C254.044 37.9494 254.071 37.8691 254.054 37.7839C254.077 37.6054 253.935 37.299 254.315 36.9795C254.695 36.66 255.266 35.5787 255.242 35.4313C255.218 35.2838 254.957 35.4558 254.492 35.5918C254.104 35.6705 253.873 35.4181 253.583 35.2641C253.117 35.0167 252.656 34.9971 252.204 35.1986C251.829 35.3395 251.666 35.6016 251.518 35.5984C251.475 35.5984 251.461 35.5672 251.469 35.5181C251.81 34.9905 252.303 34.8431 252.827 34.8005C253.222 34.7677 253.467 34.6399 253.562 34.4007C253.76 34.0812 253.697 33.0491 253.578 33.0245C253.469 33.0016 253.459 33.2522 253.163 33.5291C253.138 33.5471 253.112 33.5684 253.085 33.5963C252.711 33.8977 252.106 33.2703 251.369 33.4603C250.978 33.5619 250.713 33.7929 250.528 34.0403C250.453 34.132 250.385 34.2369 250.325 34.3532C250.279 34.445 250.238 34.5383 250.19 34.6498C250.035 34.9971 249.972 34.9135 249.97 34.9119C249.97 34.8906 249.97 34.8693 249.97 34.8496C249.973 34.7071 250.008 34.3483 250.243 34.0141C250.295 33.942 250.354 33.8764 250.417 33.8126C250.496 33.7306 250.59 33.6651 250.688 33.6045C250.69 33.6045 250.693 33.6012 250.694 33.5996C250.743 33.5701 250.788 33.5422 250.831 33.516C250.883 33.4849 250.934 33.4521 250.983 33.4177C251.065 33.3604 251.13 33.2965 251.178 33.2309C251.372 32.995 251.296 32.7902 251.344 32.3855C251.415 31.7957 251.32 31.5745 251.154 31.5991C250.987 31.6237 250.94 32.0415 250.392 32.5903C250.206 32.7198 250.021 32.8557 249.816 32.9377C249.655 33.0016 249.509 33.0769 249.379 33.1638C249.124 33.2752 248.904 33.4013 248.779 33.6389C248.601 33.9764 248.607 34.2549 248.622 34.4826C248.615 34.5564 248.612 34.6317 248.612 34.7104C248.612 34.7497 248.617 34.7956 248.615 34.8398C248.549 35.1069 248.348 34.9299 248.348 34.9299C248.281 34.6956 248.341 34.445 248.321 34.2058C248.306 34.0436 248.37 33.8224 248.145 33.7798C247.945 33.7421 247.855 33.9322 247.787 34.0845C247.443 34.848 247.075 35.5836 247.563 36.4683C247.766 36.8353 247.828 37.394 247.459 37.7348C247.061 38.1018 246.582 38.2705 246.025 37.9592C245.467 37.648 244.838 37.571 244.207 37.5513C244 37.5447 243.763 37.5808 243.659 37.3367C243.369 36.6649 242.808 36.2275 242.358 35.695C242.173 35.4755 242.068 35.2609 242.135 34.9365C242.288 34.1845 242.18 33.5308 241.355 33.2342C241.852 33.226 242.637 33.0736 242.939 32.2397C243.397 30.9782 242.482 30.3474 243.55 30.0329C244.616 29.7183 246.142 28.9302 246.142 28.7713C246.142 28.6124 245.684 29.0859 244.618 28.9286C243.551 28.7713 241.569 28.7713 241.111 29.5594L240.653 30.3474C240.653 30.3474 240.273 29.1793 240.921 28.7385C241.564 28.2978 241.643 27.8604 241.643 27.8604C241.643 27.8604 240.78 28.2569 240.181 28.4354C239.582 28.614 238.864 29.6429 239.07 30.5473C239.276 31.4484 238.712 32.9557 239.819 33.2309L239.48 33.2391C238.729 33.5865 238.908 34.2795 238.907 34.8578C238.907 35.3821 238.683 36.0489 239.279 36.3864C239.652 36.5978 239.748 36.855 239.781 37.2498C239.821 37.7348 240.119 38.069 240.585 37.8282C241 37.6135 241.038 37.8511 241.138 38.1149C241.326 38.6113 241.41 39.1929 241.919 39.4698C242.9 40.0056 243.672 40.8493 244.656 41.3883C245.145 41.657 245.532 42.0814 245.357 42.722C245.004 43.3609 245.212 44.2456 245.407 45.1516C245.407 45.1549 245.407 45.1582 245.408 45.1598C245.557 45.902 245.798 46.6294 245.991 47.3651C245.996 47.3831 246.021 47.3946 246.034 47.4109C246.486 47.9254 246.509 48.6512 246.063 49.1869C245.781 49.5244 245.627 49.8996 245.787 50.3141C245.909 50.6287 245.917 50.9269 245.923 51.2529C245.939 52.1081 246.563 52.793 247.275 52.7143C248.506 52.5767 249.696 52.2654 250.775 51.6035C251.726 51.0186 252.518 50.2732 252.986 49.2099C253.196 48.7298 253.212 48.2711 252.732 47.9565C252.325 47.6895 252.407 47.4011 252.65 47.1013C252.992 46.6802 253.439 46.4017 253.92 46.1822C254.646 45.8512 255.114 46.1527 255.182 46.9932C255.221 47.4683 255.253 47.968 255.511 48.3612C255.987 49.0837 256.193 49.78 255.735 50.6041C255.562 50.9138 255.638 51.2824 255.909 51.556C256.186 51.8362 256.44 51.5707 256.709 51.4626C256.769 51.8411 256.788 52.2359 257.237 52.2507C257.674 52.2654 257.826 51.9033 257.953 51.5527C258.116 51.094 258.146 50.6123 257.993 50.1552C257.795 49.567 257.784 48.9723 257.836 48.3694C257.931 47.2651 257.926 46.174 257.479 45.1353C257.38 44.9043 257.508 44.783 257.646 44.6372C258.01 44.2522 258.381 43.8721 258.714 43.4592C259.891 41.9962 260.427 40.2759 260.555 38.4016C260.571 38.1722 260.628 37.8822 260.362 37.7741C260.111 37.6725 260.01 37.9396 259.883 38.0985C259.682 38.3508 259.46 38.5753 259.17 38.7145C258.88 38.8554 258.698 38.7538 258.728 38.4295C258.793 37.7086 258.983 37.0139 259.501 36.4978C260.395 35.6098 260.477 34.5302 259.748 33.4832C258.636 31.8858 258.758 31.1437 259.934 29.7658C260.194 29.4611 260.514 29.2071 260.829 28.9646C261.078 28.773 261.366 28.6353 261.636 28.4715C261.778 28.3847 261.96 28.3109 261.9 28.0914L261.903 28.0947ZM248.249 36.3897C248.308 36.2226 248.452 36.1439 248.596 36.1947C248.954 36.3192 249.271 36.2635 249.614 36.1128C249.889 35.9916 250.078 36.234 250.225 36.4421C250.442 36.7469 250.439 37.0844 250.292 37.4169C250.184 37.6594 250.011 37.7774 249.739 37.666C249.444 37.5464 249.243 37.8151 248.853 37.9298C249.023 37.3105 248.916 36.873 248.362 36.6567C248.262 36.6174 248.208 36.5077 248.249 36.3897V36.3897ZM240.937 35.9441C240.818 36.0178 240.105 36.1161 239.796 36.0669C239.487 36.0178 239.514 35.9899 239.477 35.8441C239.439 35.6983 239.439 34.4695 239.439 34.4695C239.439 34.4695 239.439 33.8551 239.677 33.806C239.915 33.7568 240.716 33.8191 240.862 33.8371C241.008 33.8551 241.008 34.1746 240.937 34.2238C240.865 34.2729 240.319 34.2975 240.2 34.2975C240.081 34.2975 240.01 34.3958 239.986 34.5433C239.962 34.6907 240.58 34.7644 240.723 34.7644C240.865 34.7644 240.913 35.0348 240.794 35.1085C240.675 35.1822 240.176 35.1576 240.081 35.2068C239.986 35.2559 239.945 35.6229 240.166 35.636C240.39 35.6492 240.805 35.6229 240.883 35.636C240.96 35.6492 241.055 35.8703 240.937 35.9441V35.9441ZM242.26 39.075C241.696 38.6834 241.415 36.9025 241.875 36.4077C242.024 36.2472 242.154 36.2472 242.299 36.3979C242.651 36.7632 243.071 37.0975 243.188 37.6201C243.288 38.0641 243.529 38.1591 243.908 38.1231C244.855 38.0313 245.716 38.2836 246.497 38.839C246.064 39.4403 246.067 39.4796 246.793 39.6779C247.177 39.7827 247.158 39.963 246.963 40.2235C246.631 40.6658 246.291 41.1016 245.968 41.5489C245.825 41.7455 245.736 41.7029 245.579 41.5538C244.568 40.5921 243.396 39.8597 242.261 39.075H242.26ZM257.467 50.1421C257.619 50.555 257.557 51.0252 257.443 51.5282C256.998 51.2464 257.126 50.0798 256.134 50.7434C256.928 49.8308 256.613 49.0002 256.003 48.1957C255.977 48.163 255.953 48.1171 255.953 48.0778C255.939 46.8228 255.11 45.8578 254.841 44.6962C254.775 44.4111 254.605 44.3144 254.378 44.244C253.784 44.0572 253.333 43.7214 253.176 43.0562C253.138 42.8923 253.049 42.6925 252.838 42.7613C252.597 42.8399 252.627 43.0726 252.705 43.2511C253.323 44.6847 252.559 45.5645 251.556 46.3526C251.426 46.4541 251.238 46.5328 251.3 46.7458C251.366 46.9768 251.559 46.9129 251.719 46.8818C251.921 46.8408 251.997 46.9473 251.986 47.1275C251.957 47.6174 251.978 48.1122 251.55 48.4857C250.583 49.3295 248.156 49.5916 247.066 48.9461C246.807 48.7921 246.671 47.7599 246.918 47.3241C247.184 46.8555 247.505 46.4279 247.852 46.0249C247.852 46.0233 247.855 46.02 247.856 46.0183C248.609 44.9337 250.444 43.469 250.755 43.2233C250.758 43.22 250.761 43.2184 250.766 43.2151C250.788 43.1971 250.802 43.1873 250.802 43.1873H250.804C251.899 42.332 253.079 41.621 254.389 41.1262C255.106 40.8559 255.529 41.0164 255.89 41.7144C256.242 42.3926 256.359 43.1348 256.381 43.8967C256.388 44.1522 256.346 44.4209 256.535 44.6356C257.433 45.6595 257.459 46.9112 257.349 48.1728C257.291 48.8445 257.226 49.4818 257.468 50.1405L257.467 50.1421Z" fill="#767676"/>
<path d="M240.649 68.2242H239.182V63.1555H237.431V61.8427H242.409V63.1555H240.649V68.2242ZM244.548 68.2242H243.071V61.8427H244.548V68.2242ZM248.43 68.2242H246.963V63.1555H245.212V61.8427H250.19V63.1555H248.43V68.2242ZM255.499 68.2242H253.94L253.721 67.4493H251.46L251.242 68.2242H249.683L251.843 61.8427H253.329L255.499 68.2242ZM252.591 63.4563L251.789 66.2916H253.393L252.591 63.4563ZM253.785 60.7579L251.816 61.5783L251.451 60.849L253.43 60.0377L253.785 60.7579ZM257.625 68.2242H256.212V61.8427H257.725L259.941 65.9725V61.8427H261.354V68.2242H259.84L257.625 64.0945V68.2242Z" fill="#004422"/>
<circle cx="304.5" cy="34.5" r="22.0496" fill="#BCDFBD" stroke="white" stroke-width="2.90086"/>
<path d="M306.518 47.3728C306.518 47.3728 304.951 45.4662 308.478 43.401C308.478 43.401 309.183 47.0554 306.518 47.3728Z" fill="#004422"/>
<path d="M306.92 48.1729C306.92 48.1729 308.721 46.5838 310.837 49.9991C310.837 49.9991 306.685 51.0317 306.92 48.1729Z" fill="#004422"/>
<path d="M310.831 42.4504C310.831 42.4504 308.559 45.5483 310.439 46.8983C310.439 46.8983 312.712 46.1831 310.831 42.4504Z" fill="#004422"/>
<path d="M315.141 48.0916C315.141 48.0916 312.583 45.4699 311.042 47.3764C311.042 47.3764 311.301 49.6807 315.141 48.0916Z" fill="#004422"/>
<path d="M314.598 45.6226C314.598 45.6226 315.042 43.3987 318.697 44.6684C318.697 44.6684 316.635 47.2097 314.598 45.6226Z" fill="#004422"/>
<path d="M313.825 45.2105C313.825 45.2105 316.083 44.0332 312.871 41.0137C312.871 41.0137 311.566 44.0834 313.825 45.2105Z" fill="#004422"/>
<path d="M316.842 42.1301C316.842 42.1301 317.799 40.2236 314.431 38.9519C314.431 38.9519 314.082 42.6063 316.842 42.1301Z" fill="#004422"/>
<path d="M317.565 42.3744C317.565 42.3744 317.408 40.4679 321.169 40.3092C321.169 40.3092 319.602 44.281 317.565 42.3744Z" fill="#004422"/>
<path d="M318.979 38.7133C318.979 38.7133 317.961 36.8389 321.486 35.5511C321.486 35.5511 321.406 39.5852 318.979 38.7133Z" fill="#004422"/>
<path d="M318.349 38.7142C318.349 38.7142 318.662 36.5686 315.058 36.4099C315.058 36.4099 315.215 39.1904 318.349 38.7142Z" fill="#004422"/>
<path d="M318.599 35.2365C318.599 35.2365 318.608 33.2777 314.723 33.9708C314.723 33.9708 316.177 36.3656 318.599 35.2365Z" fill="#004422"/>
<path d="M319.376 34.681C319.376 34.681 317.88 32.9171 320.779 31.0106C320.779 31.0106 321.655 34.3797 319.376 34.681Z" fill="#004422"/>
<path d="M318.436 31.4067C318.436 31.4067 320.16 29.6589 318.436 27.1176C318.436 27.1176 316.32 30.0567 318.436 31.4067Z" fill="#004422"/>
<path d="M317.6 32.0723C317.6 32.0723 316.754 29.9549 313.559 32.0723C313.559 32.0723 317.474 33.4505 317.6 32.0723Z" fill="#004422"/>
<path d="M302.959 47.3719C302.959 47.3719 304.526 45.4654 301 43.4001C301 43.4001 300.294 47.0545 302.959 47.3719Z" fill="#004422"/>
<path d="M302.582 48.1728C302.582 48.1728 300.781 46.5837 298.665 49.999C298.665 49.999 302.818 51.0316 302.582 48.1728Z" fill="#004422"/>
<path d="M298.66 42.4498C298.66 42.4498 300.932 45.5477 299.052 46.8977C299.052 46.8977 296.78 46.1825 298.66 42.4498Z" fill="#004422"/>
<path d="M294.347 48.0908C294.347 48.0908 296.905 45.469 298.446 47.3756C298.446 47.3756 298.186 49.6799 294.347 48.0908Z" fill="#004422"/>
<path d="M294.901 45.6226C294.901 45.6226 294.457 43.3987 290.801 44.6684C290.801 44.6684 292.864 47.2097 294.901 45.6226Z" fill="#004422"/>
<path d="M295.658 45.2098C295.658 45.2098 293.399 44.0326 296.611 41.0131C296.611 41.0131 297.916 44.0828 295.658 45.2098Z" fill="#004422"/>
<path d="M292.643 42.1293C292.643 42.1293 291.686 40.2227 295.054 38.951C295.054 38.951 295.403 42.6054 292.643 42.1293Z" fill="#004422"/>
<path d="M291.911 42.3736C291.911 42.3736 292.068 40.4671 288.307 40.3083C288.307 40.3083 289.874 44.2801 291.911 42.3736Z" fill="#004422"/>
<path d="M290.506 38.7126C290.506 38.7126 291.525 36.8382 288 35.5504C288 35.5504 288.079 39.5845 290.506 38.7126Z" fill="#004422"/>
<path d="M291.143 38.7142C291.143 38.7142 290.83 36.5686 294.434 36.4099C294.434 36.4099 294.277 39.1904 291.143 38.7142Z" fill="#004422"/>
<path d="M290.886 35.2357C290.886 35.2357 290.876 33.2769 294.762 33.97C294.762 33.97 293.307 36.3647 290.886 35.2357V35.2357Z" fill="#004422"/>
<path d="M290.114 34.6809C290.114 34.6809 291.609 32.917 288.711 31.0105C288.711 31.0105 287.835 34.3796 290.114 34.6809Z" fill="#004422"/>
<path d="M291.05 31.406C291.05 31.406 289.327 29.6582 291.05 27.1168C291.05 27.1168 293.166 30.056 291.05 31.406Z" fill="#004422"/>
<path d="M291.887 32.0715C291.887 32.0715 292.733 29.954 295.929 32.0715C295.929 32.0715 292.014 33.4496 291.887 32.0715V32.0715Z" fill="#004422"/>
<path d="M307.24 20.9133L301.797 28.3144H305.984L301.797 34.3555H304.117L299.275 41.0333L309.695 32.7563H306.178L311.686 26.3637L307.836 26.2974L312.066 20.9977L307.24 20.9133Z" fill="#004422"/>
<path d="M294.171 68.0171V61.6481H296.573C297.235 61.6481 297.811 61.7937 298.302 62.0848C298.794 62.3699 299.17 62.7551 299.43 63.2403C299.691 63.7195 299.822 64.2503 299.822 64.8326C299.822 65.4149 299.691 65.9487 299.43 66.4339C299.17 66.9192 298.794 67.3044 298.302 67.5895C297.811 67.8745 297.235 68.0171 296.573 68.0171H294.171ZM296.437 66.7797C296.837 66.7797 297.177 66.6917 297.456 66.5158C297.741 66.3339 297.953 66.0943 298.093 65.797C298.232 65.4998 298.302 65.1783 298.302 64.8326C298.302 64.4868 298.232 64.1654 298.093 63.8681C297.953 63.5709 297.741 63.3344 297.456 63.1585C297.177 62.9765 296.837 62.8855 296.437 62.8855H295.645V66.7797H296.437ZM302.132 68.0171H300.658V61.6481H302.132V68.0171ZM306.398 68.1991C305.706 68.1991 305.103 68.0474 304.587 67.7441C304.071 67.4408 303.677 67.0344 303.404 66.5249C303.131 66.0093 302.995 65.4452 302.995 64.8326C302.995 64.22 303.131 63.6589 303.404 63.1494C303.677 62.6338 304.071 62.2243 304.587 61.9211C305.103 61.6178 305.706 61.4661 306.398 61.4661C307.089 61.4661 307.693 61.6178 308.208 61.9211C308.724 62.2243 309.118 62.6338 309.391 63.1494C309.664 63.6589 309.8 64.22 309.8 64.8326C309.8 65.4452 309.664 66.0093 309.391 66.5249C309.118 67.0344 308.724 67.4408 308.208 67.7441C307.693 68.0474 307.089 68.1991 306.398 68.1991ZM306.398 66.8798C306.786 66.8798 307.119 66.7888 307.398 66.6068C307.683 66.4248 307.899 66.1792 308.044 65.8698C308.19 65.5544 308.263 65.2087 308.263 64.8326C308.263 64.4565 308.19 64.1138 308.044 63.8045C307.899 63.489 307.683 63.2403 307.398 63.0584C307.119 62.8764 306.786 62.7854 306.398 62.7854C306.009 62.7854 305.673 62.8764 305.388 63.0584C305.109 63.2403 304.896 63.486 304.751 63.7954C304.605 64.0986 304.532 64.4353 304.532 64.8053C304.532 65.1874 304.602 65.5362 304.742 65.8516C304.887 66.167 305.099 66.4188 305.379 66.6068C305.664 66.7888 306.003 66.8798 306.398 66.8798ZM312.631 68.1991C311.848 68.1991 311.236 68.0019 310.793 67.6077C310.35 67.2073 310.129 66.6493 310.129 65.9335H311.603C311.603 66.2793 311.694 66.5492 311.876 66.7433C312.064 66.9374 312.318 67.0344 312.64 67.0344C312.913 67.0344 313.122 66.9738 313.268 66.8525C313.419 66.7312 313.495 66.5583 313.495 66.3339C313.495 66.1398 313.438 65.9851 313.322 65.8698C313.213 65.7485 313.013 65.6302 312.722 65.515L311.575 65.0692C311.151 64.9114 310.829 64.687 310.611 64.3959C310.393 64.0986 310.283 63.7438 310.283 63.3313C310.283 62.9613 310.374 62.6368 310.556 62.3578C310.744 62.0727 311.008 61.8543 311.348 61.7027C311.694 61.545 312.094 61.4661 312.549 61.4661C313.01 61.4661 313.416 61.551 313.768 61.7209C314.12 61.8847 314.393 62.1182 314.587 62.4215C314.781 62.7248 314.878 63.0796 314.878 63.486H313.404C313.404 63.1888 313.328 62.9613 313.177 62.8036C313.025 62.6459 312.807 62.5671 312.522 62.5671C312.285 62.5671 312.097 62.6247 311.958 62.7399C311.824 62.8491 311.757 63.0008 311.757 63.1949C311.757 63.3708 311.824 63.5224 311.958 63.6498C312.091 63.7711 312.315 63.8954 312.631 64.0228L313.686 64.4414C314.123 64.6112 314.444 64.8447 314.651 65.1419C314.863 65.4392 314.969 65.8031 314.969 66.2338C314.969 66.628 314.872 66.9738 314.678 67.271C314.484 67.5682 314.211 67.7987 313.859 67.9625C313.507 68.1202 313.098 68.1991 312.631 68.1991Z" fill="#004422"/>
<rect x="22.6956" y="3.34033" width="282.819" height="2.22693" rx="1.11346" fill="#004422"/>
<circle cx="305.339" cy="4.33899" r="4.33899" fill="#004422"/>
<circle cx="144.04" cy="39.0404" r="16.9269" fill="#BFBFBF" stroke="white" stroke-width="2.22693"/>
<path d="M148.003 48.6405H145.467L145.529 27.885L144.266 24.0876L143.002 27.885L143.064 48.6405H140.527L139.636 49.4148L140.527 50.1892C140.527 50.1892 141.073 49.7013 142.7 49.4938L143.542 49.977V53.889C143.542 54.0748 143.716 54.225 143.93 54.225H144.599C144.813 54.225 144.987 54.0748 144.987 53.889V49.977L145.83 49.4938C147.458 49.7013 148.002 50.1892 148.002 50.1892L148.893 49.4148L148.002 48.6405H148.003ZM143.556 49.819L142.19 48.9766L143.556 49.0137V49.8175V49.819ZM144.43 48.5321V26.0684L145.069 27.8386V48.5321H144.43ZM144.916 49.6007V48.8527H146.587L144.916 49.6007Z" fill="#767676"/>
</svg>
