<svg width="20" height="19" viewBox="0 0 20 19" fill="none" xmlns="http://www.w3.org/2000/svg">
<path d="M1.84013 16.6895H18.16C18.3591 16.6895 18.5196 16.519 18.5196 16.3077V6.21871C18.5196 6.18462 18.5132 6.15395 18.5036 6.12327L19.4638 3.12725C19.528 2.92615 19.5152 2.71142 19.4252 2.52055C19.3353 2.32967 19.1844 2.18652 18.9949 2.11835L13.2595 0.0426056C13.0701 -0.0255633 12.8678 -0.0119296 12.6879 0.0835069C12.5081 0.178943 12.3732 0.33914 12.309 0.540239L11.0405 4.50085H1.84013C1.64103 4.50085 1.48047 4.67127 1.48047 4.8826V16.3043C1.48047 16.5156 1.64103 16.686 1.84013 16.686V16.6895ZM15.8318 12.0881C15.8318 12.0881 15.8093 12.1119 15.7965 12.1085L10.0579 10.0396C10.0579 10.0396 10.0482 10.0362 10.0418 10.0259C10.0386 10.0191 10.0386 10.0123 10.0418 10.0021L12.9898 0.789055C12.9898 0.789055 12.9962 0.77883 13.0058 0.775421C13.0123 0.775421 13.0187 0.772013 13.0219 0.772013C13.0219 0.772013 13.0219 0.772013 13.0251 0.772013L18.7637 2.84094C18.7637 2.84094 18.7733 2.84776 18.7766 2.85798C18.783 2.86821 18.7798 2.87502 18.7798 2.87843L15.8286 12.0915L15.8318 12.0881ZM10.7611 11.2802L10.8992 12.1426L10.1703 11.737C10.0643 11.679 9.93904 11.679 9.83307 11.737L9.1041 12.1426L9.24219 11.2802C9.26146 11.1541 9.22292 11.028 9.13943 10.9394L8.54855 10.3293L9.34495 10.2066C9.3578 10.2645 9.37385 10.3157 9.39633 10.36C9.48625 10.5508 9.63718 10.694 9.82665 10.7622L10.774 11.103C10.7547 11.1644 10.7483 11.2223 10.7579 11.2768L10.7611 11.2802ZM9.78169 8.4342L9.10732 9.46696L7.72324 9.68169C7.58516 9.70214 7.47276 9.80439 7.43101 9.94414C7.38927 10.0839 7.42459 10.2339 7.52414 10.3361L8.50359 11.3484L8.27238 12.7766C8.2499 12.9197 8.30449 13.0663 8.41688 13.1515C8.52928 13.2401 8.677 13.2503 8.79903 13.1822L10.0097 12.5073L11.2204 13.1822C11.3392 13.2503 11.4901 13.2367 11.6025 13.1549C11.7149 13.0697 11.7695 12.9231 11.747 12.78L11.519 11.3689L15.5749 12.8311H15.5813C15.6584 12.8584 15.7354 12.872 15.8157 12.872C16.1369 12.872 16.4227 12.6539 16.5286 12.3335L17.8132 8.32513V15.9226H2.20301V5.26775H10.7932L9.77848 8.43761L9.78169 8.4342Z" fill="#096045"/>
<path d="M19.6403 16.7883H0.359666C0.161028 16.7883 0 16.9592 0 17.1701V17.62C0 17.8308 0.161028 18.0017 0.359666 18.0017H19.6403C19.839 18.0017 20 17.8308 20 17.62V17.1701C20 16.9592 19.839 16.7883 19.6403 16.7883Z" fill="#096045"/>
<path d="M14.5506 8.25013L14.2487 8.14106L14.313 7.93655C14.4061 8.00813 14.5089 8.06266 14.618 8.10016C14.9167 8.20923 15.241 8.18537 15.5268 8.03881C15.8127 7.88883 16.0246 7.6332 16.1274 7.31281C16.2751 6.84926 16.1595 6.33799 15.8319 6.00056C15.8416 5.9767 15.848 5.95625 15.8544 5.93239C16.0663 5.27456 15.7324 4.55537 15.1126 4.33042C14.8107 4.22135 14.4896 4.24521 14.2038 4.39177C13.918 4.54174 13.706 4.79737 13.6033 5.11777C13.5969 5.13481 13.5936 5.14844 13.5904 5.16549C13.1152 5.20298 12.7073 5.5336 12.5532 6.0176C12.4504 6.33799 12.4729 6.67884 12.611 6.98219C12.7523 7.28554 12.9931 7.5105 13.295 7.61957C13.4042 7.66047 13.5166 7.68092 13.629 7.68433L13.5647 7.88883L13.2629 7.77976C13.0734 7.71159 12.8679 7.82066 12.8037 8.01835C12.7394 8.21945 12.839 8.43759 13.0285 8.50576L14.3162 8.96931C14.3547 8.98294 14.3933 8.98976 14.4318 8.98976C14.5859 8.98976 14.724 8.8841 14.7754 8.73072C14.8396 8.52962 14.7369 8.31148 14.5506 8.24331V8.25013ZM14.8782 5.05982C15.1222 5.14844 15.2539 5.42794 15.1704 5.68698C15.1511 5.74833 15.119 5.80627 15.0773 5.8574C15.0034 5.94943 14.9713 6.07213 14.9938 6.19143C15.0162 6.31072 15.0933 6.40957 15.1961 6.4607C15.4144 6.56636 15.5204 6.82881 15.4401 7.07081C15.4016 7.19692 15.3181 7.29576 15.2057 7.35371C15.0933 7.41165 14.9681 7.42188 14.8493 7.37757C14.6983 7.32303 14.5827 7.1901 14.5442 7.02309C14.5153 6.89357 14.4286 6.79131 14.3098 6.75041C14.2712 6.73678 14.2327 6.72996 14.1942 6.72996C14.1139 6.72996 14.0336 6.76064 13.9662 6.81517C13.8409 6.92424 13.6739 6.95492 13.523 6.90038C13.4042 6.85948 13.311 6.77086 13.2565 6.65157C13.2019 6.53227 13.1922 6.39934 13.234 6.27323C13.3143 6.02441 13.5615 5.88467 13.8024 5.95624C13.9148 5.99033 14.0368 5.96306 14.1267 5.88467C14.2166 5.80627 14.268 5.68698 14.2616 5.56087C14.2584 5.4961 14.2648 5.43134 14.2841 5.36999C14.3226 5.24388 14.4061 5.14504 14.5185 5.08709C14.6277 5.02915 14.7561 5.01892 14.8749 5.06323L14.8782 5.05982Z" fill="#096045"/>
<path d="M13.0666 2.79325L13.5354 2.96368L13.5258 3.175L13.969 3.3352V1.48782L13.5675 1.34467L12.5431 2.76258L12.5078 2.8103L12.951 2.97049L13.0634 2.79666L13.0666 2.79325ZM13.2817 2.46264L13.5804 2.0025L13.5547 2.56148L13.2817 2.46264Z" fill="#096045"/>
<path d="M15.7095 10.1828L15.2407 10.0123L15.2503 9.801L14.8071 9.64081V11.4882L15.2085 11.6313L16.2329 10.2134L16.2683 10.1657L15.8251 10.0055L15.7127 10.1793L15.7095 10.1828ZM15.4943 10.5134L15.1957 10.9769L15.2214 10.4179L15.4943 10.5168V10.5134Z" fill="#096045"/>
</svg>
