<svg width="22" height="28" viewBox="0 0 22 28" fill="none" xmlns="http://www.w3.org/2000/svg"><path d="M21.402 12.188a.25.25 0 0 0-.25-.25h-1.875a.25.25 0 0 0-.25.25 7.937 7.937 0 0 1-7.937 7.937 7.937 7.937 0 0 1-7.938-7.938.25.25 0 0 0-.25-.25H1.027a.25.25 0 0 0-.25.25c0 5.272 3.957 9.622 9.063 10.238v3.2H5.3c-.429 0-.773.447-.773 1v1.125c0 .137.088.25.194.25H17.46c.106 0 .193-.113.193-.25v-1.125c0-.553-.343-1-.771-1h-4.666v-3.184c5.166-.563 9.187-4.938 9.187-10.253ZM11.09 17.5c2.934 0 5.312-2.35 5.312-5.25v-7c0-2.9-2.378-5.25-5.312-5.25-2.935 0-5.313 2.35-5.313 5.25v7c0 2.9 2.378 5.25 5.313 5.25ZM8.152 5.25c0-1.581 1.31-2.875 2.938-2.875 1.628 0 2.937 1.294 2.937 2.875v7c0 1.581-1.309 2.875-2.937 2.875s-2.938-1.294-2.938-2.875v-7Z" fill="#6C6C6C"/></svg>