<svg width="17" height="15" viewBox="0 0 17 15" fill="none" xmlns="http://www.w3.org/2000/svg">
<path fill-rule="evenodd" clip-rule="evenodd" d="M7.83126 13.8279C8.12352 13.5344 8.1225 13.0595 7.82898 12.7672L3.06553 8.02429H16.25L16.3518 8.01744C16.7178 7.96778 17 7.65398 17 7.27429C17 6.86007 16.6642 6.52429 16.25 6.52429H3.06672L7.82902 1.78112L7.90181 1.69715C8.12028 1.40399 8.09693 0.987275 7.83122 0.720458C7.53893 0.426959 7.06406 0.425976 6.77056 0.718262L0.731463 6.7324C0.693839 6.76842 0.659958 6.80831 0.630464 6.85144C0.430104 7.1439 0.460155 7.54683 0.720605 7.80616L6.77061 13.8302L6.85488 13.9026C7.14896 14.1198 7.56557 14.0947 7.83126 13.8279Z" fill="#096045"/>
</svg>
