<svg width="11" height="13" viewBox="0 0 11 13" fill="none" xmlns="http://www.w3.org/2000/svg">
<path d="M8.62041 4.44716H10.8704V10.8222C10.8704 11.8769 10.0267 12.6972 8.99541 12.6972H2.24541C1.19073 12.6972 0.370415 11.8769 0.370415 10.8222V4.44716H2.62041V3.69716C2.62041 2.05654 3.95635 0.697163 5.62041 0.697163C7.26104 0.697163 8.62041 2.05654 8.62041 3.69716V4.44716ZM4.12041 3.69716V4.44716H7.12041V3.69716C7.12041 2.87685 6.44073 2.19716 5.62041 2.19716C4.77666 2.19716 4.12041 2.87685 4.12041 3.69716ZM7.87041 6.50966C8.1751 6.50966 8.43291 6.27529 8.43291 5.94716C8.43291 5.64248 8.1751 5.38466 7.87041 5.38466C7.54229 5.38466 7.30791 5.64248 7.30791 5.94716C7.30791 6.27529 7.54229 6.50966 7.87041 6.50966ZM3.37041 6.50966C3.6751 6.50966 3.93291 6.27529 3.93291 5.94716C3.93291 5.64248 3.6751 5.38466 3.37041 5.38466C3.04229 5.38466 2.80791 5.64248 2.80791 5.94716C2.80791 6.27529 3.04229 6.50966 3.37041 6.50966Z" fill="black"/>
</svg>
