<svg width="30" height="30" viewBox="0 0 30 30" fill="none" xmlns="http://www.w3.org/2000/svg"><path d="M15 .656A14.344 14.344 0 1 0 29.344 15 14.36 14.36 0 0 0 15 .656Zm10.922 20.731h-5.031l-1.474-2.028 1.869-5.445 2.39-.774 3.93 3.013a12.568 12.568 0 0 1-1.684 5.234Zm-16.813 0H4.078a12.57 12.57 0 0 1-1.68-5.234l3.928-3.013 2.39.774 1.867 5.445-1.474 2.028ZM4.172 8.45l1.018 3.432-2.812 2.158a12.582 12.582 0 0 1 1.794-5.59Zm7.954 10.206-1.745-5.082L15 10.4l4.62 3.175-1.746 5.082h-5.748Zm12.683-6.774 1.02-3.432a12.58 12.58 0 0 1 1.792 5.59l-2.812-2.158Zm-.234-5.15-1.419 4.802-2.39.777-4.922-3.375V6.444l4.345-2.986a12.7 12.7 0 0 1 4.386 3.275Zm-6.352-3.966L15 4.976l-3.223-2.21a12.687 12.687 0 0 1 6.446 0Zm-8.41.69 4.343 2.988v2.487l-4.922 3.375-2.39-.778-1.42-4.795a12.712 12.712 0 0 1 4.388-3.277ZM5.261 23.075h3.681l1.293 3.656a12.708 12.708 0 0 1-4.974-3.656Zm6.986 4.279-1.765-4.987 1.471-2.023h6.092l1.47 2.023-1.764 4.987a12.677 12.677 0 0 1-5.504 0Zm7.516-.63 1.293-3.656h3.681a12.708 12.708 0 0 1-4.974 3.656Z" fill="#096045"/></svg>