<svg width="24" height="25" viewBox="0 0 24 25" fill="none" xmlns="http://www.w3.org/2000/svg"><path d="M4.5.78h15c1.241 0 2.301.44 3.18 1.32.88.879 1.32 1.939 1.32 3.18v15c0 1.241-.44 2.301-1.32 3.18-.879.88-1.939 1.32-3.18 1.32h-15c-1.241 0-2.301-.44-3.18-1.32C.44 22.582 0 21.522 0 20.28v-15C0 4.039.44 2.979 1.32 2.1 2.198 1.22 3.258.78 4.5.78Zm4.54 6.79v3.817h4.473c.438 0 .815-.185 1.132-.556.317-.37.476-.819.476-1.346 0-.526-.157-.977-.47-1.352-.312-.375-.691-.563-1.138-.563H9.04ZM5.732 5.79v13.982c0 .277.096.514.288.71a.946.946 0 0 0 .703.294h6.79c1.313 0 2.433-.46 3.362-1.379.929-.92 1.393-2.027 1.393-3.321 0-1.286-.456-2.384-1.366-3.295.91-.91 1.366-2.009 1.366-3.295 0-1.294-.464-2.401-1.393-3.321-.929-.92-2.05-1.38-3.362-1.38h-6.79a.946.946 0 0 0-.703.295.979.979 0 0 0-.288.71Zm7.781 12.2H9.04v-3.816h4.473c.438 0 .815.185 1.132.556.317.37.476.819.476 1.346 0 .526-.157.977-.47 1.352-.312.375-.691.563-1.138.563Z" fill="#F2F2F2"/></svg>