<svg width="25" height="25" viewBox="0 0 25 25" fill="none" xmlns="http://www.w3.org/2000/svg"><path fill-rule="evenodd" clip-rule="evenodd" d="M.5 0a.5.5 0 0 0 0 1h2.173l2.054 8.944 1.285 5.776a.499.499 0 0 0 .083.185l.775 3.374a.5.5 0 0 0 .487.388H21.93a.5.5 0 0 0 0-1H7.755L7.17 16.11h14.76a.5.5 0 0 0 .488-.391l2.571-11.556a.5.5 0 0 0-.488-.608H4.286L3.559.388A.5.5 0 0 0 3.07 0H.5Zm21.028 15.111H6.939L5.702 9.723l-1.15-5.167h19.325l-2.35 10.555Zm-13.67 7.611c0-.723.56-1.277 1.214-1.277.653 0 1.214.554 1.214 1.277 0 .723-.56 1.278-1.214 1.278-.654 0-1.215-.555-1.215-1.278Zm1.214-2.277c-1.24 0-2.215 1.037-2.215 2.277 0 1.241.975 2.278 2.215 2.278 1.24 0 2.214-1.037 2.214-2.278 0-1.24-.974-2.277-2.214-2.277ZM19 22.722c0-.723.56-1.277 1.214-1.277.654 0 1.215.554 1.215 1.277 0 .723-.561 1.278-1.215 1.278-.653 0-1.214-.555-1.214-1.278Zm1.214-2.277c-1.24 0-2.214 1.037-2.214 2.277 0 1.241.974 2.278 2.214 2.278s2.215-1.037 2.215-2.278c0-1.24-.975-2.277-2.215-2.277ZM14.5 6.5a.5.5 0 0 0-1 0v3h-3a.5.5 0 0 0 0 1h3v3a.5.5 0 0 0 1 0v-3h3a.5.5 0 0 0 0-1h-3v-3Z" fill="#8F8E8E"/></svg>