<svg width="18" height="18" viewBox="0 0 18 18" fill="none" xmlns="http://www.w3.org/2000/svg"><path fill-rule="evenodd" clip-rule="evenodd" d="M.5 1A.5.5 0 0 1 1 .5h1.714a.5.5 0 0 1 .488.388l.455 1.982H17a.5.5 0 0 1 .488.609l-1.714 7.704a.5.5 0 0 1-.488.391H5.655l.315 1.37h9.316a.5.5 0 1 1 0 1H5.57a.5.5 0 0 1-.487-.388l-.51-2.22a.5.5 0 0 1-.062-.153l-.857-3.85L2.316 1.5H1A.5.5 0 0 1 .5 1Zm4.925 9.574h9.46l1.492-6.704H3.909l.722 3.242.794 3.462Zm1.29 4.556c-.339 0-.643.29-.643.685 0 .396.304.685.642.685s.643-.29.643-.685c0-.396-.304-.685-.643-.685Zm-1.643.685c0-.914.718-1.685 1.642-1.685.925 0 1.643.771 1.643 1.685 0 .913-.718 1.685-1.643 1.685-.924 0-1.642-.772-1.642-1.685Zm9.07-.685c-.337 0-.642.29-.642.685 0 .396.305.685.643.685s.643-.29.643-.685c0-.396-.305-.685-.643-.685Zm-1.642.685c0-.914.719-1.685 1.643-1.685s1.643.771 1.643 1.685c0 .913-.719 1.685-1.643 1.685-.925 0-1.643-.772-1.643-1.685Z" fill="#096045"/></svg>