<?xml version="1.0" encoding="UTF-8"?>
<svg id="Capa_1" data-name="Capa 1" xmlns="http://www.w3.org/2000/svg" viewBox="0 0 433.46 297.45">
  <defs>
    <style>
      .cls-1 {
        fill: #042;
        stroke-width: 0px;
      }
    </style>
  </defs>
  <path class="cls-1" d="m177.4,278.81c-39.83-5.5-67.48-27.14-82.99-63.9-3.82-9.05-6.09-18.7-7.4-28.87,0-5.4,0-10.8,0-16.19,1.55-7.5,2.62-15.14,4.73-22.48,5.35-18.63,15.93-34.04,30.37-46.84,5.27-4.67,9.05-4.53,13.45.28,3.99,4.36,3.95,8.47-.89,13.03-13.82,13.01-23.87,28.19-27.24,47.13-1.2,6.76-1.59,13.67-2.49,21.77,10.16,0,19.33-.03,28.49,0,11.74.05,21.23,4.86,28.56,13.9,5.35,6.59,8.53,13.97,8.45,22.75-.11,11.75.37,23.51.39,35.27,0,3.55,1.09,5.54,4.87,5.39,11.47-.48,22.94-.87,34.41-1.5,4.05-.22,5.64-2.41,5.54-6.85-.36-15.61-.18-31.22-.26-46.84-.05-10.15-.11-10.05-10.34-11.65-15.89-2.47-26.07-11.89-30.64-26.94-2.81-9.26-2.09-18.73,2.82-27.41,3.11-5.5,6.51-6.48,12-3.87,5.15,2.44,6.14,5.4,4.57,11.38-1.06,4.04-2.33,8.33-1.96,12.37.86,9.29,8.6,15.79,18.55,16.67,15.45,1.36,23.46,9.99,23.57,25.63.1,15.22.02,30.44.02,46.73,2.05-1.16,3.57-1.77,4.77-2.74,21.13-17.15,33.49-38.84,34.3-66.49.22-7.67,2.6-10.14,9.47-9.99,6.3.13,9.27,3.47,9.06,10.7-1.74,58.81-48.46,96.02-90.27,99.58,0,0-9.69,1.61-20.18.67m-72.31-78.28c7.97,22.97,21.34,40.05,42.92,50.79,0-12.29.34-23.85-.13-35.38-.28-7-9.47-15.13-16.68-15.35-8.46-.26-16.94-.06-26.12-.06Z"/>
  <path class="cls-1" d="m208.46,19.46c27.36,12.95,54.73,25.9,82.67,39.13,2.43-3.62,4.93-7.41,7.5-11.16,6.15-8.93,10.86-10.68,21.08-7.48,5.86,1.83,11.71,3.77,17.38,6.11,7.57,3.13,11.02,10.07,8.61,17.88-5.33,17.24-10.79,34.45-16.64,51.52-3.9,11.39-14.87,16.71-26.4,13.28-11.75-3.5-23.42-7.28-35.73-11.13.28,2.49.42,4.5.75,6.48,2.41,14.65-7.03,23.36-21.49,19.81-.19-.05-.36-.13-.54-.19-31.44-9.91-27.57-6.19-35.9-35.73-1.72-6.11-4.49-9.22-10.5-10.97-13.45-3.91-26.75-8.37-40.03-12.86-14.58-4.93-20.22-16.8-14.28-31.05,6.92-16.59,19.37-27.39,36.61-32.6.9-.27,1.76-.68,2.64-1.03,8.49-2.28,16.68-2.47,24.29,0Zm105.31,38.6c-2.6,3.99-5.4,8.34-8.24,12.65-7.83,11.88-8.58,12.17-21.15,6.01-24.52-12.01-48.96-24.19-73.48-36.2-17.49-8.56-40.48.15-48.21,17.98-1.89,4.37-1.61,6.84,3.59,8.46,16.5,5.15,32.82,10.86,49.28,16.12,4.51,1.44,7.06,4.08,8.34,8.56,2.36,8.31,4.94,16.56,7.59,24.79.48,1.48,1.46,3.42,2.7,3.92,4.53,1.8,9.26,3.08,14.78,4.82-1.14-5.73-2.04-10.39-2.98-15.05-2.38-11.81,2.71-16.73,14.59-14.04,1.68.38,3.32.98,4.97,1.5,13.37,4.21,26.77,8.37,40.11,12.68,3.9,1.26,5.88.4,7.14-3.78,3.32-11.04,7.14-21.93,10.7-32.9q3.98-12.25-8.61-15.71c-.16-.04-.36.06-1.11.2Z"/>
</svg>