<svg width="21" height="28" viewBox="0 0 21 28" fill="none" xmlns="http://www.w3.org/2000/svg"><path d="M19.756 9.959 17.035.717A1 1 0 0 0 16.076 0H4.103a1 1 0 0 0-.958.718L.423 9.957a7.933 7.933 0 0 0 2.178 8.085 10.924 10.924 0 0 0 6.489 2.91V26h-4a1 1 0 0 0 0 2h10a1 1 0 0 0 0-2h-4v-5.046a10.927 10.927 0 0 0 6.488-2.912 7.933 7.933 0 0 0 2.178-8.083ZM4.851 2h10.477l2.512 8.524.031.112c-2.677.96-5.692-.2-7.329-1.028C7.393 8.014 4.893 7.81 3.05 8.116L4.85 2Zm11.364 14.581a8.961 8.961 0 0 1-12.25 0 5.943 5.943 0 0 1-1.625-6.057l.056-.19c1.5-.508 3.884-.643 7.241 1.059 1.394.706 3.645 1.606 6.054 1.606a8.574 8.574 0 0 0 2.381-.325 5.9 5.9 0 0 1-1.857 3.907Z" fill="#6C6C6C"/></svg>