<svg width="18" height="18" viewBox="0 0 18 18" fill="none" xmlns="http://www.w3.org/2000/svg"><path d="M0 3.25A3.25 3.25 0 0 1 3.25 0h11.5A3.25 3.25 0 0 1 18 3.25v11.5A3.25 3.25 0 0 1 14.75 18H3.25A3.25 3.25 0 0 1 0 14.75V3.25Zm16.5 0a1.75 1.75 0 0 0-1.75-1.75H3.25A1.75 1.75 0 0 0 1.5 3.25V5h15V3.25Zm0 11.5V6.5h-15v8.25c0 .966.784 1.75 1.75 1.75h11.5a1.75 1.75 0 0 0 1.75-1.75ZM5 4.25a1 1 0 1 0 0-2 1 1 0 0 0 0 2Zm5-1a1 1 0 1 1-2 0 1 1 0 0 1 2 0Zm3 1a1 1 0 1 0 0-2 1 1 0 0 0 0 2ZM4.5 13.5v-4h9v4h-9ZM4.25 8C3.56 8 3 8.56 3 9.25v4.5c0 .69.56 1.25 1.25 1.25h9.5c.69 0 1.25-.56 1.25-1.25v-4.5C15 8.56 14.44 8 13.75 8h-9.5Z" fill="#096045"/></svg>