<svg width="32" height="32" viewBox="0 0 32 32" fill="none" xmlns="http://www.w3.org/2000/svg"><path d="M24 19.428a11.43 11.43 0 1 1-18.857-8.685" stroke="#096045" stroke-width="2" stroke-linecap="round" stroke-linejoin="round"/><path d="M12.069 15.2a3.657 3.657 0 0 0-.106 2.942 3.473 3.473 0 0 0 3.237 2.155 1.76 1.76 0 0 1 1.76 1.76v7.932m-15.657-8.8H5.53a3.52 3.52 0 0 1 3.612 3.52v5.6M30.309 4.274l-2.286-.777a.777.777 0 0 0-.892.297l-1.668 2.583-9.143-4.571A5.692 5.692 0 0 0 8.069 4.8a1.554 1.554 0 0 0 1.074 2.057l5.966 1.92.594.206 1.12 3.84a.822.822 0 0 0 .548.571l2.698.869a.846.846 0 0 0 1.097-.937l-.595-2.857h.389l5.829 1.897a1.531 1.531 0 0 0 1.942-.937l2.058-6.332a.777.777 0 0 0-.48-.823Z" stroke="#096045" stroke-width="2" stroke-linecap="round" stroke-linejoin="round"/></svg>