<svg width="24" height="25" viewBox="0 0 24 25" fill="none" xmlns="http://www.w3.org/2000/svg"><g clip-path="url(#a)"><mask id="b" style="mask-type:luminance" maskUnits="userSpaceOnUse" x="0" y="0" width="24" height="25"><path d="M24 .78H0v24h24v-24Z" fill="#fff"/></mask><g mask="url(#b)"><path fill-rule="evenodd" clip-rule="evenodd" d="M23 .78H1a1 1 0 0 0-1 1v22a1 1 0 0 0 1 1h11.75v-9h-3v-3.75h3v-3c0-3.1 1.963-4.625 4.728-4.625 1.324 0 2.463.099 2.794.142v3.24l-1.917.001c-1.504 0-1.855.715-1.855 1.763v2.479h3.75l-.75 3.75h-3l.06 9H23a1 1 0 0 0 1-1v-22a1 1 0 0 0-1-1Z" fill="#F2F2F2"/></g></g><defs><clipPath id="a"><path fill="#fff" d="M0 .78h24v24H0z"/></clipPath></defs></svg>