<svg width="18" height="19" viewBox="0 0 18 19" fill="none" xmlns="http://www.w3.org/2000/svg"><path fill-rule="evenodd" clip-rule="evenodd" d="M.278 3.226C-.2 1.35 1.436 0 3 0h12c1.564 0 3.2 1.349 2.722 3.226a9.018 9.018 0 0 1-4.835 5.893c-.58.278-.887.755-.887 1.18v5.083a2 2 0 0 1-1.106 1.789l-2 1A2 2 0 0 1 6 16.382v-6.084c0-.424-.307-.9-.887-1.179A9.018 9.018 0 0 1 .278 3.226Zm2.063-.958a.474.474 0 0 0-.125.465 7.018 7.018 0 0 0 3.762 4.583C7.044 7.827 8 8.898 8 10.298v6.084l2-1v-5.084c0-1.4.956-2.47 2.022-2.982a7.018 7.018 0 0 0 3.762-4.583.474.474 0 0 0-.125-.465A.904.904 0 0 0 15 2H3a.904.904 0 0 0-.66.268Z" fill="#096045"/></svg>