<svg width="26" height="23" viewBox="0 0 26 23" fill="none" xmlns="http://www.w3.org/2000/svg"><path d="M11.146.333A8.945 8.945 0 0 0 2.2 9.278v.806a3.11 3.11 0 0 0 0 5.388v2.361a4.278 4.278 0 0 0 4.278 4.278H19.7a4.278 4.278 0 0 0 4.278-4.278v-2.36a3.11 3.11 0 0 0 0-5.39v-.805A8.945 8.945 0 0 0 15.034.333h-3.889ZM22.422 12a.778.778 0 0 1 0 1.556H3.757a.778.778 0 1 1 0-1.556h18.666Zm-.777-2.333H4.534v-.39a6.611 6.611 0 0 1 6.612-6.61h3.888a6.611 6.611 0 0 1 6.612 6.61v.39Zm-3.89 6.222h3.89v1.944a1.945 1.945 0 0 1-1.945 1.945H6.48a1.945 1.945 0 0 1-1.945-1.945V15.89h10.111l1.556 1.556 1.556-1.556Z" fill="#6C6C6C"/></svg>