<svg width="21" height="22" viewBox="0 0 21 22" fill="none" xmlns="http://www.w3.org/2000/svg"><path fill-rule="evenodd" clip-rule="evenodd" d="M14.166 3.583c0-.347.194-.96.665-1.49.455-.51 1.157-.926 2.169-.926s1.713.416 2.168.926c.472.53.665 1.143.665 1.49v.75H19.5a1.75 1.75 0 0 0-1.75 1.75v.209a1.542 1.542 0 0 0 3.083 0V3.583c0-.625-.306-1.469-.918-2.155C19.286.723 18.32.167 17 .167s-2.287.556-2.915 1.26c-.612.687-.919 1.531-.919 2.156v2.709a1.542 1.542 0 1 0 3.084 0v-.209a1.75 1.75 0 0 0-1.75-1.75h-.334v-.75Zm5.334 1.75h.333v.959a.542.542 0 0 1-1.083 0v-.209a.75.75 0 0 1 .75-.75Zm-4.25.959a.542.542 0 1 1-1.084 0v-.959h.334a.75.75 0 0 1 .75.75v.209Zm-3.21 2.245c0 2.351-1.767 4.284-3.937 4.284-2.169 0-3.928-1.923-3.937-4.266 0-2.315 1.777-4.183 3.937-4.183 2.179 0 3.938 1.832 3.938 4.165Zm-6.407.018c0 1.613 1.14 2.89 2.47 2.89 1.34 0 2.47-1.295 2.47-2.908 0-1.586-1.112-2.79-2.47-2.79-1.349 0-2.47 1.222-2.47 2.808Zm8.194 12.697H2.37c-1.513 0-2.233-.456-2.233-1.459 0-2.388 3.017-5.842 7.966-5.842 4.94 0 7.957 3.454 7.957 5.842 0 1.003-.72 1.459-2.233 1.459ZM1.605 19.62c0 .192.1.255.337.255h12.323c.237 0 .328-.063.328-.255 0-1.495-2.315-4.293-6.49-4.293-4.183 0-6.498 2.798-6.498 4.293Z" fill="#61646B"/></svg>