<svg width="12" height="12" viewBox="0 0 12 12" fill="none" xmlns="http://www.w3.org/2000/svg"><path d="M6 12c-1.533 0-2.87-.508-4.009-1.525C.852 9.458.2 8.188.033 6.667H1.4c.156 1.155.67 2.11 1.542 2.866.872.756 1.892 1.134 3.058 1.134 1.3 0 2.403-.453 3.309-1.359.905-.906 1.358-2.008 1.358-3.308 0-1.3-.453-2.403-1.359-3.309C8.402 1.786 7.3 1.333 6 1.333a4.5 4.5 0 0 0-2.15.534 4.954 4.954 0 0 0-1.683 1.466H4v1.334H0v-4h1.333v1.566A5.955 5.955 0 0 1 6 0c.833 0 1.614.158 2.342.475a6.107 6.107 0 0 1 1.9 1.283c.539.54.966 1.172 1.283 1.9A5.8 5.8 0 0 1 12 6c0 .833-.158 1.614-.475 2.342a6.108 6.108 0 0 1-1.283 1.9 6.111 6.111 0 0 1-1.9 1.283A5.793 5.793 0 0 1 6 12Zm1.867-3.2L5.333 6.267v-3.6h1.334v3.066L8.8 7.867l-.933.933Z" fill="#61646B"/></svg>