<svg width="30" height="28" viewBox="0 0 30 28" fill="none" xmlns="http://www.w3.org/2000/svg"><path d="M22.965.5c-2.298 0-3.718 1.358-4.5 2.425v-1.3c-17.793 0-18 25.616-18 25.875h4.5s-.018-5.484 1.722-10.899c.871-2.707 2.194-5.383 4.078-7.312 1.886-1.929 4.295-3.164 7.7-3.164h.703l.316-.633s.998-1.669 2.356-2.39v3.304l4.606 9.212.104.175.141.14c.453.427.624.831.703 1.09.062.189.036.186.036.211-.031.11-.079.348-.281.669-.247.39-.466.597-.809.597s-.563-.207-.809-.597c-.245-.392-.35-.81-.35-.81l-.247-.949-.985.106s-.936.11-1.968-.175c-1.033-.286-2.009-.791-2.426-2.356l-.387-1.441-1.265.738c-1.455.852-2.299 2.153-2.462 3.48-.162 1.328.23 2.606.703 3.867.945 2.522 2.321 5.094 2.321 7.137h2.25c0-2.949-1.648-5.687-2.496-7.946-.422-1.128-.616-2.082-.527-2.776.053-.421.238-.815.527-1.125.857 1.34 2.03 2.289 3.164 2.6 1.047.29 1.472.199 1.969.177.101.264.07.329.281.667.457.735 1.361 1.653 2.707 1.653 1.344 0 2.25-.918 2.707-1.653.458-.733.633-1.44.633-1.44l.035-.107v-.104s.009-.541-.175-1.125c-.155-.493-.558-1.091-1.09-1.688h.034l-4.394-8.79V.5h-1.125Zm-5.097 3.41c-.005.009-.032.027-.036.036-.457.021-.9.044-1.336.105-.352.048-.686.136-1.019.211.336-.087.676-.158 1.02-.211.438-.075.9-.119 1.37-.141ZM21.84 9.5c-.619 0-1.125.506-1.125 1.125s.506 1.125 1.125 1.125 1.125-.506 1.125-1.125S22.459 9.5 21.84 9.5Z" fill="#6C6C6C"/></svg>