<svg width="24" height="20" viewBox="0 0 24 20" fill="none" xmlns="http://www.w3.org/2000/svg"><path d="M21.6 6.901V2.4A2.403 2.403 0 0 0 19.2 0H4.8a2.403 2.403 0 0 0-2.4 2.4v4.501A3.206 3.206 0 0 0 0 10v5.6a1.602 1.602 0 0 0 1.6 1.6h.8v2.4H4v-2.4h16v2.4h1.6v-2.4h.8a1.602 1.602 0 0 0 1.6-1.6V10a3.206 3.206 0 0 0-2.4-3.099ZM4.8 15.6H1.6V10a1.6 1.6 0 1 1 3.2 0v5.6Zm12.8 0H6.4v-4.8h11.2v4.8Zm.101-6.4H6.3A3.212 3.212 0 0 0 4 6.901V2.4a.801.801 0 0 1 .8-.8h14.4a.801.801 0 0 1 .8.8v4.501A3.212 3.212 0 0 0 17.701 9.2Zm4.699 6.4h-3.2V10a1.6 1.6 0 0 1 3.2 0l.001 5.6H22.4Z" fill="#AFB1B6"/></svg>