<svg width="24" height="25" viewBox="0 0 24 25" fill="none" xmlns="http://www.w3.org/2000/svg"><path d="M23.923 7.376a8.702 8.702 0 0 0-.559-2.954A6.144 6.144 0 0 0 19.855.913a8.804 8.804 0 0 0-2.913-.56C15.66.296 15.253.28 11.999.28c-3.255 0-3.672 0-4.945.073-.995.02-1.98.21-2.912.56a6.14 6.14 0 0 0-3.509 3.51 8.735 8.735 0 0 0-.558 2.911C.017 8.618 0 9.024 0 12.28c0 3.254 0 3.67.075 4.944.02.997.208 1.98.558 2.915a6.144 6.144 0 0 0 3.51 3.508c.93.364 1.915.566 2.913.6 1.283.057 1.69.074 4.944.074 3.255 0 3.672 0 4.945-.075a8.782 8.782 0 0 0 2.913-.558 6.15 6.15 0 0 0 3.509-3.51c.35-.932.538-1.916.558-2.914.058-1.282.075-1.689.075-4.944-.003-3.255-.003-3.668-.077-4.943ZM11.99 18.433a6.16 6.16 0 0 1-6.162-6.161 6.16 6.16 0 0 1 10.518-4.357 6.161 6.161 0 0 1-4.356 10.518ZM18.397 7.32a1.435 1.435 0 0 1-1.016-2.453 1.435 1.435 0 0 1 2.451 1.016c0 .794-.642 1.437-1.435 1.437Z" fill="#F2F2F2"/></svg>