<svg width="15" height="15" viewBox="0 0 15 15" fill="none" xmlns="http://www.w3.org/2000/svg">
<path d="M13.3292 0.403006C13.4113 0.375662 13.4933 0.375662 13.6027 0.375662C14.0675 0.375662 14.4503 0.758474 14.4777 1.22332V10.8483C14.4777 11.8327 13.3019 12.5983 11.8527 12.5983C10.4034 12.5983 9.22766 11.8327 9.22766 10.8483C9.22766 9.89129 10.4034 9.09832 11.8527 9.09832C12.1534 9.12566 12.4269 9.15301 12.7277 9.20769V4.17644L5.72766 6.22722V12.5983C5.72766 13.5827 4.55188 14.3483 3.10266 14.3483C1.65344 14.3483 0.477661 13.5827 0.477661 12.5983C0.477661 11.6413 1.65344 10.8483 3.10266 10.8483C3.40344 10.8757 3.67688 10.903 3.97766 10.9577V3.82097C3.97766 3.43816 4.22375 3.11004 4.57922 2.97332L13.3292 0.403006Z" fill="black"/>
</svg>
