<svg width="31" height="31" viewBox="0 0 31 31" fill="none" xmlns="http://www.w3.org/2000/svg"><path d="m15.418.587 14.008 1.077 1.077 14.007-14.576 14.576L.842 15.16 15.418.587Zm1.019 2.752L4.614 15.16l11.313 11.315L27.75 14.652l-.808-10.505-10.505-.808Z" fill="#51555B"/><path d="M25 8a2 2 0 1 1-4 0 2 2 0 0 1 4 0Z" fill="#51555B"/><path fill-rule="evenodd" clip-rule="evenodd" d="m19.017 9.044 3.54 2.043c1.102.637 1.157 2.365-.178 2.896l-2.214.878 1.822 1.053a1 1 0 0 1-.268 1.838l-10.69 2.55a1.089 1.089 0 0 1-.041.01c-1.687.328-2.718-1.876-1.29-2.922l2.981-2.344-.528-.305c-1.026-.592-1.175-2.161-.008-2.807l5.267-2.919a1.645 1.645 0 0 1 1.607.029Zm-.832 1.828-4.457 2.47 1.231.71a1 1 0 0 1 .118 1.653L12.2 17.967l6.612-1.577-1.437-.83a1 1 0 0 1 .131-1.795l3.371-1.338-2.692-1.555Z" fill="#51555B"/></svg>