<svg width="29" height="29" viewBox="0 0 29 29" fill="none" xmlns="http://www.w3.org/2000/svg"><path fill-rule="evenodd" clip-rule="evenodd" d="M19.76 2.092a4.583 4.583 0 1 1 6.481 6.482 4.583 4.583 0 0 1-6.482-6.482ZM23 3.25a2.083 2.083 0 1 0 0 4.167 2.083 2.083 0 0 0 0-4.167ZM10.305 9.183l-7.394 16.9H25.46l-5.466-9.11-.963 2.889c-.657 1.973-3.411 2.074-4.211.154L10.305 9.182ZM8.25 7.644c.794-1.815 3.376-1.792 4.138.037l4.482 10.757.923-2.77c.608-1.824 3.075-2.095 4.064-.447l5.973 9.955c.9 1.5-.18 3.407-1.93 3.407H2.53a2.25 2.25 0 0 1-2.061-3.151L8.25 7.643Z" fill="#6C6C6C"/></svg>