<svg width="25" height="30" viewBox="0 0 25 30" fill="none" xmlns="http://www.w3.org/2000/svg"><path d="M8.209 10.598a3.455 3.455 0 0 0-3.451 3.451 3.455 3.455 0 0 0 3.45 3.451 3.455 3.455 0 0 0 3.452-3.45 3.455 3.455 0 0 0-3.451-3.452Zm0 5.02a1.57 1.57 0 0 1-1.569-1.569 1.57 1.57 0 0 1 1.57-1.569 1.57 1.57 0 0 1 1.568 1.57 1.57 1.57 0 0 1-1.568 1.568Z" fill="#6C6C6C"/><path d="M21.797 12.637h-.54V8.45a2.593 2.593 0 0 0-2.59-2.59h-2.882l.108-.79V.779H.646V5.07l2.54 18.635v2.932c0 1.621 1.32 2.94 2.94 2.94h15.671a2.852 2.852 0 0 0 2.848-2.848V15.485a2.852 2.852 0 0 0-2.848-2.848Zm-6.936 0 .23-1.694h4.472v1.694h-4.702Zm.467 6.776c.934 0 1.694.76 1.694 1.694 0 .934-.76 1.694-1.694 1.694a1.697 1.697 0 0 1-1.665-1.381l.144-1.06c.277-.56.854-.947 1.52-.947ZM4.773 22.801 2.463 5.867l11.603.062L11.765 22.8H4.773ZM18.668 7.554c.494 0 .895.402.895.896v.798h-4.24l.23-1.694h3.115Zm-4.47-5.082v1.763L2.34 4.172v-1.7h11.858ZM9.681 27.884H6.126a1.247 1.247 0 0 1-1.245-1.246v-2.143h2.541v1.64h1.694v-1.64h2.541v2.143c0 .687-.558 1.246-1.245 1.246H9.68Zm13.27-1.154c0 .636-.517 1.154-1.154 1.154h-8.723c.177-.379.277-.8.277-1.246v-2.781c.557.401 1.24.639 1.977.639a3.392 3.392 0 0 0 3.388-3.389 3.392 3.392 0 0 0-4.578-3.172l.492-3.604h7.167c.637 0 1.154.518 1.154 1.154V26.73Z" fill="#6C6C6C"/></svg>