<svg width="51" height="71" viewBox="0 0 51 71" fill="none" xmlns="http://www.w3.org/2000/svg"><path d="M32.087 25.063v-2.1H7.417v2.1c0 1.16.93 2.1 2.09 2.1h20.48a2.1 2.1 0 0 0 2.1-2.1Zm-4.2 0v-2.1h-16.28v2.1a2.1 2.1 0 0 1-2.1 2.1h20.48a2.1 2.1 0 0 1-2.1-2.1Z" fill="#BAB9BC"/><path d="M39.467 28.123v1.18h-4.2v-1.18a.96.96 0 0 0-.96-.96h-4.32a2.1 2.1 0 0 0 2.1-2.1v-2.1h2.22c2.84 0 5.16 2.32 5.16 5.16Zm-10.89 38.79H5.197c-2.85 0-5.16-2.32-5.16-5.16v-33.63c0-2.84 2.31-5.16 5.16-5.16h2.22v2.1c0 1.16.93 2.1 2.09 2.1h-4.31a.96.96 0 0 0-.96.96v33.63c0 .53.43.96.96.96h23.3v3.39c0 .28.03.55.08.81Z" fill="#BAB9BC"/><path d="M32.087 16.393v8.67a2.1 2.1 0 1 1-4.2 0v-8.67c0-.39-.31-.7-.69-.7h-14.89c-.38 0-.7.32-.7.7v8.67a2.1 2.1 0 0 1-2.1 2.1c-1.16 0-2.09-.94-2.09-2.1v-8.67c0-2.7 2.19-4.9 4.89-4.9h14.89c2.69 0 4.89 2.2 4.89 4.9Z" fill="#BAB9BC"/><path d="M23.817 15.693h-8.68a2.1 2.1 0 0 1-2.1-2.1v-8.15c0-2.57 2.09-4.66 4.66-4.66h3.56c2.57 0 4.66 2.09 4.66 4.66v8.16a2.1 2.1 0 0 1-2.1 2.1v-.01Zm-6.58-4.2h4.48v-6.06c0-.25-.21-.46-.46-.46h-3.56c-.25 0-.46.21-.46.46v6.06Zm28.81 48.06a3.2 3.2 0 0 0-3-2.1h-11.35a3.207 3.207 0 0 0-3.2 3.21v5.44c0 .28.03.55.08.81.38 1.93 2.09 3.4 4.13 3.4h9.33c2.32 0 4.21-1.89 4.21-4.21v-5.44c0-.39-.07-.76-.2-1.11Zm-13.35 6.55v-4.45h9.35v4.46l-4.98-.01h-4.37Z" fill="#BAB9BC"/><path d="M49.427 30.813c-.81-.96-2-1.51-3.27-1.51h-17.59c-1.26 0-2.45.55-3.27 1.51-.82.96-1.17 2.23-.96 3.47l.72 4.42.3 1.81 2.92 17.84c.07.44.21.85.41 1.22.42.79 1.09 1.41 1.91 1.76.48.21 1.01.32 1.56.32h10.41c.56 0 1.09-.12 1.58-.33.81-.35 1.49-.97 1.9-1.77.2-.37.34-.77.41-1.2l2.93-17.87s-.01-.01 0-.01l.28-1.73.73-4.46a4.29 4.29 0 0 0-.97-3.47Zm-20.86 2.69h17.59l.09.1-.59 3.6-.34 2.1-.35 2.1-2.62 16.05h-9.97l-2.62-16.05-.35-2.1-.34-2.1-.59-3.6.09-.1Z" fill="#BAB9BC"/><path d="M46.867 41.403h-19c-1.07 0-1.94-.94-1.94-2.1 0-1.16.87-2.1 1.94-2.1h19c1.07 0 1.94.94 1.94 2.1 0 1.16-.87 2.1-1.94 2.1Z" fill="#BAB9BC"/></svg>