<svg width="24" height="16" viewBox="0 0 24 16" fill="none" xmlns="http://www.w3.org/2000/svg"><path fill-rule="evenodd" clip-rule="evenodd" d="M7.83 2.894A2 2 0 0 1 9.617 0H11.5a2 2 0 0 1 1.6.8L15.5 4h5a3.5 3.5 0 1 1 0 7h-4.02l-3.399 4.25a2 2 0 0 1-1.562.75H9.477a2 2 0 0 1-1.857-2.743L8.523 11H4.659a2 2 0 0 1-1.838-1.212l-2.143-5A2 2 0 0 1 2.517 2h1.865a2 2 0 0 1 1.789 1.106L6.618 4h1.764l-.553-1.106ZM10.617 4H13l-1.5-2H9.618l1 2ZM22 7.5A1.5 1.5 0 0 0 20.5 6H6.618a2 2 0 0 1-1.789-1.106L4.382 4H2.517l2.142 5h3.864a2 2 0 0 1 1.857 2.743L9.477 14h2.042l3.4-4.25A2 2 0 0 1 16.48 9h4.02A1.5 1.5 0 0 0 22 7.5Z" fill="#096045"/></svg>