<svg width="60" height="61" viewBox="0 0 60 61" fill="none" xmlns="http://www.w3.org/2000/svg"><path d="M29.843 60.283c-16.37 0-29.69-13.32-29.69-29.69S13.472.903 29.842.903c7.64 0 14.9 2.9 20.44 8.15.84.8.88 2.13.08 2.97-.8.84-2.13.87-2.97.08-4.75-4.51-10.99-7-17.54-7-14.06 0-25.49 11.43-25.49 25.49 0 14.06 11.43 25.49 25.49 25.49 14.06 0 25.49-11.43 25.49-25.49a2.1 2.1 0 1 1 4.2 0c0 16.37-13.32 29.69-29.69 29.69h-.01Z" fill="#BAB9BC"/><path d="M29.902 40.703c-2.3 0-4.12-.56-5.44-1.68-.82-.7-1.39-1.56-1.7-2.6-.31-1.04.5-2.06 1.57-2.06h2.04c.66 0 1.3.39 1.51 1.02.1.3.25.56.44.78.4.44.95.66 1.65.66 1.18 0 1.77-.49 1.77-1.46 0-.4-.13-.73-.38-.97s-.68-.48-1.29-.72l-3.51-1.29c-2.52-.94-3.78-2.61-3.78-5 0-1.65.62-2.97 1.85-3.96 1.24-.99 2.92-1.49 5.06-1.49 2.14 0 3.87.5 5.16 1.51a4.9 4.9 0 0 1 1.5 1.9c.46 1.06-.35 2.24-1.51 2.24h-1.98c-.67 0-1.25-.41-1.51-1.03-.08-.19-.18-.35-.31-.5-.33-.36-.79-.54-1.4-.54-.49 0-.87.12-1.16.35-.29.24-.43.56-.43.98 0 .35.14.66.43.92s.79.53 1.51.79l3.23 1.24c2.51.98 3.76 2.67 3.76 5.1 0 1.78-.64 3.2-1.92 4.24-1.28 1.04-3 1.56-5.17 1.56l.01.01Zm12.17-25c-1.13 0-2.06-.9-2.1-2.04-.04-1.16.88-2.13 2.03-2.16l7.17-.22-.22-7.24c-.04-1.16.88-2.13 2.03-2.16 1.14-.06 2.13.88 2.16 2.03l.28 9.33c.02.56-.19 1.1-.57 1.5-.38.4-.91.64-1.47.66l-9.27.28h-.06l.02.02Z" fill="#BAB9BC"/></svg>