<svg width="26" height="15" viewBox="0 0 26 15" fill="none" xmlns="http://www.w3.org/2000/svg"><path d="M20.5 5.5c-.542 0-1.08.098-1.587.29l-2.357-4.04H19a.75.75 0 0 1 .75.75.75.75 0 1 0 1.5 0A2.25 2.25 0 0 0 19 .25h-3.75a.75.75 0 0 0-.648 1.125l1.092 1.875h-5.388L8.773.625A.75.75 0 0 0 8.125.25H5.5a.75.75 0 0 0 0 1.5h2.195L8.98 3.954l-1.473 2.02a4.512 4.512 0 1 0 1.211.885l1.087-1.49 2.922 5.006a.75.75 0 1 0 1.296-.75L11.18 4.75h5.39l1.048 1.797A4.5 4.5 0 1 0 20.5 5.5ZM8.5 10a3 3 0 1 1-1.895-2.788l-1.71 2.344a.75.75 0 1 0 1.21.883l1.712-2.344c.442.536.684 1.21.683 1.905Zm12 3a3 3 0 0 1-2.11-5.13l1.462 2.505a.75.75 0 1 0 1.296-.75l-1.464-2.512A3 3 0 1 1 20.5 13Z" fill="#AFB1B6"/></svg>