<svg width="87" height="77" viewBox="0 0 87 77" fill="none" xmlns="http://www.w3.org/2000/svg"><path d="M55.224 24.023a2.1 2.1 0 0 0-2.08 2.12l.08 7.81c1.32-.71 2.73-1.29 4.17-1.71l-.06-6.14a2.098 2.098 0 0 0-2.11-2.08Zm13.49 4.51-4.5-13.19c-1-2.94-3.04-5.39-5.75-6.89l-12.53-6.98a8.606 8.606 0 0 0-4.3-1.1l-14.74.14c-1.42.01-2.81.39-4.03 1.05-.08.05-.17.08-.24.13l-12.39 7.21a12.55 12.55 0 0 0-5.63 7.01l-4.24 13.27c-.43 1.32-.31 2.74.33 3.98a5.204 5.204 0 0 0 3.05 2.58l8.07 2.57.19 19.98a6.393 6.393 0 0 0 6.44 6.33l25.53-.25c-.7-1.32-1.29-2.72-1.71-4.18l-23.86.23c-1.2.01-2.2-.96-2.21-2.17l-.31-31.75a2.091 2.091 0 0 0-2.11-2.08 2.1 2.1 0 0 0-2.08 2.12l.07 7.35-6.75-2.15a1.024 1.024 0 0 1-.65-1.27l4.23-13.27a8.283 8.283 0 0 1 3.74-4.66l10.08-5.87c1.21 3.41 4.07 9.14 10.12 12.4l.08 8.7c.01 1.16.95 2.09 2.11 2.08a2.1 2.1 0 0 0 2.08-2.12l-.08-8.69c5.94-3.33 8.52-9.09 9.59-12.56l10.11 5.63c1.8 1 3.16 2.63 3.82 4.58l4.49 13.19c.19.53-.1 1.1-.63 1.29l-.43.14c1.66 0 3.29.17 4.88.51.05 0 .11.02.16.04.36-1.04.38-2.21 0-3.33Zm-34.12-13.11c-5.16-2.75-7.49-7.96-8.39-10.64.24-.04.48-.06.73-.07l14.74-.14c.27 0 .53.02.8.07-.73 2.66-2.75 7.95-7.88 10.78Z" fill="#BAB9BC"/><path d="m46.884 25.723-4.65.04c-.71 0-1.37.29-1.86.8a2.66 2.66 0 0 0-.75 1.89l.05 3.06c.02.81.39 1.57 1.04 2.06l2.35 1.8c.48.37 1.06.55 1.63.54.57-.01 1.15-.2 1.62-.58l2.28-1.82c.64-.51 1-1.27.99-2.08l-.03-3.1a2.638 2.638 0 0 0-2.67-2.61Zm-2.23 7.4-2.23-1.65-.08-2.95 4.44-.04.08 2.88-2.21 1.76Zm41.52 18.52c-.92-9.79-8-17.76-17.61-19.81a22.34 22.34 0 0 0-4.98-.52c-7.53.07-14.49 3.88-18.61 10.19a22.382 22.382 0 0 0-3.65 12.5c.01 1.14.11 2.28.3 3.37v.02c1.48 9.23 8.64 16.64 17.85 18.45 1.5.29 3.03.43 4.55.41 1.31-.01 2.61-.14 3.89-.38a22.49 22.49 0 0 0 10.42-4.94 22.404 22.404 0 0 0 7.95-17.37c0-.65-.04-1.31-.11-1.93v.01Zm-4.22-2.04c-3.3-.24-6.52.22-9.52 1.35a28.334 28.334 0 0 0-4.31-4.24c1.48-3.09 2.24-6.49 2.21-9.93 0-.15-.02-.29-.02-.44a18.47 18.47 0 0 1 11.64 13.27v-.01Zm-7.19 19.24c-.29.21-.58.41-.88.6-.24.15-.47.3-.72.44-.34.19-.68.38-1.03.55-.21.1-.42.21-.63.3-.4.18-.81.35-1.23.5-.17.06-.35.13-.52.19-.46.15-.93.29-1.4.41-.15.04-.29.08-.44.11-.49.11-.99.2-1.49.27-.15.02-.29.05-.44.06-.48.06-.96.09-1.45.11-.18 0-.36.02-.55.02-.43 0-.87-.01-1.3-.04-.24-.01-.48-.02-.72-.04-.1 0-.21-.03-.31-.04v-.09c-.07-6.85 3.64-13.14 9.55-16.46 2.47 3.82 3.83 8.2 3.96 12.8-.13.1-.26.21-.4.3v.01Zm-9.87-33.66c.12 0 .24.02.36.03.32.02.63.06.94.1l.23.03c.05.48.07.97.07 1.47.03 2.64-.52 5.25-1.57 7.66-4.27-2.56-9.1-3.93-14.12-4.04a18.61 18.61 0 0 1 12.81-5.28c.43 0 .85.01 1.27.04l.01-.01Zm-19.65 20.26v-.03c-.04-.48-.07-.96-.07-1.45 0-.45 0-.89.04-1.33 0-.15.03-.3.04-.45.02-.29.05-.58.09-.87.02-.18.06-.35.08-.53a11.311 11.311 0 0 1 .26-1.32c.06-.24.11-.48.18-.71.05-.19.11-.38.17-.56.07-.23.15-.46.23-.69.07-.19.14-.37.21-.55.09-.23.18-.45.28-.67.08-.18.16-.35.24-.53.11-.22.22-.45.34-.67.09-.17.18-.33.27-.49.05-.08.1-.16.14-.24a24.807 24.807 0 0 1 15.3 3.45c-3.44 4.81-9.03 7.77-14.99 7.82-.94 0-1.88-.05-2.8-.19l-.01.01Zm.79 3.94c.68.06 1.36.09 2.05.08 7.19-.07 13.93-3.64 18.08-9.44.98.81 1.88 1.7 2.71 2.64a22.504 22.504 0 0 0-11.03 18.78c-5.63-1.91-10.04-6.41-11.81-12.06Zm32.66 5.63c-.56-3.84-1.88-7.5-3.92-10.81 2.43-.76 5.01-1.02 7.67-.71v.13c.04 4.16-1.3 8.15-3.75 11.4v-.01Z" fill="#BAB9BC"/></svg>