<svg width="86" height="72" viewBox="0 0 86 72" fill="none" xmlns="http://www.w3.org/2000/svg"><path d="M33.476 1.138a25.96 25.96 0 0 0-5.92-.67 26.76 26.76 0 0 0-22.29 11.92 26.654 26.654 0 0 0-4.41 16.9c.05.67.13 1.34.24 2v.02c1.66 11 10.11 19.91 21.05 22.17 1.79.36 3.61.55 5.41.55 1.38 0 2.75-.11 4.09-.33.24-1.43.58-2.93 1.07-4.49-.2.04-.4.08-.59.13l-.47.09-.73.12c-.17.03-.33.05-.5.07-.24.03-.48.06-.71.08-.18.02-.35.04-.53.05-.23.02-.46.03-.69.04-.19.01-.37.02-.55.02h-.68c-.19 0-.38 0-.57-.01-.22-.01-.45-.02-.68-.04l-.55-.03h-.04c-.23-.02-.47-.05-.7-.08-.06 0-.11-.01-.16-.02v-.3c0-8.37 4.62-16 11.91-19.92 1.4 2.18 2.5 4.52 3.29 6.95.95-1.17 2-2.36 3.18-3.54-.69-1.75-1.54-3.44-2.53-5.06 2.99-.94 6.16-1.25 9.41-.87 1.46-1.05 2.9-1.97 4.32-2.76-1.3-11.3-9.51-20.48-20.67-22.98v-.01Zm-5.92 3.52c.53 0 1.06.03 1.59.07l.45.03c.42.04.84.09 1.26.16l.26.03a22.714 22.714 0 0 1-2.01 11.42c-5.25-3.26-11.24-5.01-17.48-5.13a22.55 22.55 0 0 1 15.93-6.58Zm-22.5 24.41c-.05-.6-.08-1.2-.08-1.82 0-.55.02-1.08.05-1.62l.06-.53c.03-.36.07-.71.12-1.07.03-.21.07-.41.1-.62.06-.32.11-.64.18-.95.05-.22.1-.44.16-.65.07-.3.15-.6.23-.9l.21-.66c.09-.28.19-.57.29-.85.08-.22.17-.44.26-.66a19.153 19.153 0 0 1 .66-1.47c.13-.26.26-.52.4-.77.12-.22.24-.44.36-.65.07-.1.13-.21.2-.31.89-.08 1.81-.12 2.73-.12 5.72 0 11.22 1.58 16.01 4.58-4.22 5.89-11.09 9.48-18.38 9.48-1.2 0-2.38-.1-3.55-.28 0-.04-.01-.08-.01-.13Zm15.33 19.58c-7.01-2.35-12.46-8.03-14.5-15.12.9.09 1.81.14 2.73.14 8.64 0 16.77-4.24 21.77-11.2 1.3 1.08 2.5 2.26 3.59 3.53a26.832 26.832 0 0 0-13.59 22.65Zm17.5-24.47a34.69 34.69 0 0 0-5.31-5.32c1.85-3.71 2.82-7.8 2.82-11.97 0-.27-.03-.54-.03-.82a22.382 22.382 0 0 1 14.29 16.59c-4.06-.38-8.05.14-11.77 1.52Z" fill="#BAB9BC"/><path d="M85.376 25.138a5.92 5.92 0 0 0-4.01-4.47c-5.57-1.76-20.24-4.35-35.96 9.78-15.91 14.28-14.8 29.08-13.58 34.78a5.961 5.961 0 0 0 3.94 4.39c2.06.68 5.37 1.48 9.54 1.48 7.04 0 16.51-2.28 26.5-11.25 15.73-14.12 14.73-28.98 13.57-34.71Zm-13.41-1.67c3.54 0 6.36.65 8.13 1.21.59.19 1.04.69 1.17 1.3.49 2.45.94 6.8-.36 12.09a20.622 20.622 0 0 1-8.2-5.58 20.787 20.787 0 0 1-4.67-8.75c1.39-.19 2.7-.27 3.93-.27Zm-34.9 42.17c-.58-.19-1.02-.68-1.15-1.28-.52-2.44-1.01-6.8.31-12.12 3.15 1.16 5.98 3.06 8.25 5.59 2.27 2.53 3.86 5.55 4.68 8.8-5.43.74-9.72-.21-12.09-1v.01Zm31.93-8.91c-5.6 5.03-10.97 7.72-15.72 9.05-.97-3.98-2.9-7.67-5.67-10.75-2.77-3.09-6.23-5.4-10.08-6.78 1.83-4.59 5.08-9.64 10.68-14.67 5.57-5 10.95-7.68 15.72-8.99.97 3.97 2.9 7.64 5.66 10.71 2.76 3.08 6.2 5.38 10.04 6.78-1.82 4.6-5.06 9.66-10.63 14.66v-.01Z" fill="#BAB9BC"/></svg>