<svg width="66" height="57" viewBox="0 0 66 57" fill="none" xmlns="http://www.w3.org/2000/svg"><path d="M49.423 56.613h-33.34c-4.41 0-8-3.59-8-8v-24.37c0-1.32.33-2.63.96-3.79.55-1.02 1.83-1.4 2.85-.85 1.02.55 1.4 1.83.85 2.85-.3.55-.45 1.15-.45 1.79v24.37c0 2.1 1.71 3.8 3.81 3.8h33.34c2.1 0 3.81-1.7 3.81-3.8v-24.37c0-.62-.15-1.24-.45-1.79-.55-1.02-.17-2.29.85-2.84 1.02-.55 2.29-.17 2.84.85.62 1.15.95 2.46.95 3.78v24.37c0 4.41-3.59 8-8 8h-.02Z" fill="#BAB9BC"/><path d="M40.063 56.613h-14.62a2.1 2.1 0 0 1-2.1-2.1v-15.26c0-2.87 2.33-5.2 5.2-5.2h8.42c2.87 0 5.2 2.33 5.2 5.2v15.26a2.1 2.1 0 0 1-2.1 2.1Zm-12.52-4.2h10.42v-13.16c0-.55-.45-1-1-1h-8.42c-.55 0-1 .45-1 1v13.16Zm5.211-25.53c-1.4 0-2.79-.46-3.93-1.39l-1.87-1.53c-.74-.6-1.81-.6-2.55 0l-1.87 1.53c-2.27 1.86-5.58 1.86-7.86 0l-1.87-1.53c-.74-.6-1.81-.6-2.55 0l-1.26 1.03a4.918 4.918 0 0 1-4.51.9 4.917 4.917 0 0 1-3.27-3.23l-.43-1.38c-1.42-4.56-.92-9.57 1.39-13.75l1.36-2.47a8.654 8.654 0 0 1 7.58-4.47h43.23c3.15 0 6.06 1.71 7.58 4.48l1.36 2.47a17.64 17.64 0 0 1 1.39 13.75l-.43 1.38a4.897 4.897 0 0 1-3.27 3.23c-1.56.47-3.25.13-4.51-.9l-1.26-1.03c-.74-.6-1.81-.6-2.55 0l-1.87 1.53a6.233 6.233 0 0 1-7.86 0l-1.87-1.53c-.74-.6-1.81-.6-2.55 0l-1.87 1.53a6.192 6.192 0 0 1-3.93 1.39l.05-.01Zm-7.07-7.57c1.4 0 2.79.46 3.93 1.39l1.87 1.53c.74.6 1.81.6 2.55 0l1.87-1.53c2.27-1.86 5.58-1.86 7.86 0l1.87 1.53c.74.6 1.81.6 2.55 0l1.87-1.53a6.233 6.233 0 0 1 7.86 0l1.26 1.03c.25.2.51.17.64.13.13-.04.37-.15.47-.46l.43-1.38c1.09-3.47.7-7.29-1.06-10.47l-1.36-2.47a4.476 4.476 0 0 0-3.91-2.31h-43.23c-1.63 0-3.12.88-3.91 2.31l-1.36 2.47c-1.76 3.18-2.14 7-1.06 10.47l.43 1.38c.1.31.33.42.47.46.13.04.39.08.65-.13l1.26-1.03a6.233 6.233 0 0 1 7.86 0l1.87 1.53c.74.6 1.81.6 2.55 0l1.87-1.53a6.192 6.192 0 0 1 3.93-1.39h-.03Z" fill="#BAB9BC"/></svg>