<svg width="21" height="25" viewBox="0 0 21 25" fill="none" xmlns="http://www.w3.org/2000/svg"><path d="M9.115.19c-1.807 0-3.259 1.5-3.259 3.317v.403H2.192a.925.925 0 0 0-.923.924v.923H.346v1.846h1.846v13.846a2.785 2.785 0 0 0 2.77 2.77h11.076a2.785 2.785 0 0 0 2.77-2.77V7.603h1.846V5.757h-.923v-.923a.925.925 0 0 0-.923-.923h-3.664v-.405c0-1.815-1.452-3.316-3.26-3.316H9.116Zm0 1.903h2.77c.742 0 1.356.606 1.356 1.413v.405H7.759v-.405c0-.807.613-1.412 1.355-1.412l.001-.001Zm-5.077 5.51H8.77c.115.012.228.028.346.028h2.77c.118 0 .23-.016.346-.028h4.73v13.846a.91.91 0 0 1-.922.923H4.961a.91.91 0 0 1-.923-.923V7.603Zm1.847 1.846v11.077H7.73V9.449H5.885Zm3.692 0v11.077h1.846V9.449H9.577Zm3.692 0v11.077h1.846V9.449H13.27Z" fill="#FF3747"/></svg>